<svg width="50" height="47" viewBox="0 0 50 47" fill="none" xmlns="http://www.w3.org/2000/svg">
<path fill-rule="evenodd" clip-rule="evenodd" d="M34.9794 1.65024C38.3145 -0.292336 42.4997 2.11026 42.4997 5.97041V14.1182C43.4847 14.1182 44.46 14.3122 45.3699 14.6892C46.2799 15.0661 47.1067 15.6186 47.8032 16.315C48.4997 17.0115 49.0521 17.8383 49.4291 18.7483C49.806 19.6583 50 20.6336 50 21.6185C50 22.6035 49.806 23.5788 49.4291 24.4888C49.0521 25.3988 48.4997 26.2256 47.8032 26.9221C47.1067 27.6185 46.2799 28.171 45.3699 28.5479C44.46 28.9248 43.4847 29.1188 42.4997 29.1188V36.6191C42.4997 40.7393 37.797 43.0919 34.4994 40.6193L29.3492 36.7542C26.5962 34.69 23.3908 33.3118 19.9988 32.734V39.8443C19.9991 41.4787 19.4085 43.0581 18.336 44.2914C17.2634 45.5247 15.7813 46.3287 14.1626 46.5553C12.544 46.7818 10.898 46.4156 9.52808 45.5241C8.15818 44.6327 7.1567 43.276 6.70826 41.7043L2.78311 27.9638C1.3706 26.2957 0.451356 24.2667 0.128718 22.1048C-0.19392 19.943 0.0928334 17.734 0.956745 15.7261C1.82066 13.7183 3.22748 11.9913 5.01907 10.7391C6.81067 9.48693 8.91601 8.75931 11.0984 8.63802L18.6437 8.218C22.3354 8.01257 25.9256 6.93379 29.1192 5.07038L34.9794 1.65024ZM9.08336 31.814L11.516 40.3318C11.633 40.7441 11.8953 41.1001 12.2544 41.3341C12.6135 41.5681 13.0451 41.6643 13.4696 41.6049C13.8941 41.5455 14.2827 41.3345 14.5637 41.0109C14.8448 40.6872 14.9992 40.2729 14.9986 39.8443V32.319L11.0984 32.1015C10.4197 32.0638 9.74552 31.9676 9.08336 31.814ZM44.9998 21.6185C44.9998 20.9555 44.7364 20.3196 44.2675 19.8507C43.7987 19.3818 43.1628 19.1184 42.4997 19.1184V24.1186C43.1628 24.1186 43.7987 23.8552 44.2675 23.3864C44.7364 22.9175 44.9998 22.2816 44.9998 21.6185Z" fill="#194369"/>
</svg>
