<svg width="2109" height="581" viewBox="0 0 2109 581" fill="none" xmlns="http://www.w3.org/2000/svg">
<path d="M236.507 2.15168C188.387 11.8794 147.077 31.2051 108.425 62.0743C98.7625 69.8564 75.9349 92.4247 67.8285 102.217C31.1875 146.77 9.26774 198.327 2.3935 256.369C0.901923 268.431 0.383113 296.577 1.35588 309.352C2.32865 321.739 4.14449 335.487 6.34943 346.123C8.03557 354.424 12.3806 371.674 13.937 376.019L14.845 378.549L15.8826 376.992C18.736 372.517 249.153 0.660092 249.153 0.465539C249.153 -0.118123 244.937 0.400691 236.507 2.15168Z" fill="#DA251C"/>
<path d="M715.889 188.729C689.949 236.135 668.418 275.37 668.029 275.954C667.445 277.056 669.132 277.121 700.39 277.121H733.334L740.727 264.151L748.056 251.181H802.79H857.46L865.177 262.984C869.392 269.533 873.284 275.37 873.737 276.019C874.581 277.056 876.656 277.121 907.201 276.991L939.756 276.797L884.503 189.766L829.249 102.671H796.175H763.101L715.889 188.729ZM818.03 189.118C826.591 202.607 833.465 213.761 833.335 213.956C833.141 214.086 818.419 214.15 800.52 214.086L767.965 213.891L782.751 186.978C790.858 172.192 797.732 159.675 798.056 159.221C798.38 158.638 799.158 159.286 800.52 161.491C801.623 163.177 809.535 175.629 818.03 189.118Z" fill="#DA251C"/>
<path d="M953.438 104.746C953.438 105.914 954.152 142.166 955.06 185.357C955.968 228.483 956.681 266.81 956.681 270.441V277.121H985.54H1014.4V273.425C1014.4 271.414 1013.94 243.334 1013.36 211.102C1012.84 178.871 1012.52 152.347 1012.58 152.217C1012.71 152.088 1046.76 180.168 1088.2 214.54L1163.49 277.121H1196.31H1229.06V268.82C1229.06 264.281 1228.34 225.24 1227.44 182.114C1226.53 138.923 1225.81 103.449 1225.81 103.125C1225.81 102.866 1212.84 102.671 1196.96 102.671H1168.1L1168.42 112.204C1169.07 129.325 1170.82 229.261 1170.5 229.585C1170.3 229.715 1136.25 201.245 1094.75 166.29L1019.39 102.671H986.383H953.438V104.746Z" fill="#DA251C"/>
<path d="M1253.83 147.354C1254.86 189.702 1254.99 192.166 1256.23 194.631C1258.89 199.754 1266.28 204.034 1274.51 205.137C1277.11 205.461 1294.62 205.785 1313.36 205.785C1349.74 205.785 1352.98 206.045 1357.91 209.093C1362.32 211.816 1362.26 211.168 1362.91 245.798L1363.49 277.122H1392.22H1421.01L1420.95 266.227C1420.95 260.26 1420.69 246.512 1420.43 235.617C1420.17 224.722 1420.11 215.124 1420.3 214.281C1420.69 211.946 1424.26 208.833 1428.15 207.471C1431.45 206.239 1434.31 206.174 1470.3 205.785C1507.85 205.396 1509.02 205.396 1513.23 203.969C1518.94 202.089 1523.41 198.911 1525.36 195.409L1526.92 192.62L1526.14 154.293C1525.75 133.217 1525.42 112.983 1525.42 109.286V102.672H1496.44H1467.51L1467.9 116.42C1468.16 124.008 1468.55 137.497 1468.74 146.446L1469.13 162.659L1467.58 164.929C1466.67 166.226 1464.46 167.977 1462.19 169.144L1458.37 171.09L1391.9 171.284C1334.57 171.414 1324.97 171.284 1322.12 170.441C1318.03 169.274 1314.79 167.134 1312.97 164.475C1311.67 162.529 1311.61 161.362 1311.16 143.398C1310.96 132.957 1310.57 119.533 1310.38 113.502L1309.92 102.672H1281.32H1252.72L1253.83 147.354Z" fill="#DA251C"/>
<path d="M1596.25 186.783C1570.89 233.087 1549.36 272.322 1548.45 274.008L1546.7 277.121H1579.71H1612.65L1619.98 264.151L1627.31 251.181H1682.04H1736.71L1745.21 264.151L1753.7 277.121H1786.45H1819.2L1816.68 273.035C1815.25 270.831 1790.35 231.595 1761.36 185.875L1708.63 102.736L1675.49 102.671H1642.35L1596.25 186.783ZM1695.92 186.848C1705.2 201.569 1712.85 213.761 1712.85 213.891C1712.85 214.086 1698.06 214.215 1680.03 214.215C1661.16 214.215 1647.35 213.956 1647.48 213.632C1647.61 213.307 1654.42 200.791 1662.59 185.81C1673.81 165.382 1677.7 158.767 1678.22 159.286C1678.67 159.74 1686.58 172.127 1695.92 186.848Z" fill="#DA251C"/>
<path d="M1854.87 103.709C1845.6 105.72 1836.71 111.88 1834.38 118.041C1833.28 120.895 1833.28 123.748 1834.32 182.698C1834.96 216.615 1835.68 251.765 1835.87 260.714L1836.26 277.122H1865.12H1893.98L1893.59 255.526C1893.2 235.876 1893.27 233.736 1894.3 231.726C1895.86 228.613 1900.2 225.5 1904.16 224.657C1908.76 223.684 2033.8 223.684 2038.4 224.657C2040.22 225.046 2043.01 226.278 2044.69 227.381C2050.08 231.012 2050.01 230.493 2050.46 255.267L2050.92 277.122H2079.78H2108.57L2108.12 251.959L2107.66 226.862L2104.81 220.896C2102.41 215.967 2101.44 214.605 2099.04 212.919C2094.89 210.065 2089.83 207.925 2085.03 207.017C2082.76 206.628 2080.04 206.045 2078.93 205.72C2077.05 205.266 2077.05 205.266 2079.58 205.201C2090.09 204.942 2101.96 198.522 2105.52 191.194L2107.27 187.627L2106.56 155.979C2106.17 138.599 2105.65 123.294 2105.52 121.932C2104.55 114.734 2098 108.573 2087.24 104.747L2082.18 102.996L1970.63 102.866C1876.79 102.801 1858.44 102.931 1854.87 103.709ZM2042.29 141.971C2044.95 143.463 2046.25 144.695 2047.35 146.77C2048.71 149.494 2048.78 150.402 2048.78 164.151C2048.78 180.234 2048.65 180.817 2044.5 183.671C2039.63 187.043 2042.16 186.913 1970.57 186.978C1897.74 186.978 1900.85 187.108 1895.92 183.347C1892.29 180.558 1892.03 179.52 1891.58 163.762C1891.12 147.484 1891.38 146.252 1895.34 143.204C1900.2 139.507 1896.83 139.702 1970.63 139.831L2038.73 139.961L2042.29 141.971Z" fill="#DA251C"/>
<path d="M691.118 300.533C679.704 301.636 670.041 307.018 666.344 314.347L664.658 317.654L665.761 386.072C666.409 423.686 667.187 455.528 667.512 456.825C669.327 464.023 677.239 470.249 688.07 473.038C692.804 474.205 696.306 474.27 802.273 474.27C922.377 474.27 914.855 474.529 923.35 470.379C928.538 467.85 932.883 463.959 934.699 460.132C935.866 457.733 936.191 456.047 936.126 452.221C936.126 449.562 935.866 433.868 935.607 417.331L935.153 387.369H906.683H878.214V408.77V430.106L876.268 432.311C875.23 433.543 872.766 435.23 870.95 436.073L867.513 437.629H801.04H734.568L730.871 435.813C726.591 433.738 724.062 431.014 723.608 428.031C723.413 426.864 722.96 408.057 722.635 386.202C721.857 342.103 721.792 343.659 726.008 340.352C731.001 336.591 725.683 336.785 834.244 336.785H933.986V329.457C933.986 325.501 933.791 317.135 933.532 310.974L933.143 299.82L814.724 299.885C749.613 299.95 693.971 300.209 691.118 300.533Z" fill="#DA251C"/>
<path d="M976.138 300.468C963.297 301.83 952.597 308.51 950.132 316.681C949.614 318.497 949.743 337.758 950.781 391.973C951.559 432.052 952.143 467.006 952.143 469.536V474.27H980.677H1009.28L1009.15 452.22C1009.08 426.799 1008.95 427.577 1015.05 424.075L1018.62 422.064L1084.63 421.87C1126.92 421.805 1151.56 421.935 1153.05 422.389C1156.68 423.362 1161.42 426.604 1162.65 429.004C1163.69 430.884 1163.88 433.932 1164.27 452.22C1164.53 463.829 1164.79 473.492 1164.79 473.751C1164.85 474.075 1177.7 474.27 1193.39 474.27H1221.92L1221.6 470.508C1221.47 468.498 1221.15 457.214 1220.95 445.476L1220.63 424.205L1218.16 418.887C1215.44 413.115 1212.91 410.456 1207.59 407.732C1204.03 405.917 1195.66 403.647 1192.48 403.517C1191.38 403.517 1192.55 403.063 1195.08 402.609C1206.88 400.469 1215.7 395.281 1218.88 388.536C1220.24 385.683 1220.3 377.641 1219.27 342.297C1218.68 320.378 1218.49 318.108 1217.25 315.254C1214.79 309.483 1207.46 304.23 1198.12 301.571L1193.07 300.144L1087.03 300.079C1028.73 300.014 978.797 300.209 976.138 300.468ZM1154.22 338.601C1156.04 339.444 1158.56 341.13 1159.73 342.362L1161.94 344.632L1162.46 359.807C1163.04 377.058 1162.84 378.355 1158.3 381.338C1152.92 384.84 1155 384.775 1085.09 384.775C1014.92 384.775 1017.12 384.905 1011.81 381.208C1007.66 378.355 1007.4 377.123 1007.27 361.429C1007.2 353.776 1007.2 346.837 1007.2 346.059C1007.33 343.011 1012.65 338.666 1017.97 337.369C1019.07 337.109 1049.42 336.98 1085.41 336.98L1150.91 337.109L1154.22 338.601Z" fill="#DA251C"/>
<path d="M1271.53 300.468C1259.92 301.635 1250.07 307.212 1246.44 314.605C1245.07 317.524 1245.01 318.302 1245.14 330.299C1245.59 366.227 1247.28 453.517 1247.54 455.852C1248.51 463.18 1256.94 470.054 1268.42 473.037C1273.22 474.204 1276.66 474.269 1382.43 474.269C1488.2 474.269 1491.64 474.204 1496.44 473.037C1505.45 470.702 1511.87 466.228 1514.79 460.261L1516.54 456.63L1515.44 388.73C1514.79 350.144 1514.08 319.664 1513.69 318.043C1512.39 312.4 1508.5 308.25 1500.98 304.424C1491.96 299.884 1500.33 300.208 1382.75 300.079C1324.45 300.014 1274.39 300.208 1271.53 300.468ZM1450.07 338.665C1454.09 340.481 1457.14 343.724 1457.59 346.642C1458.24 350.792 1459.21 428.29 1458.69 429.716C1457.85 431.857 1453.38 435.683 1450.46 436.72C1448.38 437.499 1436.13 437.628 1381.46 437.628H1314.98L1311.74 436.137C1308.11 434.451 1305.84 432.57 1304.61 430.17C1303.96 428.938 1303.57 418.692 1302.99 387.304C1302.08 340.935 1301.88 343.594 1306.94 340.222C1312.13 336.785 1310.57 336.849 1381.13 336.979L1446.63 337.109L1450.07 338.665Z" fill="#DA251C"/>
<path d="M1540.08 315.837C1540.28 324.722 1540.99 360.001 1541.64 394.307C1542.74 456.046 1542.81 456.694 1544.23 459.613C1546.05 463.374 1550.78 467.654 1556.04 470.248C1564.66 474.464 1557.46 474.269 1677.83 474.269C1798.97 474.269 1791.12 474.528 1799.88 469.924C1805.06 467.2 1810.12 462.077 1811.29 458.316C1811.87 456.305 1811.74 439.768 1810.71 380.559C1809.99 339.184 1809.28 304.099 1809.09 302.543L1808.76 299.819H1780.55H1752.41V308.379C1752.41 313.114 1752.86 338.146 1753.38 364.022C1754.68 429.197 1754.68 428.808 1752.92 431.532C1752.02 432.894 1749.94 434.45 1747.54 435.683L1743.65 437.628L1678.86 437.823C1608.44 438.017 1609.54 438.082 1604.03 434.386C1598.97 431.013 1599.42 436.137 1598.06 366.421C1597.35 332.115 1596.76 303.062 1596.76 301.894V299.819H1568.23H1539.69L1540.08 315.837Z" fill="#DA251C"/>
<path d="M1862.98 300.468C1857.01 301.117 1853.44 302.154 1848.84 304.489C1842.22 307.796 1837.55 313.049 1836.45 318.302C1836.19 319.729 1838.92 473.232 1839.24 474.075C1839.31 474.205 1852.02 474.27 1867.65 474.27H1895.92L1895.47 448.005L1895.01 421.74L1989.24 421.546C2075.43 421.416 2083.79 421.286 2087.04 420.313C2097.74 417.006 2104.87 410.91 2106.49 403.906C2106.75 402.804 2106.62 383.154 2106.17 360.131C2105.46 320.248 2105.39 318.173 2104.09 315.384C2101.43 309.483 2093.78 304.1 2084.12 301.311C2080.49 300.274 2072.9 300.144 1973.87 300.079C1915.38 300.014 1865.51 300.209 1862.98 300.468ZM2041.84 338.925C2043.91 339.963 2046.31 341.779 2047.28 343.076L2049.1 345.41L2049.29 360.715C2049.55 375.955 2049.55 376.02 2048 378.29C2047.15 379.522 2044.88 381.403 2042.94 382.505L2039.37 384.451L1973.22 384.645C1912.98 384.775 1906.82 384.71 1903.64 383.737C1899.1 382.311 1895.14 378.744 1894.43 375.372C1894.1 373.945 1893.78 366.617 1893.78 359.094C1893.78 345.929 1893.85 345.345 1895.27 343.27C1896.96 340.676 1900.01 338.795 1904.09 337.693C1906.43 337.044 1922.12 336.915 1972.57 336.98L2038.07 337.109L2041.84 338.925Z" fill="#DA251C"/>
<path d="M105.31 491.131C100.576 498.654 96.8792 505.074 97.0737 505.398C97.2683 505.723 100.705 508.706 104.726 512.078C139.227 540.937 178.332 560.911 221.653 571.806C246.426 577.967 265.103 580.237 292.276 580.237C326.777 580.237 353.496 575.957 385.532 565.321C395.973 561.819 398.308 560.846 398.049 559.938C397.854 559.355 392.99 540.613 387.218 518.174L376.713 477.512H245.324H113.935L105.31 491.131Z" fill="#DA251C"/>
<path d="M516.053 447.415C543.748 402.965 560.004 358.096 566.454 308.296C568.022 295.807 568.86 263.743 567.939 251.27C563.578 194.713 543.908 145.653 509.051 104.667C501.852 96.0984 482.94 78.4756 473.492 71.4431C464.311 64.6484 453.595 57.6958 444.734 52.9576C437.843 49.2316 422.922 42.1616 418.834 40.7505L416.453 39.9307L416.779 41.7125C417.807 46.7315 508.045 458.446 508.178 458.565C508.578 458.922 511.233 455.232 516.053 447.415Z" fill="#FF9900"/>
<path d="M299.092 173.683L348.372 346.35H180.083L299.092 173.683Z" fill="#FF9900"/>
</svg>
