<svg width="50" height="50" viewBox="0 0 50 50" fill="none" xmlns="http://www.w3.org/2000/svg">
<g clip-path="url(#clip0_8090_15025)">
<path fill-rule="evenodd" clip-rule="evenodd" d="M22.5127 5C21.5272 5 20.5514 5.19399 19.641 5.5709C18.7305 5.94781 17.9032 6.50026 17.2064 7.1967C16.5096 7.89314 15.9568 8.71993 15.5797 9.62987C15.2026 10.5398 15.0085 11.5151 15.0085 12.5C15.0085 13.4849 15.2026 14.4602 15.5797 15.3701C15.9568 16.2801 16.5096 17.1069 17.2064 17.8033C17.9032 18.4997 18.7305 19.0522 19.641 19.4291C20.5514 19.806 21.5272 20 22.5127 20C24.503 20 26.4117 19.2098 27.819 17.8033C29.2263 16.3968 30.0169 14.4891 30.0169 12.5C30.0169 10.5109 29.2263 8.60322 27.819 7.1967C26.4117 5.79018 24.503 5 22.5127 5ZM10.0056 12.5C10.0056 9.18479 11.3234 6.00537 13.6689 3.66117C16.0144 1.31696 19.1956 0 22.5127 0C25.8298 0 29.011 1.31696 31.3565 3.66117C33.7021 6.00537 35.0198 9.18479 35.0198 12.5C35.0198 15.8152 33.7021 18.9946 31.3565 21.3388C29.011 23.683 25.8298 25 22.5127 25C19.1956 25 16.0144 23.683 13.6689 21.3388C11.3234 18.9946 10.0056 15.8152 10.0056 12.5ZM6.03591 39.0025C5.22795 40.0275 5.00282 40.8025 5.00282 41.25C5.00282 41.555 5.09538 41.8775 5.64068 42.315C6.26354 42.815 7.34665 43.3325 9.00258 43.77C12.2994 44.645 17.0371 45 22.5127 45C23.068 45 23.6158 44.995 24.1586 44.9875C24.822 44.9786 25.4619 45.2334 25.9373 45.6959C26.4127 46.1584 26.6849 46.7907 26.6938 47.4538C26.7028 48.1168 26.4478 48.7562 25.985 49.2314C25.5223 49.7066 24.8896 49.9786 24.2262 49.9875C23.6609 49.995 23.088 50 22.5127 50C16.9371 50 11.6691 49.65 7.72186 48.605C5.75825 48.085 3.90971 47.34 2.50892 46.215C1.02558 45.025 0 43.3625 0 41.25C0 39.2825 0.895506 37.4425 2.11119 35.9025C3.34689 34.34 5.05535 32.9025 7.05898 31.6775C11.0687 29.2375 16.5218 27.5 22.5127 27.5C23.6308 27.5 24.7315 27.56 25.8046 27.675C26.4643 27.745 27.0693 28.074 27.4863 28.5897C27.9033 29.1054 28.0983 29.7656 28.0283 30.425C27.9583 31.0844 27.6291 31.689 27.1131 32.1058C26.5971 32.5226 25.9365 32.7175 25.2768 32.6475C24.3763 32.55 23.4507 32.5 22.5127 32.5C17.4523 32.5 12.8998 33.975 9.66545 35.9475C8.04704 36.9325 6.82385 38.0025 6.03591 39.0025ZM49.2978 35.17C49.7535 34.6985 50.0056 34.067 49.9999 33.4115C49.9942 32.756 49.7311 32.129 49.2673 31.6655C48.8036 31.2019 48.1762 30.939 47.5203 30.9333C46.8645 30.9276 46.2326 31.1796 45.7608 31.635L37.8013 39.59L34.2643 36.055C33.7926 35.5996 33.1607 35.3476 32.5048 35.3533C31.849 35.359 31.2216 35.6219 30.7578 36.0855C30.294 36.549 30.031 37.176 30.0253 37.8315C30.0196 38.487 30.2717 39.1185 30.7273 39.59L35.8552 44.715C36.1108 44.9705 36.4141 45.1732 36.7481 45.3115C37.082 45.4497 37.4399 45.5209 37.8013 45.5209C38.1628 45.5209 38.5207 45.4497 38.8546 45.3115C39.1885 45.1732 39.4919 44.9705 39.7474 44.715L49.2978 35.17Z" fill="#319200"/>
</g>
<defs>
<clipPath id="clip0_8090_15025">
<rect width="50" height="50" fill="white"/>
</clipPath>
</defs>
</svg>
