<svg width="50" height="50" viewBox="0 0 50 50" fill="none" xmlns="http://www.w3.org/2000/svg">
<g clip-path="url(#clip0_8090_15003)">
<path d="M25 36.5741V22.6852" stroke="#0E71D3" stroke-width="3.47222" stroke-linecap="round"/>
<path d="M25.0004 13.4259C26.2788 13.4259 27.3152 14.4623 27.3152 15.7407C27.3152 17.0192 26.2788 18.0556 25.0004 18.0556C23.7219 18.0556 22.6855 17.0192 22.6855 15.7407C22.6855 14.4623 23.7219 13.4259 25.0004 13.4259Z" fill="#0E71D3"/>
<path d="M1.85156 25C1.85156 14.0879 1.85156 8.63178 5.24153 5.24182C8.63149 1.85185 14.0876 1.85185 24.9997 1.85185C35.9117 1.85185 41.368 1.85185 44.7578 5.24182C48.1479 8.63178 48.1479 14.0879 48.1479 25C48.1479 35.912 48.1479 41.3682 44.7578 44.7581C41.368 48.1481 35.9117 48.1481 24.9997 48.1481C14.0876 48.1481 8.63149 48.1481 5.24153 44.7581C1.85156 41.3682 1.85156 35.912 1.85156 25Z" stroke="#0E71D3" stroke-width="3.47222"/>
</g>
<defs>
<clipPath id="clip0_8090_15003">
<rect width="50" height="50" fill="white"/>
</clipPath>
</defs>
</svg>
