<svg width="50" height="62" viewBox="0 0 50 62" fill="none" xmlns="http://www.w3.org/2000/svg">
<path d="M9.18095 40.0579H41.272M8.66348 34.0193H41.7898M12.3728 15.9034H38.0792M12.3728 15.9034C10.5464 15.9034 9.63314 15.9034 8.95981 16.2685C8.36824 16.5893 7.9008 17.0999 7.6317 17.7167C7.32551 18.4186 7.40338 19.3275 7.55924 21.1459L9.97556 49.3363C10.2427 52.4533 10.3766 54.0149 11.0694 55.1943C11.6795 56.2332 12.5875 57.065 13.6745 57.5842C14.909 58.1738 16.4734 58.1739 19.6026 58.1739H30.85C33.9792 58.1739 35.5439 58.1738 36.7784 57.5842C37.8655 57.065 38.7728 56.2332 39.383 55.1943C40.076 54.0148 40.2097 52.4541 40.4769 49.3363L42.8937 21.1411C43.0493 19.3247 43.127 18.4182 42.8211 17.7167C42.5519 17.0999 42.0847 16.5893 41.4931 16.2685C40.8198 15.9034 39.9055 15.9034 38.0792 15.9034M12.3728 15.9034H9.37377C6.65762 15.9034 5.2987 15.9034 4.50896 15.3343C3.81184 14.832 3.36213 14.0561 3.27185 13.2015C3.1695 12.2328 3.84482 11.051 5.19436 8.68932L5.19597 8.6865C6.20496 6.92077 6.70946 6.0379 7.41748 5.39472C8.05045 4.81971 8.79814 4.386 9.61144 4.12171C10.5212 3.82609 11.5377 3.82609 13.5714 3.82609H36.8812C38.9149 3.82609 39.9316 3.82609 40.8414 4.12171C41.6547 4.386 42.4018 4.81971 43.0349 5.39472C43.7428 6.0379 44.2474 6.92077 45.2563 8.6865C46.6064 11.049 47.2827 12.2326 47.1803 13.2015C47.0901 14.0561 46.6402 14.832 45.943 15.3343C45.1533 15.9034 43.7935 15.9034 41.0773 15.9034H38.0792" stroke="#D99148" stroke-width="5.36768" stroke-linecap="round" stroke-linejoin="round"/>
</svg>
