<svg width="375" height="233" viewBox="0 0 375 233" fill="none" xmlns="http://www.w3.org/2000/svg">
<ellipse cx="13.6465" cy="31.2162" rx="36.6465" ry="31.2162" fill="white"/>
<ellipse cx="39.9551" cy="52.0273" rx="36.6465" ry="31.2162" fill="white"/>
<ellipse cx="49.3536" cy="78.7836" rx="36.6465" ry="31.2162" fill="white"/>
<ellipse cx="18.6465" cy="79.2162" rx="36.6465" ry="31.2162" fill="white"/>
<ellipse cx="86.6465" cy="71.2162" rx="36.6465" ry="31.2162" fill="white"/>
<ellipse cx="98.6465" cy="93.2162" rx="36.6465" ry="31.2162" fill="white"/>
<ellipse cx="137.647" cy="48.2162" rx="36.6465" ry="31.2162" fill="white"/>
<ellipse cx="143.647" cy="83.2162" rx="36.6465" ry="31.2162" fill="white"/>
<ellipse cx="150.647" cy="114.216" rx="36.6465" ry="31.2162" fill="white"/>
<ellipse cx="187.647" cy="57.2162" rx="36.6465" ry="31.2162" fill="white"/>
<ellipse cx="225.647" cy="40.2162" rx="36.6465" ry="31.2162" fill="white"/>
<ellipse cx="267.647" cy="40.2162" rx="36.6465" ry="31.2162" fill="white"/>
<ellipse cx="310.647" cy="57.2162" rx="36.6465" ry="31.2162" fill="white"/>
<ellipse cx="319.647" cy="31.2162" rx="36.6465" ry="31.2162" fill="white"/>
<ellipse cx="204.647" cy="93.2162" rx="36.6465" ry="31.2162" fill="white"/>
<ellipse cx="246.647" cy="79.2162" rx="36.6465" ry="31.2162" fill="white"/>
<ellipse cx="292.647" cy="102.216" rx="36.6465" ry="31.2162" fill="white"/>
<ellipse cx="292.647" cy="102.216" rx="36.6465" ry="31.2162" fill="white"/>
<ellipse cx="260.647" cy="119.216" rx="36.6465" ry="31.2162" fill="white"/>
<ellipse cx="342.647" cy="124.216" rx="36.6465" ry="31.2162" fill="white"/>
<ellipse cx="357.647" cy="114.216" rx="36.6465" ry="31.2162" fill="white"/>
<ellipse cx="36.6465" cy="31.2162" rx="36.6465" ry="31.2162" transform="matrix(-1 0 0 1 419 0)" fill="white"/>
<ellipse cx="36.6465" cy="31.2162" rx="36.6465" ry="31.2162" transform="matrix(-1 0 0 1 392.691 20.811)" fill="white"/>
<ellipse cx="36.6465" cy="31.2162" rx="36.6465" ry="31.2162" transform="matrix(-1 0 0 1 383.293 47.5674)" fill="white"/>
<ellipse cx="20.6465" cy="108.216" rx="36.6465" ry="31.2162" fill="#F1F1F1"/>
<ellipse cx="46.9551" cy="129.027" rx="36.6465" ry="31.2162" fill="#F1F1F1"/>
<ellipse cx="56.3536" cy="155.784" rx="36.6465" ry="31.2162" fill="#F1F1F1"/>
<ellipse cx="25.6465" cy="156.216" rx="36.6465" ry="31.2162" fill="#F1F1F1"/>
<ellipse cx="93.6465" cy="148.216" rx="36.6465" ry="31.2162" fill="#F1F1F1"/>
<ellipse cx="105.647" cy="170.216" rx="36.6465" ry="31.2162" fill="#F1F1F1"/>
<ellipse cx="150.647" cy="160.216" rx="36.6465" ry="31.2162" fill="#F1F1F1"/>
<ellipse cx="194.647" cy="134.216" rx="36.6465" ry="31.2162" fill="#F1F1F1"/>
<ellipse cx="274.647" cy="117.216" rx="36.6465" ry="31.2162" fill="#F1F1F1"/>
<ellipse cx="317.647" cy="134.216" rx="36.6465" ry="31.2162" fill="#F1F1F1"/>
<ellipse cx="326.647" cy="108.216" rx="36.6465" ry="31.2162" fill="#F1F1F1"/>
<ellipse cx="211.647" cy="170.216" rx="36.6465" ry="31.2162" fill="#F1F1F1"/>
<ellipse cx="253.647" cy="156.216" rx="36.6465" ry="31.2162" fill="#F1F1F1"/>
<ellipse cx="299.647" cy="179.216" rx="36.6465" ry="31.2162" fill="#F1F1F1"/>
<ellipse cx="98.6465" cy="117.216" rx="36.6465" ry="31.2162" fill="#F1F1F1"/>
<ellipse cx="36.6465" cy="31.2162" rx="36.6465" ry="31.2162" transform="matrix(-1 0 0 1 426 77)" fill="#F1F1F1"/>
<ellipse cx="36.6465" cy="31.2162" rx="36.6465" ry="31.2162" transform="matrix(-1 0 0 1 399.691 97.811)" fill="#F1F1F1"/>
<ellipse cx="36.6465" cy="31.2162" rx="36.6465" ry="31.2162" transform="matrix(-1 0 0 1 390.293 124.567)" fill="#F1F1F1"/>
<path d="M14.2931 164.216C14.2931 181.456 -2.11412 195.432 -22.3535 195.432C-42.5928 195.432 -59 181.456 -59 164.216C-59 146.976 -42.5928 133 -22.3535 133C-2.11412 133 14.2931 146.976 14.2931 164.216Z" fill="#D2D2D2"/>
<path d="M40.6027 185.027C40.6027 202.267 24.1954 216.243 3.95612 216.243C-16.2832 216.243 -32.6904 202.267 -32.6904 185.027C-32.6904 167.787 -16.2832 153.811 3.95612 153.811C24.1954 153.811 40.6027 167.787 40.6027 185.027Z" fill="#D2D2D2"/>
<path d="M50.0001 211.784C50.0001 229.024 33.5929 243 13.3536 243C-6.88575 243 -23.293 229.024 -23.293 211.784C-23.293 194.543 -6.88575 180.567 13.3536 180.567C33.5929 180.567 50.0001 194.543 50.0001 211.784Z" fill="#D2D2D2"/>
<path d="M19.2931 212.216C19.2931 229.456 2.88588 243.432 -17.3535 243.432C-37.5928 243.432 -54 229.456 -54 212.216C-54 194.976 -37.5928 181 -17.3535 181C2.88588 181 19.2931 194.976 19.2931 212.216Z" fill="#D2D2D2"/>
<path d="M87.2931 204.216C87.2931 221.456 70.8859 235.432 50.6465 235.432C30.4072 235.432 14 221.456 14 204.216C14 186.976 30.4072 173 50.6465 173C70.8859 173 87.2931 186.976 87.2931 204.216Z" fill="#D2D2D2"/>
<path d="M99.2931 226.216C99.2931 243.456 82.8859 257.432 62.6465 257.432C42.4072 257.432 26 243.456 26 226.216C26 208.976 42.4072 195 62.6465 195C82.8859 195 99.2931 208.976 99.2931 226.216Z" fill="#D2D2D2"/>
<path d="M144.293 216.216C144.293 233.456 127.886 247.432 107.647 247.432C87.4072 247.432 71 233.456 71 216.216C71 198.976 87.4072 185 107.647 185C127.886 185 144.293 198.976 144.293 216.216Z" fill="#D2D2D2"/>
<path d="M188.293 190.216C188.293 207.456 171.886 221.432 151.647 221.432C131.407 221.432 115 207.456 115 190.216C115 172.976 131.407 159 151.647 159C171.886 159 188.293 172.976 188.293 190.216Z" fill="#D2D2D2"/>
<path d="M268.293 173.216C268.293 190.456 251.886 204.432 231.647 204.432C211.407 204.432 195 190.456 195 173.216C195 155.976 211.407 142 231.647 142C251.886 142 268.293 155.976 268.293 173.216Z" fill="#D2D2D2"/>
<path d="M311.293 190.216C311.293 207.456 294.886 221.432 274.647 221.432C254.407 221.432 238 207.456 238 190.216C238 172.976 254.407 159 274.647 159C294.886 159 311.293 172.976 311.293 190.216Z" fill="#D2D2D2"/>
<path d="M320.293 164.216C320.293 181.456 303.886 195.432 283.647 195.432C263.407 195.432 247 181.456 247 164.216C247 146.976 263.407 133 283.647 133C303.886 133 320.293 146.976 320.293 164.216Z" fill="#D2D2D2"/>
<path d="M205.293 226.216C205.293 243.456 188.886 257.432 168.647 257.432C148.407 257.432 132 243.456 132 226.216C132 208.976 148.407 195 168.647 195C188.886 195 205.293 208.976 205.293 226.216Z" fill="#D2D2D2"/>
<path d="M247.293 212.216C247.293 229.456 230.886 243.432 210.647 243.432C190.407 243.432 174 229.456 174 212.216C174 194.976 190.407 181 210.647 181C230.886 181 247.293 194.976 247.293 212.216Z" fill="#D2D2D2"/>
<path d="M293.293 235.216C293.293 252.456 276.886 266.432 256.647 266.432C236.407 266.432 220 252.456 220 235.216C220 217.976 236.407 204 256.647 204C276.886 204 293.293 217.976 293.293 235.216Z" fill="#D2D2D2"/>
<path d="M92.2931 173.216C92.2931 190.456 75.8859 204.432 55.6465 204.432C35.4072 204.432 19 190.456 19 173.216C19 155.976 35.4072 142 55.6465 142C75.8859 142 92.2931 155.976 92.2931 173.216Z" fill="#D2D2D2"/>
<path d="M309.707 164.216C309.707 181.456 326.114 195.432 346.353 195.432C366.593 195.432 383 181.456 383 164.216C383 146.976 366.593 133 346.353 133C326.114 133 309.707 146.976 309.707 164.216Z" fill="#D2D2D2"/>
<path d="M321 181.216C321 198.456 337.407 212.432 357.646 212.432C377.886 212.432 394.293 198.456 394.293 181.216C394.293 163.976 377.886 150 357.646 150C337.407 150 321 163.976 321 181.216Z" fill="#D2D2D2"/>
<path d="M325 216.216C325 233.456 341.407 247.432 361.646 247.432C381.886 247.432 398.293 233.456 398.293 216.216C398.293 198.976 381.886 185 361.646 185C341.407 185 325 198.976 325 216.216Z" fill="#D2D2D2"/>
<path d="M283.397 185.027C283.397 202.267 299.805 216.243 320.044 216.243C340.283 216.243 356.69 202.267 356.69 185.027C356.69 167.787 340.283 153.811 320.044 153.811C299.805 153.811 283.397 167.787 283.397 185.027Z" fill="#D2D2D2"/>
<path d="M274 211.784C274 229.024 290.407 243 310.646 243C330.886 243 347.293 229.024 347.293 211.784C347.293 194.543 330.886 180.567 310.646 180.567C290.407 180.567 274 194.543 274 211.784Z" fill="#D2D2D2"/>
</svg>
