<svg width="50" height="43" viewBox="0 0 50 43" fill="none" xmlns="http://www.w3.org/2000/svg">
<path d="M27.5 25C30.1522 25 32.6957 26.0536 34.5711 27.9289C36.4464 29.8043 37.5 32.3478 37.5 35V38.75C37.5 39.7446 37.1049 40.6984 36.4016 41.4016C35.6984 42.1049 34.7446 42.5 33.75 42.5H3.75C2.75544 42.5 1.80161 42.1049 1.09835 41.4016C0.395088 40.6984 0 39.7446 0 38.75V35C0 32.3478 1.05357 29.8043 2.92893 27.9289C4.8043 26.0536 7.34784 25 10 25H27.5ZM42.5 25C44.4891 25 46.3968 25.7902 47.8033 27.1967C49.2098 28.6032 50 30.5109 50 32.5V36.25C50 37.2446 49.6049 38.1984 48.9016 38.9016C48.1984 39.6049 47.2446 40 46.25 40H42.5V35C42.5016 33.0592 42.0504 31.1447 41.1825 29.4088C40.3145 27.6728 39.0536 26.1633 37.5 25H42.5ZM18.75 0C21.7337 0 24.5952 1.18526 26.705 3.29505C28.8147 5.40483 30 8.26631 30 11.25C30 14.2337 28.8147 17.0952 26.705 19.205C24.5952 21.3147 21.7337 22.5 18.75 22.5C15.7663 22.5 12.9048 21.3147 10.795 19.205C8.68526 17.0952 7.5 14.2337 7.5 11.25C7.5 8.26631 8.68526 5.40483 10.795 3.29505C12.9048 1.18526 15.7663 0 18.75 0ZM40 7.5C41.9891 7.5 43.8968 8.29018 45.3033 9.6967C46.7098 11.1032 47.5 13.0109 47.5 15C47.5 16.9891 46.7098 18.8968 45.3033 20.3033C43.8968 21.7098 41.9891 22.5 40 22.5C38.0109 22.5 36.1032 21.7098 34.6967 20.3033C33.2902 18.8968 32.5 16.9891 32.5 15C32.5 13.0109 33.2902 11.1032 34.6967 9.6967C36.1032 8.29018 38.0109 7.5 40 7.5Z" fill="#194369"/>
</svg>
