<svg width="50" height="50" viewBox="0 0 50 50" fill="none" xmlns="http://www.w3.org/2000/svg">
<path fill-rule="evenodd" clip-rule="evenodd" d="M0 8.33333C0 6.1232 0.877974 4.00358 2.44078 2.44078C4.00358 0.877974 6.1232 0 8.33333 0H41.6667C43.8768 0 45.9964 0.877974 47.5592 2.44078C49.122 4.00358 50 6.1232 50 8.33333V41.6667C50 43.8768 49.122 45.9964 47.5592 47.5592C45.9964 49.122 43.8768 50 41.6667 50H8.33333C6.1232 50 4.00358 49.122 2.44078 47.5592C0.877974 45.9964 0 43.8768 0 41.6667V8.33333ZM30.5556 30.5556C30.5556 29.8188 30.8482 29.1123 31.3691 28.5914C31.8901 28.0704 32.5966 27.7778 33.3333 27.7778H44.4444V8.33333C44.4444 7.59662 44.1518 6.89008 43.6309 6.36915C43.1099 5.84821 42.4034 5.55556 41.6667 5.55556H8.33333C7.59662 5.55556 6.89008 5.84821 6.36915 6.36915C5.84821 6.89008 5.55556 7.59662 5.55556 8.33333V27.7778H16.6667C17.4034 27.7778 18.1099 28.0704 18.6309 28.5914C19.1518 29.1123 19.4444 29.8188 19.4444 30.5556C19.4444 32.029 20.0298 33.4421 21.0716 34.4839C22.1135 35.5258 23.5266 36.1111 25 36.1111C26.4734 36.1111 27.8865 35.5258 28.9284 34.4839C29.9702 33.4421 30.5556 32.029 30.5556 30.5556Z" fill="#194369"/>
</svg>
