<svg width="219" height="60" viewBox="0 0 219 60" fill="none" xmlns="http://www.w3.org/2000/svg">
<path d="M24.4846 0.198219C19.4848 1.20453 15.1925 3.20374 11.1764 6.39711C10.1724 7.20216 7.80055 9.53681 6.95826 10.5498C3.15111 15.1587 0.873562 20.4922 0.159301 26.4965C0.00431949 27.7444 -0.049587 30.656 0.0514877 31.9776C0.152562 33.259 0.341235 34.6812 0.570338 35.7815C0.745534 36.6402 1.197 38.4247 1.35872 38.8742L1.45306 39.1358L1.56087 38.9748C1.85736 38.5119 25.7986 0.0439148 25.7986 0.0237885C25.7986 -0.0365906 25.3606 0.0170822 24.4846 0.198219Z" fill="white"/>
<path d="M74.294 19.4992C71.5987 24.4033 69.3615 28.4621 69.3211 28.5225C69.2605 28.6365 69.4357 28.6432 72.6835 28.6432H76.1066L76.8748 27.3015L77.6362 25.9597H83.3233H89.0037L89.8056 27.1807C90.2436 27.8583 90.6479 28.4621 90.695 28.5292C90.7826 28.6365 90.9983 28.6432 94.172 28.6298L97.5547 28.6097L91.8136 19.6065L86.0726 10.5967H82.636H79.1995L74.294 19.4992ZM84.9068 19.5394C85.7963 20.9349 86.5106 22.0888 86.4971 22.1089C86.4769 22.1223 84.9473 22.129 83.0875 22.1223L79.7049 22.1022L81.2412 19.318C82.0835 17.7885 82.7977 16.4937 82.8314 16.4467C82.8651 16.3863 82.946 16.4534 83.0875 16.6815C83.202 16.8559 84.0241 18.144 84.9068 19.5394Z" fill="white"/>
<path d="M98.9766 10.8113C98.9766 10.9321 99.0507 14.6823 99.145 19.1503C99.2394 23.6117 99.3135 27.5765 99.3135 27.9522V28.6432H102.312H105.311V28.2608C105.311 28.0528 105.263 25.148 105.203 21.8137C105.149 18.4795 105.115 15.7356 105.122 15.7222C105.135 15.7087 108.673 18.6136 112.979 22.1693L120.802 28.6432H124.212H127.614V27.7845C127.614 27.3149 127.54 23.2762 127.446 18.8149C127.352 14.3469 127.277 10.6772 127.277 10.6436C127.277 10.6168 125.93 10.5967 124.279 10.5967H121.28L121.314 11.5829C121.381 13.354 121.563 23.6922 121.53 23.7257C121.509 23.7391 117.972 20.794 113.659 17.178L105.829 10.5967H102.4H98.9766V10.8113Z" fill="white"/>
<path d="M130.189 15.219C130.297 19.5998 130.31 19.8547 130.438 20.1097C130.714 20.6397 131.483 21.0825 132.338 21.1965C132.608 21.23 134.427 21.2636 136.375 21.2636C140.155 21.2636 140.492 21.2904 141.004 21.6057C141.462 21.8875 141.455 21.8204 141.523 25.4029L141.583 28.6432H144.568H147.56L147.553 27.5161C147.553 26.8989 147.526 25.4767 147.5 24.3496C147.473 23.2225 147.466 22.2296 147.486 22.1424C147.526 21.9009 147.897 21.5789 148.301 21.438C148.645 21.3105 148.942 21.3038 152.681 21.2636C156.583 21.2233 156.704 21.2233 157.142 21.0757C157.735 20.8812 158.2 20.5525 158.402 20.1902L158.564 19.9017L158.483 15.9368C158.443 13.7565 158.409 11.6634 158.409 11.281V10.5967H155.397H152.392L152.432 12.0189C152.459 12.8038 152.499 14.1993 152.52 15.1251L152.56 16.8023L152.398 17.0371C152.304 17.1712 152.075 17.3524 151.839 17.4731L151.441 17.6744L144.535 17.6945C138.578 17.7079 137.581 17.6945 137.284 17.6073C136.86 17.4866 136.523 17.2652 136.334 16.9901C136.199 16.7888 136.193 16.6681 136.145 14.8098C136.125 13.7297 136.085 12.3409 136.065 11.717L136.017 10.5967H133.046H130.074L130.189 15.219Z" fill="white"/>
<path d="M165.767 19.2979C163.133 24.088 160.895 28.1468 160.801 28.3212L160.619 28.6432H164.049H167.472L168.233 27.3015L168.995 25.9597H174.682H180.362L181.245 27.3015L182.128 28.6432H185.531H188.934L188.671 28.2206C188.523 27.9925 185.935 23.9337 182.923 19.204L177.445 10.6034L174.001 10.5967H170.558L165.767 19.2979ZM176.124 19.3046C177.088 20.8275 177.883 22.0888 177.883 22.1022C177.883 22.1223 176.346 22.1357 174.473 22.1357C172.512 22.1357 171.077 22.1089 171.09 22.0753C171.104 22.0418 171.811 20.747 172.661 19.1973C173.826 17.084 174.231 16.3997 174.284 16.4534C174.332 16.5004 175.154 17.7817 176.124 19.3046Z" fill="white"/>
<path d="M192.64 10.704C191.676 10.912 190.753 11.5493 190.511 12.1866C190.396 12.4818 190.396 12.777 190.504 18.8753C190.571 22.384 190.645 26.0201 190.666 26.9459L190.706 28.6432H193.705H196.703L196.663 26.4092C196.622 24.3765 196.629 24.1551 196.737 23.9471C196.899 23.6251 197.35 23.303 197.761 23.2158C198.239 23.1152 211.231 23.1152 211.709 23.2158C211.898 23.2561 212.188 23.3836 212.363 23.4976C212.922 23.8733 212.916 23.8196 212.963 26.3824L213.01 28.6432H216.008H219L218.953 26.0402L218.906 23.4439L218.609 22.8267C218.36 22.3169 218.259 22.176 218.01 22.0016C217.578 21.7064 217.053 21.485 216.554 21.3911C216.318 21.3508 216.035 21.2904 215.921 21.2569C215.725 21.2099 215.725 21.2099 215.988 21.2032C217.08 21.1764 218.313 20.5122 218.684 19.7541L218.865 19.3851L218.791 16.1113C218.751 14.3133 218.697 12.7301 218.684 12.5892C218.582 11.8445 217.902 11.2072 216.783 10.8113L216.258 10.6302L204.668 10.6168C194.917 10.6101 193.011 10.6235 192.64 10.704ZM212.114 14.6622C212.39 14.8165 212.525 14.9439 212.639 15.1586C212.781 15.4404 212.787 15.5343 212.787 16.9566C212.787 18.6203 212.774 18.6807 212.343 18.9759C211.837 19.3248 212.1 19.3113 204.661 19.318C197.094 19.318 197.417 19.3315 196.905 18.9424C196.528 18.6539 196.501 18.5465 196.454 16.9163C196.407 15.2324 196.434 15.1049 196.845 14.7896C197.35 14.4072 197 14.4274 204.668 14.4408L211.743 14.4542L212.114 14.6622Z" fill="white"/>
<path d="M71.7199 31.0651C70.534 31.1791 69.53 31.736 69.1459 32.4941L68.9707 32.8362L69.0853 39.9139C69.1526 43.805 69.2335 47.099 69.2672 47.2332C69.4559 47.9779 70.2779 48.6219 71.4032 48.9104C71.8951 49.0311 72.259 49.0378 83.2694 49.0378C95.7488 49.0378 94.9671 49.0647 95.8498 48.6353C96.3889 48.3737 96.8404 47.9712 97.0291 47.5753C97.1503 47.3271 97.184 47.1527 97.1773 46.7569C97.1773 46.4818 97.1503 44.8583 97.1234 43.1476L97.0762 40.0481H94.1181H91.16V42.262V44.4692L90.9578 44.6973C90.85 44.8247 90.594 44.9992 90.4053 45.0864L90.0482 45.2474H83.1414H76.2346L75.8505 45.0596C75.4058 44.8449 75.143 44.5631 75.0958 44.2545C75.0756 44.1337 75.0285 42.1882 74.9948 39.9274C74.9139 35.3654 74.9072 35.5264 75.3452 35.1843C75.864 34.7952 75.3115 34.8153 86.5914 34.8153H96.9549V34.0572C96.9549 33.648 96.9347 32.7825 96.9078 32.1452L96.8673 30.9913L84.5632 30.998C77.7979 31.0047 72.0164 31.0315 71.7199 31.0651Z" fill="white"/>
<path d="M101.334 31.0585C100 31.1994 98.8884 31.8904 98.6324 32.7357C98.5785 32.9235 98.5919 34.916 98.6997 40.5245C98.7806 44.6705 98.8412 48.2866 98.8412 48.5482V49.0379H101.806H104.778L104.764 46.757C104.757 44.1271 104.744 44.2076 105.377 43.8454L105.748 43.6374L112.608 43.6173C117.001 43.6106 119.562 43.624 119.717 43.6709C120.094 43.7716 120.586 44.107 120.714 44.3552C120.822 44.5498 120.842 44.8651 120.882 46.757C120.909 47.9578 120.936 48.9574 120.936 48.9843C120.943 49.0178 122.277 49.0379 123.908 49.0379H126.873L126.839 48.6488C126.825 48.4409 126.792 47.2735 126.772 46.0592L126.738 43.8588L126.482 43.3087C126.199 42.7116 125.936 42.4365 125.383 42.1548C125.013 41.9669 124.144 41.7321 123.813 41.7187C123.699 41.7187 123.82 41.6717 124.083 41.6248C125.309 41.4034 126.226 40.8667 126.556 40.169C126.697 39.8738 126.704 39.0419 126.596 35.3856C126.536 33.1181 126.516 32.8833 126.387 32.5881C126.131 31.991 125.37 31.4476 124.4 31.1725L123.874 31.0249L112.857 31.0182C106.799 31.0115 101.611 31.0316 101.334 31.0585ZM119.838 35.0032C120.027 35.0904 120.289 35.2649 120.411 35.3923L120.64 35.6271L120.694 37.197C120.754 38.9815 120.734 39.1157 120.262 39.4243C119.703 39.7866 119.919 39.7799 112.655 39.7799C105.364 39.7799 105.593 39.7933 105.04 39.4109C104.609 39.1157 104.582 38.9882 104.569 37.3647C104.562 36.5731 104.562 35.8552 104.562 35.7747C104.576 35.4594 105.128 35.0099 105.681 34.8758C105.795 34.8489 108.949 34.8355 112.688 34.8355L119.494 34.8489L119.838 35.0032Z" fill="white"/>
<path d="M132.029 31.0585C130.822 31.1792 129.798 31.7562 129.421 32.521C129.279 32.8229 129.273 32.9034 129.286 34.1445C129.333 37.8611 129.508 46.8911 129.535 47.1326C129.636 47.8907 130.512 48.6019 131.705 48.9105C132.204 49.0312 132.561 49.0379 143.551 49.0379C154.541 49.0379 154.898 49.0312 155.397 48.9105C156.334 48.669 157.001 48.206 157.304 47.5888L157.486 47.2132L157.371 40.1891C157.304 36.1974 157.23 33.0443 157.189 32.8765C157.055 32.2929 156.65 31.8635 155.869 31.4677C154.932 30.9981 155.801 31.0316 143.585 31.0182C137.527 31.0115 132.325 31.0316 132.029 31.0585ZM150.579 35.0099C150.997 35.1978 151.314 35.5332 151.361 35.8351C151.428 36.2645 151.529 44.2814 151.475 44.429C151.388 44.6504 150.923 45.0462 150.62 45.1536C150.404 45.2341 149.13 45.2475 143.45 45.2475H136.543L136.206 45.0932C135.829 44.9188 135.593 44.7242 135.465 44.476C135.398 44.3485 135.357 43.2885 135.297 40.0415C135.202 35.2447 135.182 35.5198 135.708 35.1709C136.247 34.8154 136.085 34.8221 143.416 34.8355L150.222 34.8489L150.579 35.0099Z" fill="white"/>
<path d="M159.931 32.6484C159.951 33.5675 160.025 37.2171 160.093 40.766C160.207 47.1527 160.214 47.2198 160.362 47.5217C160.551 47.9108 161.043 48.3536 161.589 48.622C162.485 49.058 161.737 49.0379 174.243 49.0379C186.83 49.0379 186.015 49.0647 186.925 48.5884C187.464 48.3066 187.989 47.7767 188.111 47.3875C188.171 47.1796 188.158 45.4688 188.05 39.3438C187.976 35.0636 187.902 31.4341 187.882 31.2731L187.848 30.9914H184.917H181.992V31.8769C181.992 32.3666 182.039 34.9562 182.093 37.633C182.228 44.3753 182.228 44.3351 182.046 44.6168C181.952 44.7577 181.736 44.9187 181.487 45.0462L181.083 45.2475L174.351 45.2676C167.033 45.2877 167.148 45.2944 166.575 44.912C166.049 44.5632 166.097 45.0932 165.955 37.8812C165.881 34.3323 165.82 31.3268 165.82 31.206V30.9914H162.855H159.891L159.931 32.6484Z" fill="white"/>
<path d="M193.482 31.0585C192.862 31.1256 192.492 31.2329 192.013 31.4744C191.326 31.8166 190.841 32.36 190.726 32.9034C190.699 33.051 190.982 48.9306 191.016 49.0178C191.023 49.0312 192.344 49.0379 193.968 49.0379H196.905L196.858 46.3209L196.811 43.6038L206.602 43.5837C215.557 43.5703 216.426 43.5569 216.763 43.4562C217.875 43.1141 218.616 42.4835 218.785 41.7589C218.812 41.6449 218.798 39.6121 218.751 37.2305C218.677 33.1046 218.67 32.89 218.535 32.6015C218.259 31.991 217.464 31.4342 216.46 31.1457C216.083 31.0383 215.294 31.0249 205.005 31.0182C198.927 31.0115 193.745 31.0316 193.482 31.0585ZM212.067 35.0368C212.282 35.1441 212.532 35.3319 212.633 35.4661L212.821 35.7076L212.842 37.2909C212.869 38.8675 212.869 38.8742 212.707 39.109C212.619 39.2364 212.383 39.431 212.181 39.545L211.811 39.7463L204.938 39.7664C198.678 39.7799 198.037 39.7731 197.707 39.6725C197.236 39.5249 196.825 39.1559 196.75 38.8071C196.717 38.6595 196.683 37.9014 196.683 37.1232C196.683 35.7613 196.69 35.7009 196.838 35.4862C197.013 35.2179 197.33 35.0233 197.754 34.9093C197.997 34.8422 199.628 34.8288 204.87 34.8355L211.676 34.8489L212.067 35.0368Z" fill="white"/>
<path d="M10.8526 50.7822C10.3607 51.5604 9.97664 52.2246 9.99686 52.2581C10.0171 52.2916 10.3742 52.6002 10.792 52.9491C14.3768 55.9345 18.44 58.0008 22.9412 59.1279C25.5152 59.7652 27.4558 60 30.2792 60C33.864 60 36.6402 59.5572 39.9689 58.457C41.0538 58.0947 41.2963 57.9941 41.2694 57.9002C41.2492 57.8398 40.7438 55.901 40.1441 53.5797L39.0525 49.3733H25.4006H11.7488L10.8526 50.7822Z" fill="white"/>
<path d="M53.5305 46.2599C56.4081 41.6617 58.0972 37.02 58.7673 31.8683C58.9303 30.5763 59.0173 27.2594 58.9217 25.969C58.4686 20.1183 56.4247 15.0431 52.8029 10.8032C52.0549 9.91681 50.0898 8.09376 49.1082 7.36626C48.1543 6.66337 47.0409 5.94412 46.1202 5.45397C45.4042 5.06852 43.8538 4.33714 43.429 4.19117L43.1816 4.10635L43.2155 4.29068C43.3223 4.80988 52.6984 47.401 52.7123 47.4133C52.7538 47.4503 53.0296 47.0685 53.5305 46.2599Z" fill="white"/>
<path d="M30.9886 17.9429L36.109 35.805H18.623L30.9886 17.9429Z" fill="white"/>
</svg>
