<svg width="210" height="210" viewBox="0 0 210 210" fill="none" xmlns="http://www.w3.org/2000/svg">
<path d="M87.2041 0.693741C69.3968 4.21582 54.1094 11.213 39.8059 22.3898C36.23 25.2075 27.7824 33.3787 24.7825 36.9243C11.223 53.0554 3.11127 71.7225 0.567364 92.7376C0.0153842 97.105 -0.176609 107.296 0.183378 111.921C0.543365 116.406 1.21534 121.384 2.03131 125.235C2.65529 128.24 4.26323 134.486 4.8392 136.059L5.17519 136.975L5.55918 136.411C6.61514 134.791 91.884 0.153687 91.884 0.0832367C91.884 -0.128082 90.324 0.0597687 87.2041 0.693741Z" fill="white"/>
<path d="M38.6541 177.738C36.9022 180.462 35.5342 182.786 35.6062 182.904C35.6782 183.021 36.9502 184.101 38.4381 185.322C51.2057 195.771 65.6771 203.003 81.7085 206.948C90.8762 209.178 97.7879 210 107.844 210C120.611 210 130.499 208.45 142.354 204.6C146.218 203.332 147.082 202.979 146.986 202.651C146.914 202.439 145.114 195.654 142.978 187.529L139.09 172.807H90.4682H41.846L38.6541 177.738Z" fill="white"/>
<path d="M190.657 161.91C200.906 145.816 206.922 129.57 209.309 111.539C209.889 107.017 210.199 95.4082 209.858 90.892C208.245 70.4146 200.965 52.6515 188.066 37.8117C185.402 34.7094 178.403 28.3287 174.907 25.7825C171.509 23.3224 167.544 20.805 164.265 19.0895C161.715 17.7404 156.193 15.1806 154.68 14.6697L153.799 14.3729L153.919 15.018C154.3 16.8352 187.694 165.904 187.743 165.947C187.891 166.076 188.873 164.74 190.657 161.91Z" fill="white"/>
<path d="M109.92 62.5163L128.157 125.033H65.8789L109.92 62.5163Z" fill="white"/>
</svg>
