<svg width="234" height="270" viewBox="0 0 234 270" fill="none" xmlns="http://www.w3.org/2000/svg">
<g clip-path="url(#clip0_7652_12406)">
<path opacity="0.7" d="M7.68066 97.2588C-5.58694 137.915 0.850947 182.631 18.6176 221.755C23.8869 233.373 32.8783 246.967 40.4646 257.397C47.0646 266.495 86.0365 269.397 110.646 269.903C143.025 270.603 190.738 267.633 201.534 257.172C224.502 234.905 241.525 198.645 229.306 169.943C220.814 150.008 203.31 134.595 192.299 115.755C177.322 90.118 174.377 58.228 153.118 36.7116C143.721 27.2133 131.365 20.6414 118.422 16.1706C112.781 14.2259 94.663 11.4683 81.6726 16.9397C58.7717 26.5817 39.3365 42.6456 25.5419 62.036C17.7838 72.918 11.7677 84.7819 7.68066 97.2588Z" fill="#608DBC"/>
<path d="M123.823 256.764C168.213 256.764 204.199 250.379 204.199 242.501C204.199 234.624 168.213 228.239 123.823 228.239C79.4328 228.239 43.4473 234.624 43.4473 242.501C43.4473 250.379 79.4328 256.764 123.823 256.764Z" fill="#818181"/>
<path d="M209.972 139.611L169.453 127.667V13.3255L209.972 1.38867V139.611Z" fill="white" stroke="#263238" stroke-width="0.931035" stroke-linecap="round" stroke-linejoin="round"/>
<path d="M188.785 17.5957L178.166 44.4084" stroke="#263238" stroke-width="0.931035" stroke-linecap="round" stroke-linejoin="round"/>
<path d="M190.495 13.2817L189.367 16.1394" stroke="#263238" stroke-width="0.931035" stroke-linecap="round" stroke-linejoin="round"/>
<path d="M193.097 6.71606L191.002 11.9998" stroke="#263238" stroke-width="0.931035" stroke-linecap="round" stroke-linejoin="round"/>
<path d="M193.871 21.3228L179.82 56.8021" stroke="#263238" stroke-width="0.931035" stroke-linecap="round" stroke-linejoin="round"/>
<path d="M199.151 8.01025L194.611 19.4719" stroke="#263238" stroke-width="0.931035" stroke-linecap="round" stroke-linejoin="round"/>
<path d="M189.156 89.9617L178.389 117.149" stroke="#263238" stroke-width="0.931035" stroke-linecap="round" stroke-linejoin="round"/>
<path d="M183.434 218.959L139.699 189.233" stroke="#263238" stroke-width="0.931035" stroke-linecap="round" stroke-linejoin="round"/>
<path d="M174.03 212.569L172.861 211.775" stroke="#263238" stroke-width="0.931035" stroke-linecap="round" stroke-linejoin="round"/>
<path d="M216.785 241.633L180.771 217.147" stroke="#263238" stroke-width="0.931035" stroke-linecap="round" stroke-linejoin="round"/>
<path d="M20.3344 189.234H6.93164" stroke="#263238" stroke-width="0.931035" stroke-linecap="round" stroke-linejoin="round"/>
<path d="M126.259 189.233H97.5412H68.8379H126.259Z" stroke="#263238" stroke-width="0.931035" stroke-linecap="round" stroke-linejoin="round"/>
<path d="M126.258 189.234H139.701V182.818V160.92V133.77V133.764V95.9515V26.1189" stroke="#263238" stroke-width="0.931035" stroke-linecap="round" stroke-linejoin="round"/>
<path d="M59.2742 114.792C59.0331 114.87 58.7797 114.91 58.5243 114.911H28.2264C27.9709 114.911 27.7175 114.87 27.4766 114.792H59.2742Z" stroke="#263238" stroke-width="0.931035" stroke-linecap="round" stroke-linejoin="round"/>
<path d="M68.3427 120.664H20.332V193.423H68.3427V120.664Z" stroke="#263238" stroke-width="0.931035" stroke-linecap="round" stroke-linejoin="round"/>
<path d="M70.6176 114.792V120.664H18.1484V114.792H27.4777C27.7186 114.87 27.9722 114.911 28.2275 114.911H58.5254C58.7808 114.91 59.0343 114.87 59.2753 114.792H70.6176Z" fill="#263238" stroke="#263238" stroke-width="0.931035" stroke-linecap="round" stroke-linejoin="round"/>
<path d="M59.2742 114.792C59.0331 114.87 58.7797 114.91 58.5243 114.911H28.2264C27.9709 114.911 27.7175 114.87 27.4766 114.792H59.2742Z" stroke="#263238" stroke-width="0.931035" stroke-linecap="round" stroke-linejoin="round"/>
<path d="M55.1765 95.0893L52.4271 110.721H34.3293L31.5664 95.0073C31.7893 95.0073 32.0258 95.039 32.242 95.039H55.163L55.1765 95.0893Z" fill="white" stroke="#263238" stroke-width="0.931035" stroke-linecap="round" stroke-linejoin="round"/>
<path d="M54.8188 82.4893H32.2557C30.6433 82.4893 29.0968 83.0822 27.9566 84.1377C26.8165 85.1931 26.1759 86.6244 26.1759 88.117V89.3676C26.1666 90.7579 26.7136 92.1021 27.7115 93.1416C28.7093 94.1806 30.0875 94.8407 31.5802 94.9953C31.8032 94.9953 32.0396 95.0269 32.2557 95.0269H55.1768C56.729 94.9404 58.1878 94.311 59.2568 93.2664C60.3258 92.2209 60.9249 90.8381 60.9324 89.3988V88.1483C60.9369 87.404 60.7818 86.6662 60.4761 85.9778C60.1706 85.2893 59.7203 84.6639 59.1517 84.1376C58.5832 83.6112 57.9074 83.1946 57.1637 82.9117C56.4199 82.6287 55.6229 82.4852 54.8188 82.4893ZM50.7183 86.9977C51.1001 86.999 51.4729 87.1049 51.7898 87.3021C52.1066 87.4994 52.3532 87.7791 52.4984 88.106C52.6436 88.4329 52.6809 88.7923 52.6056 89.1388C52.5303 89.4852 52.3458 89.8034 52.0753 90.0528C51.8049 90.3023 51.4606 90.472 51.0859 90.5405C50.7114 90.609 50.3232 90.5732 49.9706 90.4377C49.618 90.3021 49.3166 90.0729 49.1046 89.779C48.8926 89.485 48.7795 89.1395 48.7795 88.786C48.7812 88.3112 48.9863 87.8563 49.3497 87.5211C49.7131 87.186 50.2053 86.9977 50.7183 86.9977ZM42.4226 85.7471C42.5539 85.7156 42.687 85.6905 42.8212 85.6721C42.8212 85.5477 42.8746 85.4284 42.9696 85.3405C43.0646 85.2526 43.1934 85.2031 43.3279 85.2031C43.4622 85.2031 43.5911 85.2526 43.6861 85.3405C43.7811 85.4284 43.8345 85.5477 43.8345 85.6721C44.7303 85.7285 45.5653 86.112 46.1556 86.7381C46.746 87.3643 47.0435 88.182 46.9826 89.0111C46.9216 89.8403 46.5074 90.6132 45.8308 91.1597C45.1543 91.7061 44.2709 91.9814 43.3752 91.9251C43.0527 91.9283 42.7315 91.8861 42.4226 91.8C41.7042 91.622 41.0693 91.2295 40.6165 90.6835C40.1637 90.1373 39.9182 89.4682 39.9182 88.7798C39.9182 88.0914 40.1637 87.4222 40.6165 86.8762C41.0693 86.3301 41.7042 85.9376 42.4226 85.7596V85.7471ZM29.5874 88.7611C29.5874 88.4071 29.7009 88.0611 29.9134 87.7668C30.1261 87.4726 30.4282 87.2434 30.7816 87.1082C31.1351 86.9731 31.5239 86.938 31.8989 87.0076C32.2738 87.077 32.618 87.2481 32.888 87.4988C33.1579 87.7495 33.3413 88.0687 33.4152 88.416C33.4889 88.7633 33.4497 89.1231 33.3024 89.4498C33.1552 89.7765 32.9065 90.0553 32.5878 90.2511C32.2692 90.4468 31.8951 90.5506 31.5127 90.5494C31.0014 90.5544 30.5088 90.3717 30.1429 90.0412C29.777 89.7106 29.5675 89.2593 29.5603 88.786L29.5874 88.7611ZM55.6362 90.5494C55.2543 90.5482 54.8815 90.4422 54.5646 90.245C54.2478 90.0478 54.0013 89.768 53.856 89.4411C53.7109 89.1142 53.6735 88.7548 53.7489 88.4083C53.8242 88.0619 54.0087 87.7438 54.2792 87.4943C54.5496 87.2449 54.8939 87.0752 55.2685 87.0066C55.6431 86.9381 56.0312 86.9739 56.3839 87.1094C56.7366 87.245 57.0378 87.4742 57.2498 87.7681C57.4618 88.0621 57.575 88.4077 57.575 88.7611C57.5787 89.0006 57.5303 89.2385 57.4327 89.4605C57.3351 89.6824 57.1903 89.8839 57.0069 90.0531C56.8236 90.2222 56.6054 90.3556 56.3653 90.4451C56.1251 90.5347 55.868 90.5786 55.6092 90.5744L55.6362 90.5494Z" fill="#263238" stroke="#263238" stroke-width="0.931035" stroke-linecap="round" stroke-linejoin="round"/>
<path d="M33.407 88.7861C33.407 89.1396 33.2939 89.4851 33.0819 89.7791C32.8699 90.073 32.5685 90.3022 32.216 90.4378C31.8633 90.5733 31.4751 90.6091 31.1006 90.5406C30.7259 90.4721 30.3817 90.3023 30.1113 90.0529C29.8408 89.8034 29.6563 89.4854 29.5809 89.1388C29.5056 88.7924 29.5429 88.433 29.6881 88.1061C29.8333 87.7792 30.0799 87.4995 30.3967 87.3023C30.7135 87.105 31.0864 86.999 31.4682 86.9978C31.7225 86.997 31.9745 87.0426 32.2097 87.1322C32.4449 87.2216 32.6587 87.3533 32.8388 87.5194C33.0189 87.6856 33.1618 87.8829 33.2594 88.1003C33.3568 88.3177 33.407 88.5508 33.407 88.7861Z" fill="white" stroke="#263238" stroke-width="0.931035" stroke-linecap="round" stroke-linejoin="round"/>
<path d="M46.7741 88.7927C46.7741 89.6219 46.4182 90.4171 45.7848 91.0035C45.1513 91.5898 44.2922 91.9192 43.3964 91.9192C43.0739 91.9224 42.7527 91.8802 42.4438 91.7941C41.7255 91.6162 41.0906 91.2236 40.6377 90.6776C40.1849 90.1315 39.9395 89.4623 39.9395 88.7739C39.9395 88.0855 40.1849 87.4164 40.6377 86.8703C41.0906 86.3243 41.7255 85.9317 42.4438 85.7538C42.5751 85.7222 42.7083 85.6971 42.8424 85.6788C42.8424 85.5544 42.8958 85.435 42.9908 85.3471C43.0858 85.2592 43.2147 85.2097 43.3491 85.2097C43.4834 85.2097 43.6123 85.2592 43.7074 85.3471C43.8023 85.435 43.8558 85.5544 43.8558 85.6788C44.6674 85.7818 45.411 86.1545 45.9479 86.7275C46.4848 87.3004 46.7784 88.0343 46.7741 88.7927Z" stroke="#263238" stroke-width="0.931035" stroke-linecap="round" stroke-linejoin="round"/>
<path d="M52.6569 88.7861C52.6582 89.1413 52.5456 89.4889 52.3334 89.7849C52.1212 90.0808 51.8189 90.3118 51.4647 90.4486C51.1105 90.5854 50.7205 90.6218 50.344 90.5532C49.9674 90.4847 49.6213 90.3143 49.3496 90.0636C49.0777 89.8129 48.8923 89.4931 48.817 89.1448C48.7417 88.7965 48.7797 88.4353 48.9262 88.107C49.0728 87.7788 49.3213 87.4981 49.6402 87.3007C49.9592 87.1032 50.3343 86.9978 50.7181 86.9978C51.2311 86.9978 51.7232 87.186 52.0866 87.5212C52.45 87.8564 52.6551 88.3112 52.6569 88.7861Z" stroke="#263238" stroke-width="0.931035" stroke-linecap="round" stroke-linejoin="round"/>
<path d="M57.5495 88.7861C57.5508 89.1413 57.4382 89.4889 57.226 89.7849C57.0138 90.0808 56.7114 90.3118 56.3573 90.4486C56.0031 90.5854 55.6131 90.6218 55.2366 90.5532C54.8601 90.4847 54.5139 90.3143 54.2422 90.0636C53.9703 89.8129 53.785 89.4931 53.7096 89.1448C53.6343 88.7965 53.6723 88.4353 53.8188 88.107C53.9654 87.7788 54.2139 87.4981 54.5328 87.3007C54.8518 87.1032 55.2269 86.9978 55.6107 86.9978C56.1237 86.9978 56.6158 87.186 56.9792 87.5212C57.3426 87.8564 57.5477 88.3112 57.5495 88.7861Z" fill="white" stroke="#263238" stroke-width="0.931035" stroke-linecap="round" stroke-linejoin="round"/>
<path d="M46.6263 99.1851H40.1074V102.643H46.6263V99.1851Z" fill="#263238" stroke="#263238" stroke-width="0.931035" stroke-linecap="round" stroke-linejoin="round"/>
<path d="M60.77 112.835C60.7618 113.388 60.5192 113.916 60.0944 114.304C59.8546 114.519 59.5694 114.685 59.2568 114.792C59.0156 114.87 58.7622 114.91 58.5069 114.911H28.2292C27.9738 114.911 27.7203 114.87 27.4793 114.792C27.0419 114.649 26.6633 114.384 26.3958 114.034C26.1283 113.683 25.9852 113.264 25.9863 112.835C25.9863 112.284 26.2224 111.755 26.6429 111.365C27.0633 110.975 27.6337 110.754 28.2292 110.753H58.5271C58.8222 110.753 59.1144 110.807 59.387 110.911C59.6595 111.016 59.9071 111.169 60.1155 111.363C60.3238 111.556 60.4888 111.785 60.6012 112.039C60.7135 112.291 60.7708 112.562 60.77 112.835Z" fill="#5C5C5C" stroke="#263238" stroke-width="0.931035" stroke-linecap="round" stroke-linejoin="round"/>
<path d="M46.7741 88.7923C46.7741 89.6215 46.4182 90.4168 45.7848 91.003C45.1513 91.5894 44.2922 91.9188 43.3964 91.9188C43.0739 91.9221 42.7527 91.8799 42.4438 91.7938C41.7255 91.6157 41.0906 91.2233 40.6377 90.6772C40.1849 90.1311 39.9395 89.462 39.9395 88.7736C39.9395 88.0852 40.1849 87.416 40.6377 86.8699C41.0906 86.3238 41.7255 85.9314 42.4438 85.7534C42.5751 85.7217 42.7083 85.6967 42.8424 85.6784C43.0252 85.648 43.2106 85.6334 43.3964 85.6346C43.5501 85.6354 43.7035 85.6459 43.8558 85.6659C44.6698 85.7692 45.4151 86.1438 45.9524 86.7192C46.4896 87.2947 46.7817 88.0318 46.7741 88.7923Z" fill="white" stroke="#263238" stroke-width="0.931035" stroke-linecap="round" stroke-linejoin="round"/>
<path d="M48.7308 95.0947H37.8613V99.1224H48.7308V95.0947Z" fill="white" stroke="#263238" stroke-width="0.931035" stroke-linecap="round" stroke-linejoin="round"/>
<path d="M52.108 100.373H46.6699V101.942H52.108V100.373Z" fill="#263238" stroke="#263238" stroke-width="0.931035" stroke-linecap="round" stroke-linejoin="round"/>
<path d="M50.7222 86.9978C50.3404 86.999 49.9675 87.105 49.6506 87.3022C49.3338 87.4995 49.0872 87.7792 48.942 88.1061C48.7968 88.433 48.7596 88.7924 48.8348 89.1389C48.9101 89.4853 49.0947 89.8035 49.3652 90.0529C49.6357 90.3024 49.9799 90.472 50.3545 90.5406C50.7291 90.6091 51.1172 90.5733 51.4698 90.4378C51.8225 90.3022 52.1238 90.073 52.3358 89.7791C52.5478 89.4852 52.661 89.1396 52.661 88.7861C52.6592 88.3113 52.4541 87.8564 52.0907 87.5212C51.7273 87.1861 51.2352 86.9978 50.7222 86.9978Z" fill="white" stroke="#263238" stroke-width="0.931035" stroke-linecap="round" stroke-linejoin="round"/>
<path d="M43.8404 85.7094V87.2852C43.8386 87.4102 43.7838 87.5294 43.6876 87.6172C43.5915 87.705 43.462 87.7542 43.327 87.7542C43.1925 87.7542 43.0637 87.7047 42.9687 87.6168C42.8737 87.5289 42.8203 87.4096 42.8203 87.2852V85.7094C42.8203 85.5851 42.8737 85.4658 42.9687 85.3778C43.0637 85.2899 43.1925 85.2405 43.327 85.2405C43.4613 85.2405 43.5902 85.2899 43.6852 85.3778C43.7802 85.4658 43.8336 85.5851 43.8336 85.7094C43.8359 85.7094 43.8381 85.7094 43.8404 85.7094Z" fill="white" stroke="#263238" stroke-width="0.931035" stroke-linecap="round" stroke-linejoin="round"/>
<path d="M65.3366 189.234H23.4531V123.446H65.3366V189.234Z" stroke="#263238" stroke-width="0.931035" stroke-linecap="round" stroke-linejoin="round"/>
<path d="M60.8912 148.483H57.6621V157.632H60.8912V148.483Z" stroke="#263238" stroke-width="0.931035" stroke-linecap="round" stroke-linejoin="round"/>
<path d="M203.232 215.453L201.083 240.427C193.329 242.658 185.026 242.658 177.271 240.427L175.143 215.453H203.232Z" fill="white" stroke="#263238" stroke-width="0.931035" stroke-linecap="round" stroke-linejoin="round"/>
<path d="M189.183 217.122C196.947 217.122 203.24 216.374 203.24 215.452C203.24 214.53 196.947 213.782 189.183 213.782C181.419 213.782 175.125 214.53 175.125 215.452C175.125 216.374 181.419 217.122 189.183 217.122Z" fill="#263238" stroke="#263238" stroke-width="0.931035" stroke-linecap="round" stroke-linejoin="round"/>
<path d="M190.197 163.246C189.058 161.409 187.488 159.831 185.603 158.631C183.712 157.209 181.535 156.146 179.199 155.505C176.571 154.879 173.349 154.748 173.626 155.855C173.826 156.977 173.953 158.108 174.004 159.244C174.34 161.875 175.489 164.361 177.315 166.402C179.14 168.443 181.563 169.953 184.293 170.75C185.379 171.089 186.539 171.177 187.67 171.006C191.487 170.262 191.656 165.891 190.197 163.246Z" fill="#75AA6C"/>
<path d="M184.302 208.205C182.636 207.513 180.824 207.173 178.999 207.211C177.095 207.119 175.191 207.383 173.398 207.986C171.44 208.724 169.393 210.043 170.149 210.644C170.868 211.282 171.545 211.957 172.176 212.67C175.33 215.796 180.478 217.046 184.64 215.628C185.49 215.379 186.255 214.93 186.862 214.327C188.848 212.175 186.605 209.281 184.302 208.205Z" fill="#75AA6C"/>
<path d="M203.741 158.381C204.275 156.32 204.224 154.166 203.593 152.128C203.145 150.008 202.138 148.023 200.661 146.351C198.932 144.556 196.29 142.931 195.622 144.043C194.869 145.146 194.052 146.211 193.176 147.232C189.387 152.179 189.123 158.394 192.588 162.29C193.263 163.129 194.192 163.765 195.257 164.115C199.141 165.241 202.836 161.414 203.741 158.381Z" fill="#75AA6C"/>
<path d="M203.788 174.94C206.032 174.512 208.14 173.618 209.956 172.325C211.997 171.1 213.755 169.513 215.131 167.654C216.59 165.535 217.718 162.746 216.482 162.652C215.267 162.481 214.067 162.239 212.888 161.926C210.084 161.41 207.18 161.654 204.524 162.63C201.868 163.607 199.573 165.274 197.918 167.43C197.216 168.276 196.752 169.271 196.567 170.324C196.215 173.927 200.626 175.408 203.788 174.94Z" fill="#75AA6C"/>
<path d="M186.934 174.413C185.337 172.894 183.394 171.723 181.246 170.987C179.033 170.054 176.644 169.532 174.213 169.449C171.511 169.449 168.35 170.074 168.911 171.063C169.403 172.103 169.824 173.17 170.174 174.258C171.203 176.725 172.982 178.865 175.295 180.418C177.609 181.972 180.358 182.872 183.212 183.012C184.356 183.094 185.503 182.915 186.556 182.493C190.075 180.898 189.048 176.634 186.934 174.413Z" fill="#75AA6C"/>
<path d="M200.575 193.179C202.831 192.86 204.784 191.653 206.769 190.609C213.093 187.277 214.356 181.142 216.801 180.054C215.937 180.861 210.992 180.473 209.796 180.229C206.998 179.691 204.092 179.914 201.427 180.87C198.763 181.826 196.454 183.476 194.779 185.619C194.078 186.462 193.615 187.453 193.428 188.502C192.982 192.11 197.413 193.623 200.575 193.179Z" fill="#75AA6C"/>
<path d="M183.883 196.106C181.904 195.042 179.692 194.4 177.411 194.23C175.008 193.881 172.555 193.971 170.19 194.492C167.576 195.162 164.718 196.543 165.549 197.368C166.326 198.247 167.044 199.171 167.697 200.132C169.408 202.251 171.742 203.867 174.42 204.789C177.098 205.709 180.005 205.897 182.796 205.329C183.921 205.12 184.975 204.664 185.869 203.997C188.788 201.571 186.565 197.719 183.883 196.106Z" fill="#75AA6C"/>
<path d="M196.804 206.51C198.591 206.167 200.272 205.455 201.721 204.428C203.328 203.47 204.708 202.219 205.775 200.752C206.889 199.088 207.713 196.906 206.713 196.838C205.726 196.716 204.746 196.538 203.782 196.306C199.229 195.48 194.291 197.294 191.818 200.683C191.29 201.348 190.955 202.127 190.845 202.946C190.608 205.766 194.264 206.898 196.804 206.51Z" fill="#75AA6C"/>
<path d="M200.35 212.313C201.563 211.743 202.622 210.928 203.451 209.93C204.412 208.942 205.149 207.785 205.619 206.529C206.099 205.116 206.261 203.365 205.538 203.484C204.809 203.565 204.077 203.603 203.343 203.596C201.649 203.704 200.026 204.261 198.665 205.2C197.303 206.139 196.263 207.421 195.669 208.892C195.416 209.473 195.328 210.103 195.412 210.724C195.79 212.838 198.607 213.038 200.35 212.313Z" fill="#75AA6C"/>
<path d="M179.328 159.958C183.964 164.087 188.28 168.512 192.244 173.202C195.927 168.531 197.98 162.93 198.128 157.15C198.109 153.482 197.619 149.83 196.67 146.27" stroke="#5C5C5C" stroke-width="0.931035" stroke-linecap="round" stroke-linejoin="round"/>
<path d="M192.582 173.739C192.813 173.695 193.039 173.631 193.257 173.545C195.75 172.613 197.608 171.931 200.154 171.125C205.66 169.38 215.537 163.415 215.537 163.415" stroke="#5C5C5C" stroke-width="0.931035" stroke-linecap="round" stroke-linejoin="round"/>
<path d="M171.588 171.819C173.952 174.608 177.546 176.878 187.639 179.479C191.543 180.486 190.955 183.562 190.827 183.674" stroke="#5C5C5C" stroke-width="0.931035" stroke-linecap="round" stroke-linejoin="round"/>
<path d="M190.617 188.314C191.658 188.82 194.826 189.402 198.603 188.251C202.933 186.926 208.371 183.875 212.167 182.318" stroke="#5C5C5C" stroke-width="0.931035" stroke-linecap="round" stroke-linejoin="round"/>
<path d="M189.125 204.178C194.265 204.691 199.19 202.021 203.311 199.126" stroke="#5C5C5C" stroke-width="0.931035" stroke-linecap="round" stroke-linejoin="round"/>
<path d="M171.588 198.337C176.862 201.54 182.881 203.542 189.152 204.178" stroke="#5C5C5C" stroke-width="0.931035" stroke-linecap="round" stroke-linejoin="round"/>
<path d="M175.951 210.957C181.182 211.801 186.513 211.969 191.793 211.457C192.757 211.365 193.715 211.225 194.664 211.038C196.403 210.546 198.067 209.851 199.615 208.968C201.214 208.246 202.672 207.284 203.932 206.123" stroke="#5C5C5C" stroke-width="0.931035" stroke-linecap="round" stroke-linejoin="round"/>
<path d="M192.227 170.124C192.414 173.925 192.228 177.734 191.673 181.505C190.822 187.213 189.125 192.866 189.355 198.619C189.463 201.52 191.071 204.34 192.003 207.567C192.679 209.818 193.165 214.495 192.868 215.208" stroke="#5C5C5C" stroke-width="3.72414" stroke-linecap="round" stroke-linejoin="round"/>
<path d="M87.2914 181.017C87.2914 181.017 87.2914 181.555 87.2914 182.524C85.6328 182.306 84.0158 181.873 82.4883 181.236V181.017C85.5417 174.802 87.2914 181.017 87.2914 181.017Z" fill="white" stroke="#263238" stroke-width="0.931035" stroke-linecap="round" stroke-linejoin="round"/>
<path d="M157.351 181.017V181.079C157.127 181.186 156.897 181.28 156.675 181.374C156.452 181.467 156.33 181.511 156.154 181.574L155.83 181.686L155.5 181.793L154.824 181.993L154.29 182.13L153.73 182.255C153.54 182.299 153.351 182.336 153.155 182.367L152.561 182.468V181.017C152.811 180.497 153.104 179.995 153.439 179.516C155.932 175.977 157.351 181.017 157.351 181.017Z" fill="white" stroke="#263238" stroke-width="0.931035" stroke-linecap="round" stroke-linejoin="round"/>
<path d="M93.1582 118.975L93.9891 169.624C93.9891 169.624 93.6446 172.675 96.0159 172.394C96.6369 172.319 97.1639 172.394 97.3063 164.772C97.5624 151.11 97.9813 118.969 97.9813 118.969C97.9813 118.969 96.2384 112.766 93.1582 118.975Z" fill="white" stroke="#263238" stroke-width="0.931035" stroke-linecap="round" stroke-linejoin="round"/>
<path d="M142.172 118.975L143.003 169.624C143.003 169.624 142.651 172.675 145.029 172.394C145.658 172.319 146.185 172.394 146.326 164.772C146.577 151.11 147.002 118.969 147.002 118.969C147.002 118.969 145.28 112.766 142.172 118.975Z" fill="white" stroke="#263238" stroke-width="0.931035" stroke-linecap="round" stroke-linejoin="round"/>
<path d="M152.307 166.754C152.307 166.754 152.233 172.175 152.138 179.517C152.138 180.498 152.104 181.511 152.091 182.549L151.53 182.618L150.956 182.68C150.565 182.718 150.166 182.743 149.76 182.768C149.187 182.768 148.585 182.818 147.977 182.818H147.734L147.471 166.754C150.524 160.538 152.307 166.754 152.307 166.754Z" fill="white" stroke="#263238" stroke-width="0.931035" stroke-linecap="round" stroke-linejoin="round"/>
<path d="M92.2871 166.754C92.2871 166.754 92.1858 173.876 92.0777 182.818H91.544C90.2631 182.821 88.9834 182.744 87.7137 182.587L87.457 166.754C90.5442 160.538 92.2871 166.754 92.2871 166.754Z" fill="white" stroke="#263238" stroke-width="0.931035" stroke-linecap="round" stroke-linejoin="round"/>
<path d="M98.7046 179.516H93.6309V182.818H98.7046V179.516Z" fill="white" stroke="#263238" stroke-width="0.931035" stroke-linecap="round" stroke-linejoin="round"/>
<path d="M145.41 182.818V231.403C145.41 232.025 145.143 232.622 144.668 233.061C144.192 233.502 143.548 233.748 142.877 233.748C142.543 233.749 142.213 233.689 141.905 233.571C141.597 233.454 141.316 233.282 141.081 233.064C140.844 232.846 140.657 232.587 140.53 232.302C140.402 232.017 140.336 231.712 140.336 231.403V182.818H145.41Z" fill="white" stroke="#263238" stroke-width="0.931035" stroke-linecap="round" stroke-linejoin="round"/>
<path d="M145.41 179.516H140.336V182.818H145.41V179.516Z" fill="white" stroke="#263238" stroke-width="0.931035" stroke-linecap="round" stroke-linejoin="round"/>
<path d="M87.1465 241.633C86.8133 241.633 86.4834 241.572 86.1756 241.454C85.8678 241.336 85.5882 241.163 85.3529 240.944C85.1175 240.725 84.9311 240.466 84.8042 240.181C84.6773 239.896 84.6124 239.59 84.6133 239.282V179.503H89.6799V239.282C89.6807 239.59 89.6158 239.896 89.4889 240.181C89.362 240.466 89.1755 240.725 88.9403 240.944C88.7049 241.163 88.4254 241.336 88.1176 241.454C87.8098 241.572 87.4799 241.633 87.1465 241.633Z" fill="white" stroke="#263238" stroke-width="0.931035" stroke-linecap="round" stroke-linejoin="round"/>
<path d="M154.799 182.005V239.283C154.799 239.591 154.735 239.896 154.607 240.182C154.48 240.467 154.294 240.726 154.059 240.945C153.823 241.163 153.544 241.336 153.236 241.455C152.928 241.573 152.599 241.633 152.265 241.633C151.591 241.633 150.945 241.386 150.469 240.945C149.993 240.504 149.725 239.905 149.725 239.283V182.768C150.131 182.768 150.529 182.719 150.921 182.68L151.495 182.618L152.056 182.549C152.218 182.549 152.38 182.505 152.535 182.468L153.129 182.368C153.326 182.337 153.515 182.3 153.704 182.256C153.893 182.212 154.082 182.18 154.264 182.13C154.447 182.081 154.623 182.043 154.799 182.005Z" fill="white" stroke="#263238" stroke-width="0.931035" stroke-linecap="round" stroke-linejoin="round"/>
<path d="M154.799 179.503V182.005L154.264 182.143L153.704 182.268C153.515 182.311 153.326 182.349 153.129 182.38L152.535 182.48C152.38 182.518 152.218 182.537 152.056 182.562L151.495 182.631L150.921 182.693C150.529 182.73 150.131 182.756 149.725 182.781V179.503H154.799Z" fill="white" stroke="#263238" stroke-width="0.931035" stroke-linecap="round" stroke-linejoin="round"/>
<path d="M157.352 181.08C157.13 181.186 156.9 181.28 156.677 181.374C156.454 181.467 156.333 181.511 156.157 181.574L155.833 181.686L155.501 181.793L154.826 181.993L154.292 182.13L153.731 182.256C153.542 182.299 153.353 182.337 153.157 182.368L152.563 182.468C152.407 182.505 152.245 182.524 152.083 182.549L151.522 182.618L150.948 182.68C150.556 182.718 150.158 182.743 149.752 182.768C149.179 182.768 148.577 182.818 147.969 182.818H91.5412C90.8972 182.818 90.2757 182.799 89.6767 182.762C89.0011 182.724 88.3256 182.668 87.7109 182.587L87.2717 182.524L86.657 182.431H86.5625C86.3328 182.392 86.1098 182.349 85.8869 182.299L85.6437 182.249C85.3059 182.18 84.9681 182.099 84.6777 182.017H84.6034L84.4278 181.968L84.3129 181.93L84.0359 181.849L83.8332 181.786C83.5698 181.699 83.313 181.611 83.0699 181.517C82.8267 181.423 82.6646 181.361 82.4687 181.273C78.3005 179.466 76.7806 176.333 78.9086 173.07L82.7727 167.142C84.4413 164.572 88.812 162.515 93.8518 161.552C95.0175 161.324 96.1971 161.163 97.3841 161.07C98.2696 160.995 99.1615 160.957 100.053 160.957H139.417C140.573 160.957 141.727 161.021 142.875 161.145C144.062 161.266 145.24 161.456 146.402 161.714C151.131 162.734 155.109 164.709 156.697 167.142L160.554 173.07C162.635 176.209 161.263 179.254 157.352 181.08Z" fill="#263238" stroke="#263238" stroke-width="0.931035" stroke-linecap="round" stroke-linejoin="round"/>
<path d="M136.748 95.9514H101.559C93.0826 95.9514 86.2109 102.312 86.2109 110.159V119.563C86.2109 127.409 93.0826 133.77 101.559 133.77H136.748C145.225 133.77 152.096 127.409 152.096 119.563V110.159C152.096 102.312 145.225 95.9514 136.748 95.9514Z" fill="#263238" stroke="#263238" stroke-width="0.931035" stroke-linecap="round" stroke-linejoin="round"/>
<path d="M98.7046 182.818V231.403C98.7046 232.025 98.4374 232.622 97.9626 233.061C97.4868 233.502 96.8426 233.748 96.1713 233.748C95.838 233.749 95.5075 233.689 95.1993 233.571C94.8911 233.454 94.6109 233.282 94.3753 233.064C94.1398 232.846 93.9517 232.587 93.8241 232.302C93.6967 232.017 93.6309 231.712 93.6309 231.403V182.818H98.7046Z" fill="white" stroke="#263238" stroke-width="0.931035" stroke-linecap="round" stroke-linejoin="round"/>
<path d="M149.744 173.789C148.474 177.209 145.422 177.541 141.638 178.472C138.936 179.098 136.18 179.723 133.41 180.217C125.138 181.606 116.657 181.532 108.415 179.998C103.099 179.01 99.8288 174.033 98.1064 169.281C96.4891 164.781 95.802 160.04 96.0795 155.305C99.2515 157.057 102.974 157.754 106.632 157.281C112.164 156.618 117.156 154.004 122.121 151.654C122.686 151.335 123.327 151.154 123.986 151.128C124.424 151.169 124.85 151.277 125.25 151.447C131.755 153.867 138.915 156.481 145.617 155.499C145.833 156.412 146.036 157.406 146.225 158.532C146.799 162.008 148.428 164.56 149.461 167.598C150.225 169.799 150.562 171.575 149.744 173.789Z" fill="#263238" stroke="#263238" stroke-width="0.931035" stroke-linecap="round" stroke-linejoin="round"/>
<path d="M154.935 130.955C154.935 134.351 153.307 137.14 152.625 138.904C151.497 136.914 149.877 135.2 147.896 133.901C145.869 132.757 144.701 131.687 142.33 131.531C140.728 131.431 138.377 132.5 137.458 132.682C138.263 131.206 139.533 129.718 142.397 127.323C142.087 123.259 141.87 122.202 140.371 117.812C138.053 122.671 137.587 132.256 137.458 132.682C137.141 133.701 137.918 135.808 138.891 137.684C141.744 143.431 144.006 149.415 145.646 155.555C138.945 156.537 131.784 153.923 125.279 151.503C124.879 151.333 124.453 151.226 124.015 151.184C123.356 151.21 122.715 151.391 122.151 151.709C117.186 154.048 112.194 156.661 106.661 157.337C103.003 157.81 99.2805 157.113 96.1094 155.362C96.5209 148.408 99.0207 141.605 103.749 136.328C103.749 136.328 104.06 131.225 104.06 130.074C104.06 118.95 100.878 103.311 100.534 101.248C100.189 99.1848 98.8382 96.0333 97.1559 96.0333C102.202 94.3444 110.667 91.7124 114.537 88.7171C114.612 88.886 114.686 89.0361 114.761 89.1987C115.327 90.5749 116.043 91.8948 116.896 93.1378C118.598 95.4644 118.618 95.5333 118.577 96.5025C118.521 96.9159 118.408 97.3218 118.24 97.7092C118.159 98.319 118.159 98.9372 118.24 99.547C118.685 105.225 121.685 121.545 124.712 125.216C128.217 116.88 129.623 107.514 128.13 98.6597L127.988 97.9028C127.86 97.2027 125.812 95.9895 126.779 93.4189C127.333 91.9437 127.65 90.8744 127.873 90.0678C128.251 88.7047 128.359 88.0918 128.866 87.5667C130.29 88.3332 131.646 89.2052 132.919 90.1741C133.034 90.4179 133.804 90.6493 133.642 90.443C135.554 91.4935 137.891 91.4997 140.093 91.8248C143.316 92.3001 145.552 94.1824 148.132 96.0203C152.537 114.598 154.935 130.955 154.935 130.955Z" fill="#DA251C"/>
<mask id="mask0_7652_12406" style="mask-type:luminance" maskUnits="userSpaceOnUse" x="96" y="87" width="59" height="71">
<path d="M154.932 130.956C154.932 134.352 153.304 137.141 152.622 138.905C151.494 136.915 149.874 135.201 147.892 133.902C145.866 132.758 144.697 131.688 142.327 131.532C140.725 131.432 138.374 132.501 137.456 132.682C138.26 131.207 139.53 129.719 142.394 127.323C142.083 123.259 141.867 122.203 140.368 117.813C138.05 122.671 137.584 132.257 137.456 132.682C137.138 133.702 137.915 135.809 138.888 137.685C141.741 143.432 144.003 149.416 145.643 155.556C138.942 156.537 131.781 153.924 125.276 151.504C124.876 151.334 124.45 151.226 124.012 151.185C123.353 151.211 122.712 151.392 122.148 151.71C117.183 154.049 112.191 156.662 106.658 157.338C103 157.811 99.2775 157.114 96.1055 155.362C96.5179 148.409 99.0177 141.605 103.746 136.328C103.746 136.328 104.057 131.225 104.057 130.075C104.057 118.951 100.875 103.312 100.531 101.249C100.186 99.1857 98.8353 96.0341 97.1529 96.0341C102.199 94.3452 110.664 91.7131 114.534 88.718C114.609 88.8868 114.683 89.0368 114.758 89.1994C115.324 90.5756 116.039 91.8955 116.893 93.1386C118.595 95.4653 118.615 95.5332 118.574 96.5024C118.518 96.9167 118.405 97.3227 118.237 97.71C118.156 98.3198 118.156 98.9371 118.237 99.5478C118.682 105.225 121.682 121.546 124.709 125.216C128.214 116.881 129.62 107.515 128.127 98.6606L127.985 97.9036C127.857 97.2035 125.809 95.9904 126.776 93.4198C127.33 91.9445 127.647 90.8752 127.87 90.0686C128.249 88.7054 128.357 88.0927 128.863 87.5674C130.287 88.3339 131.643 89.2059 132.916 90.1748C133.031 90.4188 133.801 90.6501 133.639 90.4437C135.551 91.4942 137.888 91.5004 140.09 91.8257C143.313 92.3009 145.549 94.1832 148.129 96.0211C152.534 114.599 154.932 130.956 154.932 130.956Z" fill="white"/>
</mask>
<g mask="url(#mask0_7652_12406)">
<path opacity="0.2" d="M126.231 105.494C125.513 107.11 124.331 108.511 122.812 109.546C123.547 109.917 124.398 110.042 125.221 109.897C126.043 109.754 126.787 109.352 127.325 108.759C127.257 109.259 127.075 109.742 126.791 110.173C126.507 110.604 126.127 110.974 125.677 111.26C127.55 111.349 129.401 110.865 130.946 109.881C132.492 108.897 133.642 107.47 134.222 105.82C134.551 104.629 134.719 103.404 134.722 102.174C134.816 101.147 134.764 100.113 134.567 99.0982C134.356 98.074 133.731 97.1626 132.817 96.5527C132.565 96.3833 132.264 96.2874 131.952 96.2781C131.311 96.2781 130.831 96.8218 130.467 97.3162C129.137 99.1028 127.962 100.984 126.954 102.943C126.703 103.443 126.454 103.944 126.211 104.451V104.507L126.231 105.494Z" fill="black"/>
<path opacity="0.2" d="M111.904 107.077C114.342 103.431 115.247 99.1037 116.098 94.8898C116.361 93.5957 116.436 91.9194 115.166 91.3317C114.718 91.1709 114.227 91.1448 113.763 91.257C113.298 91.3693 112.884 91.6142 112.579 91.9569C111.971 92.6517 111.513 93.4476 111.228 94.3014C110.457 96.1728 109.527 97.9836 108.445 99.7172C105.857 103.875 102.364 107.727 101.372 112.435C101.067 113.535 101.126 114.694 101.54 115.762C101.891 116.519 103.196 117.875 104.242 117.394C104.823 117.125 105.837 114.48 106.269 113.886C108.032 111.528 110.275 109.515 111.904 107.077Z" fill="black"/>
<path opacity="0.2" d="M114.097 135.109C114.902 134.224 115.785 133.404 116.739 132.657C117.417 132.234 118.139 131.873 118.894 131.582L123.872 129.487C127.71 127.88 131.756 126.098 134.006 122.809C134.263 122.446 134.479 121.952 134.195 121.609C133.912 121.264 133.31 121.333 132.844 121.459C131.885 121.703 130.925 121.952 129.973 122.209C125.143 123.49 120.36 124.917 115.685 126.586C113.524 127.367 111.254 128.299 109.991 130.106C109.315 131.038 108.984 132.164 108.159 132.97C107.343 133.618 106.447 134.176 105.491 134.634C103.425 136.01 101.868 137.942 101.033 140.167C102.837 140.643 106.262 139.216 108.018 138.585C110.286 137.834 112.357 136.649 114.097 135.109Z" fill="black"/>
<path opacity="0.2" d="M147.309 122.99C147.189 123.407 146.985 123.8 146.707 124.147C146.447 124.403 146.141 124.615 145.802 124.772C144.796 125.273 143.674 125.541 142.532 125.554C142.163 124.378 141.983 123.158 141.999 121.933C142.735 122.064 143.493 122.025 144.209 121.822C144.925 121.618 145.576 121.255 146.106 120.764C146.842 120.108 147.282 118.438 148.254 118.263C148.194 119.873 147.875 121.467 147.309 122.99Z" fill="black"/>
</g>
<path d="M137.458 132.682C138.377 132.5 140.728 131.431 142.33 131.531C144.701 131.687 145.869 132.757 147.896 133.901C149.877 135.2 151.497 136.914 152.625 138.904C153.307 137.14 154.935 134.351 154.935 130.955C154.935 130.955 152.537 114.598 148.132 96.0203C145.552 94.1824 143.316 92.3001 140.093 91.8248C137.891 91.4997 135.554 91.4935 133.642 90.443C133.804 90.6493 133.034 90.4179 132.919 90.1741C131.646 89.2052 130.29 88.3332 128.866 87.5667C128.359 88.0918 128.251 88.7047 127.873 90.0678C127.65 90.8744 127.333 91.9437 126.779 93.4189C125.812 95.9895 127.86 97.2027 127.988 97.9028L128.13 98.6597C129.623 107.514 128.217 116.88 124.712 125.216C121.685 121.545 118.685 105.225 118.24 99.547C118.159 98.9372 118.159 98.319 118.24 97.7092C118.408 97.3218 118.521 96.9159 118.577 96.5025C118.618 95.5333 118.598 95.4644 116.896 93.1378C116.043 91.8948 115.327 90.5749 114.761 89.1987C114.686 89.0361 114.612 88.886 114.537 88.7171C110.667 91.7124 102.202 94.3444 97.1559 96.0333C98.8382 96.0333 100.189 99.1848 100.534 101.248C100.878 103.311 104.06 118.95 104.06 130.074C104.06 131.225 103.749 136.328 103.749 136.328C99.0207 141.605 96.5209 148.408 96.1094 155.362C99.2805 157.113 103.003 157.81 106.661 157.337C112.194 156.661 117.186 154.048 122.151 151.709C122.715 151.391 123.356 151.21 124.015 151.184C124.453 151.226 124.879 151.333 125.279 151.503C131.784 153.923 138.945 156.537 145.646 155.555C144.006 149.415 141.744 143.431 138.891 137.684C137.918 135.808 137.141 133.701 137.458 132.682ZM137.458 132.682C138.263 131.206 139.533 129.718 142.397 127.323C142.087 123.259 141.87 122.202 140.371 117.812C138.053 122.671 137.587 132.256 137.458 132.682Z" stroke="#263238" stroke-width="0.931035" stroke-linecap="round" stroke-linejoin="round"/>
<path d="M140.558 104.269C142.699 109.308 140.875 116.068 139.537 120.658L140.558 104.269Z" fill="#DA251C"/>
<path d="M140.558 104.269C142.699 109.308 140.875 116.068 139.537 120.658" stroke="#263238" stroke-width="0.931035" stroke-linecap="round" stroke-linejoin="round"/>
<path d="M143.921 100.373C143.921 106.55 141.456 114.067 139.537 120.657" stroke="#263238" stroke-width="0.931035" stroke-linecap="round" stroke-linejoin="round"/>
<path d="M144.68 125.941C146.544 125.252 148.597 125.136 150.537 125.609L144.68 125.941Z" fill="#DA251C"/>
<path d="M144.68 125.941C146.544 125.252 148.597 125.136 150.537 125.609" stroke="#263238" stroke-width="0.931035" stroke-linecap="round" stroke-linejoin="round"/>
<path d="M143.922 127.323C144.923 127.015 145.998 126.973 147.023 127.202C148.049 127.43 148.985 127.92 149.725 128.617" fill="#DA251C"/>
<path d="M143.922 127.323C144.923 127.015 145.998 126.973 147.023 127.202C148.049 127.43 148.985 127.92 149.725 128.617" stroke="#263238" stroke-width="0.931035" stroke-linecap="round" stroke-linejoin="round"/>
<path d="M116.631 134.444C120.061 134.925 123.567 134.596 126.825 133.488" stroke="#263238" stroke-width="0.931035" stroke-linecap="round" stroke-linejoin="round"/>
<path d="M131.514 135.558C132.189 135.27 132.865 134.933 133.541 134.614" stroke="#263238" stroke-width="0.931035" stroke-linecap="round" stroke-linejoin="round"/>
<path d="M112.822 136.653C118.467 138.231 124.516 138.044 130.034 136.121" stroke="#263238" stroke-width="0.931035" stroke-linecap="round" stroke-linejoin="round"/>
<path d="M112.604 140.235C118.319 141.374 124.716 140.454 130.168 142.549C130.843 142.805 131.58 143.306 131.411 143.95C131.242 144.593 130.324 144.699 129.614 144.687C121.697 144.575 113.259 145.357 106.99 149.84" stroke="#263238" stroke-width="0.931035" stroke-linecap="round" stroke-linejoin="round"/>
<path d="M108.398 138.891C109.131 139.236 109.892 139.527 110.675 139.759" stroke="#263238" stroke-width="0.931035" stroke-linecap="round" stroke-linejoin="round"/>
<path d="M124.691 124.815C124.637 133.495 124.585 142.174 124.535 150.853" stroke="#263238" stroke-width="0.931035" stroke-linecap="round" stroke-linejoin="round"/>
<path d="M149.745 173.789C149.645 174.054 149.528 174.313 149.393 174.564C149.36 173.989 149.299 173.42 149.225 172.857C149.225 172.626 149.171 172.394 149.123 172.169C149.028 171.482 148.901 170.806 148.738 170.124C148.691 169.887 148.623 169.643 148.563 169.405C148.563 169.274 148.495 169.149 148.461 169.024C148.38 168.711 148.285 168.399 148.191 168.093C148.096 167.785 147.982 167.467 147.874 167.167C146.225 162.621 143.218 158.7 138.652 156.368C136.815 159.257 135.018 160.889 133.248 161.721C127.6 164.334 121.986 159 115.008 159.969C115.008 159.969 103.085 161.396 103.436 171.638C103.541 173.335 104.189 174.965 105.299 176.32C106.408 177.676 107.928 178.694 109.665 179.247C109.422 179.516 109.178 179.804 108.928 180.11L108.428 180.029C103.112 179.042 99.8424 174.063 98.12 169.311C96.5028 164.812 95.8157 160.071 96.0932 155.336C99.2643 157.088 102.987 157.785 106.646 157.312C112.178 156.649 117.17 154.036 122.135 151.684C122.698 151.366 123.34 151.185 124 151.159C124.437 151.201 124.864 151.308 125.262 151.478C131.769 153.898 138.929 156.511 145.631 155.53C145.847 156.443 146.05 157.437 146.239 158.563C146.812 162.039 148.441 164.591 149.474 167.63C150.224 169.799 150.561 171.575 149.745 173.789Z" fill="white" stroke="#263238" stroke-width="0.931035" stroke-linecap="round" stroke-linejoin="round"/>
<path d="M83.9962 227.183C83.9962 227.183 78.9567 229.39 77.4165 231.667C75.8763 233.942 70.9448 241.796 69.56 244.647C68.1752 247.499 65.7094 261.474 74.6401 260.905C83.5707 260.336 81.6995 251.288 83.7329 247.661C85.7662 244.034 97.3988 224.901 83.9962 227.183Z" fill="#263238" stroke="#263238" stroke-width="0.931035" stroke-linecap="round" stroke-linejoin="round"/>
<path d="M94.78 228.165C94.78 228.165 93.1515 228.102 92.5503 233.905C91.949 239.708 90.9087 240.107 91.0573 241.496C91.2059 242.884 91.1924 246.336 95.2325 248.268C99.2722 250.2 101.86 252.363 106.149 245.222C108.392 241.47 104.21 229.697 102.697 228.165C98.7918 224.206 94.78 228.165 94.78 228.165Z" fill="#263238" stroke="#263238" stroke-width="0.931035" stroke-linecap="round" stroke-linejoin="round"/>
<path d="M149.274 181.167C149.129 182.62 148.758 184.046 148.173 185.401C147.841 186.206 147.432 186.982 146.95 187.721C141.411 196.149 135.466 201.389 127.184 207.999C122.935 211.394 118.402 214.477 114.275 218.004C109.546 222.055 105.094 227.32 105.411 233.292C105.519 235.493 106.087 238.863 103.303 239.025C92.5693 239.651 94.1235 234.192 94.4065 232.423C94.6905 230.654 95.6904 229.065 96.6698 227.521C100.554 221.367 104.445 215.221 108.634 209.243C114.356 201.114 120.631 193.26 125.982 184.894C127.664 182.268 129.271 179.523 129.859 176.528C130.447 173.533 130.197 169.593 127.947 167.361C128.062 166.735 130.65 164.303 133.23 161.696C135.02 160.864 136.817 159.232 138.634 156.343C143.201 158.707 146.187 162.596 147.855 167.173C147.963 167.479 148.071 167.798 148.173 168.098C148.274 168.399 148.362 168.724 148.443 169.03C148.477 169.155 148.517 169.281 148.544 169.412C148.606 169.649 148.673 169.893 148.72 170.131C148.882 170.812 149.011 171.487 149.106 172.175C149.146 172.401 149.179 172.638 149.206 172.863C149.281 173.426 149.341 173.995 149.376 174.57C149.534 176.768 149.5 178.975 149.274 181.167Z" fill="#959595" stroke="#323232" stroke-width="0.931035" stroke-linecap="round" stroke-linejoin="round"/>
<path d="M103.425 171.606C103.532 173.304 104.182 174.936 105.292 176.291C106.402 177.648 107.923 178.667 109.66 179.222C105.195 184.225 99.6626 195.33 96.2234 204.303C93.7375 210.768 90.414 218.772 86.4486 223.9C83.9323 227.115 81.6614 230.49 79.6526 233.999C79.1055 234.955 78.5988 235.793 78.2138 236.331C76.6735 238.469 74.5456 246.454 79.1663 247.448C83.787 248.443 91.3261 237.218 93.0892 232.298C93.3349 231.529 93.6327 230.774 93.9805 230.04C94.6648 228.931 95.4255 227.863 96.2578 226.845C97.2503 225.426 99.3991 221.999 100.371 220.592C112.079 203.221 118.557 200.645 127.332 186.651C129.859 182.624 131.811 179.348 132.405 177.196C133.757 172.426 131.453 170.25 127.792 165.973C124.489 162.108 120.266 159.213 115.003 159.982C115.003 159.939 103.087 161.37 103.425 171.606Z" fill="#959595" stroke="#323232" stroke-width="0.931035" stroke-linecap="round" stroke-linejoin="round"/>
<path d="M126.021 185.831C128.703 183.322 130.867 180.381 132.406 177.152" stroke="#263238" stroke-width="0.931035" stroke-linecap="round" stroke-linejoin="round"/>
<path d="M122.807 188.483C123.483 187.977 124.199 187.426 124.921 186.819" stroke="#263238" stroke-width="0.931035" stroke-linecap="round" stroke-linejoin="round"/>
<path d="M142.465 190.003C143.564 189.919 144.605 189.511 145.437 188.84C146.365 188.123 147.152 187.262 147.761 186.295" fill="#5C5C5C"/>
<path d="M142.465 190.003C143.564 189.919 144.605 189.511 145.437 188.84C146.365 188.123 147.152 187.262 147.761 186.295" stroke="#263238" stroke-width="0.931035" stroke-linecap="round" stroke-linejoin="round"/>
<path d="M124.72 125.14C121.693 121.47 118.694 105.131 118.248 99.4725C118.599 99.9911 118.964 100.511 119.349 101.011C121.157 103.299 122.778 105.709 124.199 108.221C125.829 105.139 127.146 101.923 128.131 98.616C129.631 107.438 128.232 116.806 124.72 125.14Z" fill="white" stroke="#263238" stroke-width="0.931035" stroke-linecap="round" stroke-linejoin="round"/>
<path d="M152.367 139.829C151.883 140.318 151.259 140.67 150.568 140.843C149.877 141.017 149.146 141.006 148.462 140.811L147.658 140.555C141.517 138.529 139.308 135.877 138.505 134.208C138.242 133.707 138.091 133.162 138.059 132.606C138.888 131.983 139.905 131.61 140.97 131.538C144.719 131.25 149.076 134.289 151.184 136.815C152.306 138.14 152.833 139.328 152.367 139.829Z" fill="#263238" stroke="#263238" stroke-width="0.931035" stroke-linecap="round" stroke-linejoin="round"/>
<path d="M140.973 131.538L140.716 131.794C139.952 132.569 139.216 133.382 138.507 134.208C137.622 135.246 136.798 136.303 136.008 137.403C135.217 138.504 134.427 139.704 133.609 140.836C132.069 142.994 130.344 145.033 128.448 146.932C128.148 147.271 127.789 147.563 127.387 147.795C126.831 148.045 126.228 148.192 125.611 148.226C122.909 148.577 120.071 149.128 118.018 150.797C117.174 151.485 116.484 152.347 115.518 152.867C114.552 153.385 113.025 153.798 112.979 154.886C112.982 155.18 113.069 155.469 113.228 155.724C114.079 157.206 116.058 157.881 117.869 157.763C119.671 157.543 121.407 156.993 122.976 156.143C126.501 154.556 129.935 152.803 133.265 150.89C136.027 149.259 138.669 147.445 141.276 145.581C143.514 144.038 145.646 142.366 147.66 140.58C148.95 139.424 150.13 138.169 151.186 136.828C149.052 134.289 144.722 131.25 140.973 131.538Z" fill="white"/>
<mask id="mask1_7652_12406" style="mask-type:luminance" maskUnits="userSpaceOnUse" x="112" y="131" width="40" height="27">
<path d="M140.969 131.538L140.712 131.794C139.949 132.569 139.212 133.382 138.503 134.208C137.618 135.246 136.794 136.303 136.004 137.403C135.213 138.504 134.423 139.704 133.605 140.836C132.065 142.994 130.34 145.033 128.444 146.932C128.144 147.271 127.786 147.564 127.383 147.795C126.827 148.045 126.224 148.192 125.607 148.227C122.905 148.578 120.067 149.128 118.014 150.797C117.17 151.485 116.48 152.347 115.514 152.867C114.548 153.385 113.021 153.798 112.975 154.886C112.978 155.18 113.065 155.469 113.224 155.724C114.075 157.206 116.054 157.881 117.865 157.763C119.667 157.543 121.403 156.993 122.972 156.143C126.497 154.557 129.931 152.804 133.261 150.89C136.023 149.259 138.666 147.445 141.272 145.582C143.51 144.038 145.642 142.367 147.657 140.58C148.946 139.425 150.126 138.17 151.182 136.828C149.048 134.289 144.718 131.25 140.969 131.538Z" fill="white"/>
</mask>
<g mask="url(#mask1_7652_12406)">
<path opacity="0.2" d="M146.091 136.158L148.205 139.179C148.326 139.348 148.488 139.542 148.712 139.523C148.846 139.491 148.965 139.418 149.05 139.316C150.018 138.371 150.764 137.249 151.239 136.022C149.82 134.302 147.185 132.088 144.753 131.769C140.902 131.269 145.212 134.901 146.091 136.158Z" fill="black"/>
</g>
<path d="M140.973 131.538L140.716 131.794C139.952 132.569 139.216 133.382 138.507 134.208C137.622 135.246 136.798 136.303 136.008 137.403C135.217 138.504 134.427 139.704 133.609 140.836C132.069 142.994 130.344 145.033 128.448 146.932C128.148 147.271 127.789 147.563 127.387 147.795C126.831 148.045 126.228 148.192 125.611 148.226C122.909 148.577 120.071 149.128 118.018 150.797C117.174 151.485 116.484 152.347 115.518 152.867C114.552 153.385 113.025 153.798 112.979 154.886C112.982 155.18 113.069 155.469 113.228 155.724C114.079 157.206 116.058 157.881 117.869 157.763C119.671 157.543 121.407 156.993 122.976 156.143C126.501 154.556 129.935 152.803 133.265 150.89C136.027 149.259 138.669 147.445 141.276 145.581C143.514 144.038 145.646 142.366 147.66 140.58C148.95 139.424 150.13 138.169 151.186 136.828C149.052 134.289 144.722 131.25 140.973 131.538Z" stroke="#263238" stroke-width="0.931035" stroke-linecap="round" stroke-linejoin="round"/>
<path d="M108.798 74.0541C107.445 75.5477 106.74 77.4528 106.818 79.4004C106.906 81.3295 107.253 83.2409 107.852 85.0906L109.453 90.9433C109.509 91.2937 109.681 91.6193 109.946 91.875C110.178 92.0082 110.439 92.0908 110.711 92.1168C110.983 92.1428 111.257 92.1114 111.514 92.0251C112.992 91.737 114.445 91.3504 115.864 90.8683C117.046 90.468 118.269 89.9491 118.931 88.9548C119.342 88.2467 119.561 87.4574 119.573 86.6538C119.796 83.3676 119.004 80.0904 117.289 77.2056C116.619 75.9279 115.581 74.8461 114.29 74.0791C113.644 73.7039 112.897 73.5049 112.135 73.5049C111.372 73.5049 110.625 73.7039 109.98 74.0791L109.831 74.7607L108.798 74.0541Z" fill="#263238" stroke="#263238" stroke-width="0.931035" stroke-linecap="round" stroke-linejoin="round"/>
<path d="M128.129 98.5844C127.145 101.903 125.829 105.129 124.197 108.221C122.774 105.72 121.152 103.321 119.346 101.041C118.962 100.541 118.597 100.023 118.246 99.5034C118.157 98.8935 118.157 98.2753 118.246 97.6655C118.416 97.2782 118.532 96.8732 118.59 96.4589C118.59 95.4831 118.59 95.4208 116.901 93.0881C116.048 91.847 115.333 90.5293 114.766 89.155C115.043 86.7788 113.206 83.6899 114.091 83.7524C114.781 84.4192 115.582 84.9805 116.462 85.4157C118.328 86.2729 120.323 86.8653 122.38 87.1728C123.298 87.3479 123.69 87.573 124.582 87.3166C124.819 87.2517 125.046 87.1592 125.257 87.0415C125.677 86.8061 126.061 86.5201 126.399 86.1911L126.487 86.1035C126.676 85.941 126.913 85.6471 126.832 86.7288C126.649 89.1925 127.257 89.9053 127.859 90.0429C127.635 90.8495 127.318 91.9188 126.764 93.3948C125.798 95.958 127.845 97.146 127.973 97.8778L128.129 98.5844Z" fill="white" stroke="#263238" stroke-width="0.931035" stroke-linecap="round" stroke-linejoin="round"/>
<path d="M122.301 89.7241C125.002 90.1493 127.407 84.3903 126.833 83.715C126.596 83.4869 126.313 83.3043 126 83.1777C125.688 83.051 125.351 82.9829 125.009 82.9771C122.868 82.777 120.787 83.4523 118.653 83.4962C117.614 83.5022 116.582 83.3283 115.612 82.9834C114.545 82.652 113.931 82.3581 114.147 83.6086C114.653 86.5726 119.469 89.2676 122.301 89.7241Z" fill="#263238" stroke="#263238" stroke-width="0.931035" stroke-linecap="round" stroke-linejoin="round"/>
<path d="M129.938 78.775C129.905 79.0877 129.864 79.4003 129.81 79.7067C129.453 82.2739 128.247 84.6764 126.358 86.5849L126.27 86.6724C125.925 87.0077 125.534 87.2998 125.108 87.5416C124.99 87.6123 124.862 87.6711 124.73 87.7167C124.637 87.765 124.537 87.8007 124.433 87.823C123.52 88.0794 123.122 87.8543 122.176 87.6729C120.103 87.2852 114.414 84.8654 113.725 84.1838C112.955 83.4334 111.861 80.951 111.598 80.7509C111.237 80.5742 110.828 80.5023 110.422 80.5445C110.173 80.5329 109.927 80.4887 109.693 80.4133C109.693 80.2069 109.693 79.9881 109.645 79.788C109.618 79.4195 109.618 79.0497 109.645 78.6812C109.72 77.1242 111.55 75.6548 112.719 74.5355C114.512 72.8037 115.865 70.7229 116.677 68.4451C117.279 66.7318 117.582 64.9184 118.501 63.3239C119.298 61.9295 120.765 60.7164 122.413 60.5664H122.548H122.912C125.57 62.9368 127.644 65.8096 128.992 68.9891L129.054 69.2455C129.121 69.5018 129.175 69.7707 129.222 70.0209C129.91 72.8925 130.151 75.8402 129.938 78.775Z" fill="white" stroke="#263238" stroke-width="0.931035" stroke-linecap="round" stroke-linejoin="round"/>
<path d="M122.407 60.5728C120.759 60.7228 119.292 61.9359 118.495 63.3303C117.576 64.9248 117.273 66.7382 116.671 68.4514C115.859 70.7292 114.506 72.8101 112.713 74.5418C111.544 75.6611 109.714 77.1305 109.639 78.6875C109.612 79.056 109.612 79.4258 109.639 79.7943C109.639 80.0007 109.639 80.2195 109.687 80.4196C109.497 80.3623 109.314 80.289 109.139 80.2007C109.112 79.8218 109.112 79.4417 109.139 79.0627C109.214 77.4745 111.085 75.9675 112.281 74.8295C114.119 73.0521 115.505 70.9152 116.333 68.5765C116.955 66.8257 117.259 64.9748 118.205 63.349C119.036 61.9108 120.63 60.6165 122.407 60.5728Z" fill="white" stroke="#263238" stroke-width="0.931035" stroke-linecap="round" stroke-linejoin="round"/>
<path d="M123.447 77.6182C123.919 77.8159 124.446 77.8705 124.954 77.7746C125.825 77.5994 126.636 76.4114 125.73 75.9987C125.112 75.6352 124.637 75.0953 124.379 74.4604" stroke="#263238" stroke-width="0.931035" stroke-linecap="round" stroke-linejoin="round"/>
<path d="M119.367 80.3008C122.603 82.6192 125.177 81.3445 125.177 81.3445" stroke="#263238" stroke-width="0.931035" stroke-linecap="round" stroke-linejoin="round"/>
<path d="M127.177 70.9087C127.596 70.9087 127.975 71.534 128.015 72.2843C128.056 73.0347 127.765 73.71 127.34 73.7288C126.913 73.7475 126.542 73.1409 126.495 72.3593C126.448 71.5777 126.751 70.9336 127.177 70.9087Z" fill="#263238"/>
<path d="M119.59 71.0339C120.003 71.0339 120.388 71.6592 120.428 72.4095C120.469 73.1599 120.179 73.8352 119.753 73.8539C119.327 73.8728 118.955 73.2662 118.909 72.4846C118.861 71.703 119.206 71.0589 119.59 71.0339Z" fill="#263238"/>
<path d="M125.414 74.548L124.644 71.5279C124.634 71.4741 124.634 71.4191 124.644 71.3653C124.635 71.2786 124.646 71.1912 124.676 71.1087C124.707 71.0262 124.755 70.9505 124.819 70.8863C124.882 70.8221 124.959 70.771 125.046 70.7361C125.133 70.7012 125.226 70.6834 125.32 70.6838L132.649 70.3148C132.714 70.3085 132.78 70.3085 132.845 70.3148C132.937 70.3313 133.026 70.3646 133.105 70.4129C133.184 70.4612 133.252 70.5235 133.304 70.5962C133.357 70.6688 133.394 70.7504 133.412 70.8363C133.431 70.9222 133.431 71.0106 133.412 71.0964L132.919 74.1792C132.9 74.3354 132.822 74.4803 132.698 74.5879C132.574 74.6956 132.413 74.759 132.244 74.7669L126.164 75.0733C125.994 75.0758 125.827 75.0255 125.691 74.9302C125.555 74.8351 125.457 74.7005 125.414 74.548Z" stroke="#263238" stroke-width="0.931035" stroke-linecap="round" stroke-linejoin="round"/>
<path d="M113.219 75.1607L112.375 72.1405C112.365 72.0888 112.365 72.0358 112.375 71.9842C112.377 71.8909 112.398 71.7988 112.438 71.7132C112.479 71.6278 112.537 71.5505 112.61 71.486C112.683 71.4215 112.769 71.3709 112.863 71.3373C112.957 71.3037 113.057 71.2877 113.158 71.2901L121.332 70.8837C121.386 70.8776 121.44 70.8776 121.494 70.8837C121.695 70.9072 121.88 71.0029 122.005 71.1501C122.132 71.2973 122.191 71.4846 122.17 71.6715L121.629 74.7605C121.588 74.9255 121.49 75.0731 121.347 75.1796C121.205 75.2862 121.029 75.3456 120.845 75.3483L114.091 75.686C113.902 75.7069 113.711 75.6658 113.552 75.5697C113.392 75.4737 113.274 75.3289 113.219 75.1607Z" stroke="#263238" stroke-width="0.931035" stroke-linecap="round" stroke-linejoin="round"/>
<path d="M121.361 70.9776L124.962 70.7964" stroke="#263238" stroke-width="0.931035" stroke-linecap="round" stroke-linejoin="round"/>
<path d="M122.225 72.447L124.731 72.322" stroke="#263238" stroke-width="0.931035" stroke-linecap="round" stroke-linejoin="round"/>
<path d="M124.986 69.1827L125.034 69.1451C125.329 68.9435 125.663 68.7975 126.02 68.7157C126.375 68.6338 126.745 68.6176 127.108 68.6682C127.47 68.7186 127.819 68.8347 128.133 69.01C128.447 69.1851 128.721 69.4158 128.939 69.6889" stroke="#263238" stroke-width="0.931035" stroke-linecap="round" stroke-linejoin="round"/>
<path d="M116.35 69.8204C119.146 67.6206 121.18 69.3704 121.18 69.3704" stroke="#263238" stroke-width="0.931035" stroke-linecap="round" stroke-linejoin="round"/>
<path d="M134.961 151.14C134.961 153.642 128.3 155.655 120.098 155.655C111.897 155.655 105.236 153.636 105.236 151.14C105.236 148.645 111.904 146.619 120.098 146.619C128.292 146.619 134.961 148.645 134.961 151.14Z" fill="white" stroke="#263238" stroke-width="0.931035" stroke-linecap="round" stroke-linejoin="round"/>
<path d="M121.037 141.529C116.099 141.361 111.992 143.743 111.87 146.857C111.749 149.971 115.654 152.622 120.584 152.791C125.516 152.959 129.63 150.571 129.751 147.464C129.873 144.356 125.962 141.692 121.037 141.529ZM120.673 146.25C119.166 146.2 117.97 145.756 117.97 145.256C117.97 144.756 119.233 144.393 120.74 144.443C122.246 144.494 123.442 144.938 123.442 145.438C123.442 145.938 122.186 146.301 120.673 146.25Z" fill="white" stroke="#263238" stroke-width="0.931035" stroke-linecap="round" stroke-linejoin="round"/>
<path d="M112.843 148.24C113.147 148.177 113.289 147.851 113.559 147.708C113.742 147.635 113.944 147.62 114.138 147.661C114.33 147.702 114.504 147.8 114.634 147.939C114.876 148.226 115.101 148.525 115.309 148.834C115.732 149.297 116.332 149.593 116.984 149.66C117.636 149.728 118.292 149.562 118.815 149.196C118.983 149.042 119.175 148.911 119.383 148.809C120.004 148.571 120.633 149.065 121.22 149.352C121.709 149.578 122.255 149.672 122.798 149.624C123.342 149.577 123.859 149.389 124.294 149.083C124.536 148.863 124.818 148.681 125.125 148.546C125.801 148.339 126.476 148.884 127.233 148.921C127.605 148.902 127.967 148.798 128.287 148.621C128.607 148.444 128.876 148.197 129.07 147.902C129.3 147.614 129.502 147.277 129.745 146.995C129.502 144.082 125.747 141.661 121.045 141.505C116.991 141.368 113.526 142.937 112.323 145.213C112.051 145.717 111.899 146.27 111.877 146.833C111.867 147.131 111.895 147.429 111.958 147.72C112.033 147.823 112.115 147.919 112.209 148.008C112.287 148.091 112.385 148.154 112.496 148.195C112.606 148.235 112.725 148.25 112.843 148.24ZM120.747 144.419C122.261 144.469 123.45 144.913 123.45 145.413C123.45 145.913 122.186 146.276 120.673 146.226C119.16 146.176 117.971 145.732 117.971 145.231C117.971 144.732 119.241 144.394 120.747 144.444V144.419Z" fill="#9A2FAB"/>
<path d="M112.323 145.213C113.526 142.937 116.991 141.368 121.045 141.505C125.747 141.661 129.502 144.082 129.745 146.995C129.502 147.277 129.3 147.614 129.07 147.902C128.876 148.197 128.607 148.444 128.287 148.621C127.967 148.798 127.605 148.902 127.233 148.921C126.476 148.884 125.801 148.339 125.125 148.546C124.818 148.681 124.536 148.863 124.294 149.083C123.859 149.389 123.342 149.577 122.798 149.624C122.255 149.672 121.709 149.578 121.22 149.352C120.633 149.065 120.004 148.571 119.383 148.809C119.175 148.911 118.983 149.042 118.815 149.196C118.292 149.562 117.636 149.728 116.984 149.66C116.332 149.593 115.732 149.297 115.309 148.834C115.101 148.525 114.876 148.226 114.634 147.939C114.504 147.8 114.33 147.702 114.138 147.661C113.944 147.62 113.742 147.635 113.559 147.708C113.289 147.851 113.147 148.177 112.843 148.24C112.725 148.25 112.606 148.235 112.496 148.195C112.385 148.154 112.287 148.091 112.209 148.008C112.115 147.919 112.033 147.823 111.958 147.72C111.895 147.429 111.867 147.131 111.877 146.833C111.899 146.27 112.051 145.717 112.323 145.213ZM112.323 145.213C112.4 145.143 112.484 145.081 112.573 145.026M120.747 144.419C122.261 144.469 123.45 144.913 123.45 145.413C123.45 145.913 122.186 146.276 120.673 146.226C119.16 146.176 117.971 145.732 117.971 145.231C117.971 144.732 119.241 144.394 120.747 144.444V144.419Z" stroke="#263238" stroke-width="0.931035" stroke-linecap="round" stroke-linejoin="round"/>
<path d="M131.148 114.285C131.173 114.575 131.227 114.863 131.31 115.142C131.423 115.554 131.578 115.957 131.77 116.343C132.049 116.844 132.403 117.305 132.824 117.713L133.115 117.969C133.368 118.211 133.644 118.432 133.939 118.632C134.491 119.05 135.127 119.361 135.81 119.55C135.873 119.567 135.932 119.598 135.981 119.639C136.031 119.68 136.069 119.731 136.094 119.788C136.168 119.951 136.263 120.101 136.344 120.257C136.418 120.386 136.484 120.52 136.539 120.657C136.611 120.853 136.748 121.021 136.931 121.139C137.288 121.356 137.683 121.511 138.1 121.595C139.175 121.865 140.284 122 141.396 121.995C141.972 122.009 142.546 121.994 143.12 121.952C143.738 121.903 144.352 121.813 144.957 121.683C145.443 121.589 145.912 121.432 146.348 121.214C146.533 121.128 146.686 120.993 146.787 120.826C146.835 120.733 146.855 120.645 146.909 120.551C147.051 120.289 147.186 120.02 147.321 119.757C147.531 119.35 147.706 118.931 147.875 118.507C148.044 118.081 148.212 117.687 148.334 117.255C148.456 116.824 148.584 116.393 148.679 115.955C148.847 115.224 148.99 114.479 149.118 113.729C149.179 113.379 149.199 112.973 149.239 112.623C149.267 112.334 149.251 112.044 149.193 111.76C149.144 111.561 149.042 111.379 148.895 111.228C148.494 110.809 148.001 110.472 147.45 110.24C146.929 110.017 146.383 109.851 145.822 109.746C145.585 109.702 145.362 109.633 145.146 109.596C142.688 109.144 140.153 109.187 137.715 109.721C137.223 109.825 136.74 109.961 136.269 110.127C135.859 110.292 135.47 110.502 135.114 110.753C134.839 110.931 134.609 111.161 134.439 111.428C134.38 111.531 134.334 111.64 134.304 111.753C134.256 111.891 134.256 111.897 134.115 111.866C133.736 111.764 133.334 111.758 132.953 111.846C132.57 111.936 132.221 112.117 131.939 112.372C131.715 112.593 131.545 112.855 131.439 113.141C131.257 113.5 131.158 113.89 131.148 114.285ZM137.377 112.854C136.885 112.747 136.408 112.593 135.952 112.391C135.833 112.353 135.724 112.291 135.634 112.209C135.803 111.954 136.034 111.74 136.31 111.585C136.492 111.48 136.682 111.388 136.877 111.309C137.22 111.168 137.574 111.055 137.938 110.972C138.499 110.846 139.067 110.752 139.64 110.69C140.187 110.626 140.737 110.591 141.288 110.584C141.809 110.584 142.214 110.584 142.734 110.584C143.38 110.625 144.023 110.699 144.66 110.809C145.307 110.91 145.939 111.081 146.544 111.315C147.068 111.496 147.533 111.797 147.895 112.191L147.848 112.229L147.706 112.316C147.574 112.391 147.436 112.458 147.294 112.516C146.754 112.736 146.187 112.896 145.606 112.991C145.471 113.023 145.342 113.047 145.207 113.067L144.984 113.097C144.552 113.166 144.119 113.204 143.687 113.242C143.255 113.279 142.842 113.298 142.417 113.291H141.437H141.153C140.721 113.291 140.288 113.247 139.856 113.204C139.424 113.16 139.086 113.154 138.701 113.104C138.316 113.054 137.809 112.948 137.377 112.854ZM133.169 114.016C133.219 113.853 133.32 113.706 133.459 113.596C133.598 113.484 133.769 113.413 133.952 113.392H134.236C134.31 113.979 134.432 114.542 134.533 115.105C134.669 115.843 134.864 116.568 135.067 117.294C135.157 117.65 135.303 117.994 135.499 118.312L135.067 117.969C134.649 117.599 134.287 117.178 133.993 116.718C133.658 116.273 133.395 115.787 133.209 115.273C133.055 114.868 133.041 114.43 133.169 114.016Z" fill="white" stroke="#263238" stroke-width="0.931035" stroke-linecap="round" stroke-linejoin="round"/>
<path opacity="0.8" d="M131.148 114.285C131.173 114.575 131.227 114.863 131.31 115.142C131.423 115.554 131.578 115.957 131.77 116.343C132.049 116.844 132.403 117.305 132.824 117.713L133.115 117.969C133.368 118.211 133.644 118.432 133.939 118.632C134.491 119.05 135.127 119.361 135.81 119.55C135.873 119.567 135.932 119.598 135.981 119.639C136.031 119.68 136.069 119.731 136.094 119.788C136.168 119.951 136.263 120.101 136.344 120.257C136.418 120.386 136.484 120.52 136.539 120.657C136.611 120.853 136.748 121.021 136.931 121.139C137.288 121.356 137.683 121.511 138.1 121.595C139.175 121.865 140.284 122 141.396 121.995C141.972 122.009 142.546 121.994 143.12 121.952C143.738 121.903 144.352 121.813 144.957 121.683C145.443 121.589 145.912 121.432 146.348 121.214C146.533 121.128 146.686 120.993 146.787 120.826C146.835 120.733 146.855 120.645 146.909 120.551C147.051 120.289 147.186 120.02 147.321 119.757C147.531 119.35 147.706 118.931 147.875 118.507C148.044 118.081 148.212 117.687 148.334 117.255C148.456 116.824 148.584 116.393 148.679 115.955C148.847 115.224 148.99 114.479 149.118 113.729C149.179 113.379 149.199 112.973 149.239 112.623C149.267 112.334 149.251 112.044 149.193 111.76C149.144 111.561 149.042 111.379 148.895 111.228C148.494 110.809 148.001 110.472 147.45 110.24C146.929 110.017 146.383 109.851 145.822 109.746C145.585 109.702 145.362 109.633 145.146 109.596C142.688 109.144 140.153 109.187 137.715 109.721C137.223 109.825 136.74 109.961 136.269 110.127C135.859 110.292 135.47 110.502 135.114 110.753C134.839 110.931 134.609 111.161 134.439 111.428C134.38 111.531 134.334 111.64 134.304 111.753C134.256 111.891 134.256 111.897 134.115 111.866C133.736 111.764 133.334 111.758 132.953 111.846C132.57 111.936 132.221 112.117 131.939 112.372C131.715 112.593 131.545 112.855 131.439 113.141C131.257 113.5 131.158 113.89 131.148 114.285ZM137.377 112.854C136.885 112.747 136.408 112.593 135.952 112.391C135.833 112.353 135.724 112.291 135.634 112.209C135.803 111.954 136.034 111.74 136.31 111.585C136.492 111.48 136.682 111.388 136.877 111.309C137.22 111.168 137.574 111.055 137.938 110.972C138.499 110.846 139.067 110.752 139.64 110.69C140.187 110.626 140.737 110.591 141.288 110.584C141.809 110.584 142.214 110.584 142.734 110.584C143.38 110.625 144.023 110.699 144.66 110.809C145.307 110.91 145.939 111.081 146.544 111.315C147.068 111.496 147.533 111.797 147.895 112.191L147.848 112.229L147.706 112.316C147.574 112.391 147.436 112.458 147.294 112.516C146.754 112.736 146.187 112.896 145.606 112.991C145.471 113.023 145.342 113.047 145.207 113.067L144.984 113.097C144.552 113.166 144.119 113.204 143.687 113.242C143.255 113.279 142.842 113.298 142.417 113.291H141.437H141.153C140.721 113.291 140.288 113.247 139.856 113.204C139.424 113.16 139.086 113.154 138.701 113.104C138.316 113.054 137.809 112.948 137.377 112.854ZM133.169 114.016C133.219 113.853 133.32 113.706 133.459 113.596C133.598 113.484 133.769 113.413 133.952 113.392H134.236C134.31 113.979 134.432 114.542 134.533 115.105C134.669 115.843 134.864 116.568 135.067 117.294C135.157 117.65 135.303 117.994 135.499 118.312L135.067 117.969C134.649 117.599 134.287 117.178 133.993 116.718C133.658 116.273 133.395 115.787 133.209 115.273C133.055 114.868 133.041 114.43 133.169 114.016Z" fill="white" stroke="#263238" stroke-width="0.931035" stroke-linecap="round" stroke-linejoin="round"/>
<path opacity="0.7" d="M135.627 112.209C135.792 111.952 136.024 111.736 136.302 111.584C136.481 111.475 136.668 111.381 136.863 111.303C137.207 111.16 137.564 111.046 137.93 110.965C138.489 110.84 139.055 110.746 139.626 110.684C140.186 110.622 140.713 110.59 141.281 110.578C141.848 110.565 142.207 110.578 142.727 110.615C143.373 110.651 144.016 110.723 144.652 110.834C145.299 110.937 145.931 111.108 146.537 111.34C147.058 111.525 147.523 111.826 147.888 112.216H147.848C147.802 112.253 147.752 112.285 147.699 112.31C147.571 112.389 147.435 112.456 147.294 112.51C146.753 112.731 146.186 112.893 145.605 112.991L145.206 113.06L144.983 113.091C144.551 113.16 144.118 113.203 143.686 113.235C143.254 113.266 142.842 113.285 142.416 113.285H141.43H141.146C140.713 113.285 140.281 113.242 139.849 113.21C139.416 113.178 139.086 113.154 138.7 113.104C138.316 113.054 137.829 112.935 137.397 112.841C136.902 112.738 136.421 112.582 135.965 112.379C135.839 112.347 135.724 112.289 135.627 112.209Z" fill="white" stroke="#263238" stroke-width="0.931035" stroke-linecap="round" stroke-linejoin="round"/>
<path d="M135.65 112.209C135.815 111.952 136.048 111.736 136.326 111.584C136.504 111.475 136.691 111.381 136.887 111.303C137.23 111.16 137.588 111.046 137.955 110.965C138.513 110.84 139.079 110.746 139.65 110.684C140.211 110.622 140.738 110.59 141.305 110.578C141.872 110.565 142.23 110.578 142.75 110.615C143.397 110.651 144.04 110.723 144.676 110.834C145.323 110.937 145.955 111.108 146.56 111.34C147.083 111.525 147.546 111.826 147.912 112.216H147.871C147.826 112.253 147.776 112.285 147.722 112.31C147.595 112.389 147.459 112.456 147.317 112.51C146.777 112.731 146.21 112.893 145.628 112.991L145.23 113.06L145.007 113.091C144.574 113.16 144.142 113.203 143.709 113.235C143.277 113.266 142.866 113.285 142.439 113.285H141.454H141.17C140.738 113.285 140.306 113.242 139.873 113.21C139.441 113.178 139.109 113.154 138.725 113.104C138.339 113.054 137.853 112.935 137.42 112.841C136.926 112.738 136.445 112.582 135.988 112.379C135.864 112.347 135.747 112.289 135.65 112.209Z" fill="white" stroke="#263238" stroke-width="0.931035" stroke-linecap="round" stroke-linejoin="round"/>
<path d="M135.65 112.209C135.815 111.952 136.048 111.736 136.326 111.584C136.504 111.475 136.691 111.381 136.887 111.303C137.23 111.16 137.588 111.046 137.955 110.965C138.513 110.84 139.079 110.746 139.65 110.684C140.211 110.622 140.738 110.59 141.305 110.578C141.872 110.565 142.23 110.578 142.75 110.615C143.397 110.651 144.04 110.723 144.676 110.834C145.323 110.937 145.955 111.108 146.56 111.34C147.083 111.525 147.546 111.826 147.912 112.216H147.871C147.826 112.253 147.776 112.285 147.722 112.31C147.595 112.389 147.459 112.456 147.317 112.51C146.777 112.731 146.21 112.893 145.628 112.991L145.23 113.06L145.007 113.091C144.574 113.16 144.142 113.203 143.709 113.235C143.277 113.266 142.866 113.285 142.439 113.285H141.454H141.17C140.738 113.285 140.306 113.242 139.873 113.21C139.441 113.178 139.109 113.154 138.725 113.104C138.339 113.054 137.853 112.935 137.42 112.841C136.926 112.738 136.445 112.582 135.988 112.379C135.864 112.347 135.747 112.289 135.65 112.209Z" fill="white" stroke="#263238" stroke-width="0.931035" stroke-linecap="round" stroke-linejoin="round"/>
<path d="M135.633 112.209C135.723 112.291 135.831 112.353 135.95 112.391C136.406 112.592 136.883 112.747 137.376 112.853C137.808 112.947 138.24 113.06 138.679 113.116C139.119 113.173 139.449 113.191 139.835 113.217C140.219 113.242 140.699 113.285 141.131 113.304H141.415H142.395C142.82 113.304 143.246 113.304 143.665 113.254C144.084 113.203 144.53 113.178 144.962 113.11L145.184 113.079C145.319 113.079 145.448 113.035 145.583 113.003C146.165 112.908 146.732 112.749 147.272 112.528C147.414 112.471 147.552 112.404 147.684 112.328L147.826 112.241L147.873 112.204C147.511 111.81 147.045 111.508 146.522 111.327C145.917 111.093 145.285 110.923 144.638 110.821C144.001 110.712 143.358 110.637 142.712 110.597C142.192 110.597 141.787 110.553 141.266 110.597C140.715 110.603 140.165 110.638 139.619 110.703C139.045 110.764 138.476 110.858 137.916 110.984C137.553 111.068 137.197 111.18 136.855 111.322C136.659 111.401 136.47 111.493 136.287 111.597C136.021 111.751 135.797 111.961 135.633 112.209Z" fill="#9A5C14"/>
<path d="M182.032 82.8144C178.418 79.6004 172.851 79.4316 167.846 79.5129C166.022 79.5129 164.109 79.6066 162.536 80.457C160.962 81.3074 159.915 83.2334 160.752 84.7341C161.59 86.2348 163.974 87.1853 163.455 88.7673C159.252 90.5681 154.342 89.9678 149.768 90.6931C146.12 91.2761 142.692 92.7069 139.804 94.8509C138.959 95.3714 138.338 96.1506 138.054 97.0528C137.757 98.603 139.202 99.7789 140.756 100.579C140.822 100.61 140.875 100.66 140.909 100.719C140.943 100.78 140.958 100.848 140.95 100.915C140.942 100.983 140.912 101.046 140.864 101.098C140.817 101.149 140.753 101.187 140.682 101.204C139.576 101.472 138.534 101.928 137.609 102.549C137.488 102.64 137.404 102.764 137.364 102.903C137.325 103.041 137.334 103.188 137.39 103.321C137.447 103.456 137.546 103.569 137.676 103.647C137.807 103.726 137.96 103.763 138.115 103.755H138.372C140.27 103.755 141.81 104.712 141.81 105.894C141.81 107.076 140.27 108.039 138.372 108.039C137.899 108.039 138.216 108.576 138.878 108.733C140.215 108.986 141.594 108.986 142.931 108.733C144.539 108.502 146.276 108.108 147.275 106.932C148.275 105.756 147.89 103.555 146.289 103.287C149.546 103.163 152.785 102.779 155.969 102.136C157.361 101.855 158.881 101.436 159.644 100.316C160.408 99.197 159.644 97.2837 158.219 97.4215C162.408 96.2521 166.771 95.7084 170.987 94.6452C175.202 93.5819 179.405 91.8937 182.363 88.911C183.057 88.2872 183.55 87.4971 183.789 86.6287C184.059 85.2156 183.146 83.8336 182.032 82.8144Z" fill="white" stroke="#263238" stroke-width="0.931035" stroke-linecap="round" stroke-linejoin="round"/>
<path opacity="0.8" d="M182.032 82.8144C178.418 79.6004 172.851 79.4316 167.846 79.5129C166.022 79.5129 164.109 79.6066 162.536 80.457C160.962 81.3074 159.915 83.2334 160.752 84.7341C161.59 86.2348 163.974 87.1853 163.455 88.7673C159.252 90.5681 154.342 89.9678 149.768 90.6931C146.12 91.2761 142.692 92.7069 139.804 94.8509C138.959 95.3714 138.338 96.1506 138.054 97.0528C137.757 98.603 139.202 99.7789 140.756 100.579C140.822 100.61 140.875 100.66 140.909 100.719C140.943 100.78 140.958 100.848 140.95 100.915C140.942 100.983 140.912 101.046 140.864 101.098C140.817 101.149 140.753 101.187 140.682 101.204C139.576 101.472 138.534 101.928 137.609 102.549C137.488 102.64 137.404 102.764 137.364 102.903C137.325 103.041 137.334 103.188 137.39 103.321C137.447 103.456 137.546 103.569 137.676 103.647C137.807 103.726 137.96 103.763 138.115 103.755H138.372C140.27 103.755 141.81 104.712 141.81 105.894C141.81 107.076 140.27 108.039 138.372 108.039C137.899 108.039 138.216 108.576 138.878 108.733C140.215 108.986 141.594 108.986 142.931 108.733C144.539 108.502 146.276 108.108 147.275 106.932C148.275 105.756 147.89 103.555 146.289 103.287C149.546 103.163 152.785 102.779 155.969 102.136C157.361 101.855 158.881 101.436 159.644 100.316C160.408 99.197 159.644 97.2837 158.219 97.4215C162.408 96.2521 166.771 95.7084 170.987 94.6452C175.202 93.5819 179.405 91.8937 182.363 88.911C183.057 88.2872 183.55 87.4971 183.789 86.6287C184.059 85.2156 183.146 83.8336 182.032 82.8144Z" fill="white" stroke="#263238" stroke-width="0.931035" stroke-linecap="round" stroke-linejoin="round"/>
<path d="M119.104 119.808C120.191 119.345 122.38 117.543 123.265 116.799C124.15 116.055 124.704 115.224 125.481 114.486C126.258 113.748 127.71 111.866 132.621 111.935C134.134 112.628 131.864 113.617 130.027 114.323C129.958 114.345 129.9 114.391 129.866 114.452C129.834 114.513 129.828 114.583 129.851 114.649C129.875 114.713 129.925 114.767 129.991 114.797C130.056 114.827 130.133 114.832 130.202 114.811C132.04 114.398 132.372 113.91 134.026 113.773C134.594 114.479 134.648 115.117 133.54 116.217C131.216 118.519 133.918 121.064 131.175 122.927C130.217 123.51 129.197 123.998 128.129 124.385C126.92 124.834 123.697 124.741 122.488 125.184C119.11 126.436 110.329 130.919 109.119 130.393C109.187 128.812 109.261 127.23 109.329 125.653C109.41 123.777 109.072 123.089 110.991 122.44C115.01 121.083 116.043 121.127 119.104 119.808Z" fill="white" stroke="#263238" stroke-width="0.931035" stroke-linecap="round" stroke-linejoin="round"/>
<path d="M102.385 124.347C109.141 122.602 111.843 121.845 111.843 121.845C113.627 125.084 111.843 134.083 111.222 134.245C105.757 135.665 104.601 135.889 95.3803 137.784C93.1984 138.228 92.4282 135.964 92.2526 135.502C89.3478 127.904 89.645 121.845 90.361 111.203C90.361 111.203 90.8069 99.6225 97.1706 95.9579C102.744 92.7378 103.419 118.512 102.385 124.347Z" fill="#DA251C" stroke="#263238" stroke-width="0.931035" stroke-linecap="round" stroke-linejoin="round"/>
<path d="M90.3322 109.814C90.3217 111.93 90.9036 114.011 92.021 115.855" stroke="#263238" stroke-width="0.931035" stroke-linecap="round" stroke-linejoin="round"/>
<path d="M97.5117 137.434C102.243 136.212 106.702 134.22 110.678 131.55" stroke="#263238" stroke-width="0.931035" stroke-linecap="round" stroke-linejoin="round"/>
<path d="M101.108 128.229C100.638 129.55 100.332 130.916 100.195 132.3" stroke="#263238" stroke-width="0.931035" stroke-linecap="round" stroke-linejoin="round"/>
<path d="M102.375 125.46C102.098 125.941 101.848 126.435 101.625 126.941" stroke="#263238" stroke-width="0.931035" stroke-linecap="round" stroke-linejoin="round"/>
<path d="M100.046 125.628C99.1901 126.313 98.5942 127.233 98.3438 128.255" stroke="#263238" stroke-width="0.931035" stroke-linecap="round" stroke-linejoin="round"/>
<path d="M135.853 102.011C134.927 104.962 131.124 107.358 128.232 105.807C130.773 104.268 130.935 100.73 129.584 98.2279C130.097 99.9168 129.036 103.712 126.206 105.162C125.267 105.644 123.99 105.788 123.173 105.125C128.726 101.08 124.99 87.6168 125.111 87.5605C125.538 87.3187 125.929 87.0266 126.273 86.6914L126.362 86.6038C128.251 84.6952 129.456 82.2929 129.813 79.7256C129.901 79.2879 129.968 78.8565 130.009 78.4187C130.205 75.5498 129.959 72.6696 129.28 69.8647C129.226 69.6083 129.178 69.3581 129.118 69.1018C129.116 69.0147 129.093 68.9291 129.05 68.8516C128.638 68.02 128.577 66.782 128.105 66.6944C124.092 65.9941 123.375 61.4857 123.166 61.4982C123.111 61.4982 116.903 64.287 116.674 68.4702C116.539 70.8464 114.506 72.8473 112.715 74.5607C111.547 75.68 109.716 77.1493 109.641 78.7064C109.614 79.0749 109.614 79.4446 109.641 79.8131C109.641 80.0195 109.641 80.2383 109.689 80.4384C110.168 84.8154 112.952 88.9549 112.668 93.3754C112.384 97.7969 109.041 101.586 106.25 105.256C103.46 108.926 101.271 112.598 102.995 116.824C99.2183 115.455 97.4484 111.278 97.5899 107.526C97.7314 103.774 98.2044 98.2214 100.198 94.9451C108.257 81.6953 95.8675 72.2658 104.095 62.2673C115.762 48.0856 129.495 60.0663 131.867 70.7401C132.637 74.2292 132.67 77.8184 132.968 81.3701C133.308 85.266 133.986 89.1302 134.994 92.9256C135.785 95.9143 136.772 99.0472 135.853 102.011Z" fill="#263238" stroke="#263238" stroke-width="0.931035" stroke-linecap="round" stroke-linejoin="round"/>
<path d="M106.543 32.1069C115.723 31.3708 122.522 23.8851 121.727 15.387C120.932 6.88885 112.844 0.596429 103.663 1.33244C94.4819 2.06846 87.6841 9.55422 88.4792 18.0523C89.2744 26.5504 97.3616 32.8428 106.543 32.1069Z" fill="white" stroke="#263238" stroke-width="0.931035" stroke-linecap="round" stroke-linejoin="round"/>
<path d="M118.194 17.7221C118.79 11.0279 113.409 5.15407 106.178 4.60252C98.9459 4.05099 92.5999 9.03061 92.0041 15.7249C91.4082 22.419 96.7877 28.2929 104.02 28.8444C111.252 29.3959 117.598 24.4163 118.194 17.7221Z" fill="white" stroke="#263238" stroke-width="0.931035" stroke-linecap="round" stroke-linejoin="round"/>
<path d="M106.518 18.0026C106.316 18.1921 106.059 18.3219 105.778 18.3754C105.497 18.4289 105.205 18.4037 104.939 18.3032C104.674 18.2026 104.446 18.0311 104.287 17.8106C104.127 17.59 104.041 17.3303 104.041 17.0647C104.041 16.799 104.127 16.5394 104.287 16.3189C104.446 16.0983 104.674 15.9268 104.939 15.8262C105.205 15.7256 105.497 15.7005 105.778 15.754C106.059 15.8075 106.316 15.9373 106.518 16.1268C106.784 16.377 106.933 16.7138 106.933 17.0647C106.933 17.4155 106.784 17.7524 106.518 18.0026Z" fill="#263238" stroke="#263238" stroke-width="0.931035" stroke-linecap="round" stroke-linejoin="round"/>
<path d="M105.007 17.2959L104.75 9.5172L105.229 8.7168L105.621 9.49215L105.85 16.5392L115.409 18.584L116.052 18.9466L115.241 19.3781L105.007 17.2959Z" fill="#263238" stroke="#263238" stroke-width="0.931035" stroke-linecap="round" stroke-linejoin="round"/>
</g>
<defs>
<clipPath id="clip0_7652_12406">
<rect width="232.759" height="270" fill="white" transform="translate(0.621094)"/>
</clipPath>
</defs>
</svg>
