<svg width="276" height="250" viewBox="0 0 276 250" fill="none" xmlns="http://www.w3.org/2000/svg">
<path d="M19.4006 238.926H156.909C157.462 238.059 158.023 237.194 158.596 236.346C173.388 214.325 197.076 198.622 222.945 191.254C234.535 187.955 247.088 185.993 256.399 178.479C265.984 170.755 270.385 158.426 272.286 146.421C274.597 131.889 273.347 115.593 263.262 104.685C251.418 91.8784 231.572 90.4392 216.141 82.046C189.582 67.5902 179.288 34.6732 155.125 16.6386C139.856 5.2459 119.255 0.832767 100.79 3.32908C74.6214 6.87616 50.0028 24.0257 42.6127 49.1798C40.4882 56.5062 39.7295 64.1467 40.3728 71.7359C41.5513 86.7329 44.8525 101.921 41.7402 116.651C38.3088 132.883 27.5134 146.581 21.0609 161.922C13.0261 181.026 11.9453 202.423 15.3506 222.789C16.262 228.264 17.6162 233.66 19.4006 238.926Z" fill="#4B77A5"/>
<path d="M1.8125 238.926H274.186" stroke="#263238" stroke-width="0.972763" stroke-linecap="round" stroke-linejoin="round"/>
<path d="M156.133 36.2461V26.248L148.477 25.6113C148.029 24.0475 147.395 22.5407 146.589 21.1217L151.53 15.3903L144.303 8.32165L138.443 13.1551C137.004 12.3629 135.474 11.7408 133.885 11.3019L133.234 3.81299H122.927L122.275 11.3019C120.687 11.7408 119.157 12.3629 117.718 13.1551L111.858 8.32165L104.63 15.3903L109.572 21.1217C108.766 22.5407 108.131 24.0475 107.684 25.6113L100.027 26.248V36.2461L107.684 36.8829C108.134 38.4356 108.768 39.9316 109.572 41.3405L104.63 47.072L111.858 54.1406L117.718 49.3072C119.157 50.0993 120.687 50.7214 122.275 51.1603L122.927 58.6493H133.149L133.801 51.1603C135.4 50.722 136.941 50.1 138.391 49.3072L144.251 54.1406L151.478 47.072L146.536 41.3405C147.341 39.9316 147.975 38.4356 148.424 36.8829L156.133 36.2461ZM128.07 42.8625C125.722 42.8625 123.425 42.1813 121.473 40.905C119.52 39.6287 117.997 37.8146 117.098 35.6921C116.2 33.5696 115.964 31.2341 116.422 28.981C116.88 26.7278 118.012 24.658 119.673 23.0336C121.334 21.4091 123.45 20.3029 125.754 19.8547C128.058 19.4065 130.446 19.6365 132.616 20.5157C134.785 21.3948 136.64 22.8836 137.946 24.7938C139.25 26.704 139.947 28.9497 139.947 31.2471C139.946 32.7743 139.637 34.2864 139.039 35.6971C138.44 37.1076 137.562 38.3889 136.457 39.4676C135.352 40.5464 134.04 41.4014 132.596 41.984C131.153 42.5665 129.606 42.865 128.045 42.8625H128.07Z" stroke="#263238" stroke-width="0.972763" stroke-linecap="round" stroke-linejoin="round"/>
<path d="M265.968 133.966V129.177L262.296 128.865C262.079 128.116 261.776 127.393 261.39 126.712L263.761 123.954L260.31 120.567L257.497 122.885C256.802 122.506 256.063 122.208 255.296 122L254.977 118.407H250.074L249.762 122C248.994 122.207 248.255 122.504 247.561 122.885L244.741 120.567L241.277 123.954L243.648 126.712C243.258 127.392 242.952 128.114 242.737 128.865L239.064 129.177V133.966L242.737 134.277C242.952 135.028 243.258 135.75 243.648 136.43L241.258 139.161L244.722 142.549L247.541 140.231C248.236 140.612 248.975 140.909 249.742 141.117L250.055 144.708H254.957L255.277 141.117C256.044 140.908 256.782 140.611 257.478 140.231L260.29 142.549L263.761 139.161L261.39 136.405C261.776 135.724 262.079 135.001 262.296 134.252L265.968 133.966ZM252.509 137.15C251.383 137.151 250.28 136.825 249.343 136.214C248.405 135.602 247.673 134.732 247.241 133.714C246.809 132.696 246.696 131.576 246.915 130.494C247.134 129.413 247.675 128.419 248.472 127.639C249.269 126.86 250.283 126.329 251.389 126.113C252.494 125.897 253.64 126.007 254.682 126.429C255.723 126.85 256.613 127.564 257.24 128.481C257.866 129.398 258.201 130.475 258.201 131.578C258.2 132.309 258.051 133.034 257.764 133.709C257.477 134.385 257.057 134.999 256.527 135.515C255.997 136.032 255.369 136.442 254.677 136.722C253.986 137.001 253.244 137.144 252.496 137.143L252.509 137.15Z" stroke="#263238" stroke-width="0.972763" stroke-linecap="round" stroke-linejoin="round"/>
<path d="M262.269 46.6963C262.788 44.4954 262.716 42.2003 262.059 40.0347C261.403 37.8692 260.183 35.9071 258.519 34.3396C256.857 32.7722 254.807 31.6528 252.57 31.0907C250.334 30.5287 247.985 30.5431 245.756 31.1325C244.398 28.7767 242.298 26.9133 239.769 25.8201C237.239 24.7269 234.416 24.4623 231.721 25.0659C229.025 25.6695 226.601 27.1089 224.81 29.1695C223.019 31.2301 221.957 33.8017 221.782 36.5009C220.365 36.2357 218.907 36.26 217.5 36.5722C216.092 36.8843 214.767 37.4776 213.605 38.3148C212.443 39.1519 211.471 40.2149 210.749 41.4369C210.027 42.659 209.572 44.0138 209.411 45.4162C207.959 45.5655 206.618 46.2391 205.647 47.3051C204.677 48.3712 204.148 49.7529 204.164 51.1801C204.181 52.6073 204.741 53.9771 205.735 55.0217C206.73 56.0663 208.087 56.7104 209.541 56.828H258.556C259.757 56.8193 260.926 56.4505 261.905 55.7712C262.883 55.0919 263.626 54.135 264.03 53.0298C264.436 51.9247 264.483 50.7246 264.168 49.5919C263.853 48.4591 263.19 47.4483 262.269 46.6963Z" stroke="#263238" stroke-width="0.972763" stroke-linecap="round" stroke-linejoin="round"/>
<path d="M235.33 52.4465V65.6604" stroke="#263238" stroke-width="0.972763" stroke-linecap="round" stroke-linejoin="round"/>
<path d="M235.33 44.5247V49.8039" stroke="#263238" stroke-width="0.972763" stroke-linecap="round" stroke-linejoin="round"/>
<path d="M235.33 39.5828V42.4103" stroke="#263238" stroke-width="0.972763" stroke-linecap="round" stroke-linejoin="round"/>
<path d="M232.777 64.1194L235.329 67.2079L237.881 64.1194" stroke="#263238" stroke-width="0.972763" stroke-linecap="round" stroke-linejoin="round"/>
<path d="M112.925 201.665C113.444 199.464 113.371 197.169 112.713 195.004C112.054 192.838 110.835 190.876 109.171 189.309C107.508 187.742 105.458 186.624 103.221 186.061C100.984 185.499 98.6362 185.513 96.4067 186.102C95.0497 183.744 92.9495 181.879 90.4197 180.785C87.8898 179.691 85.0661 179.427 82.3699 180.031C79.6737 180.636 77.2498 182.077 75.46 184.14C73.6702 186.202 72.6106 188.776 72.4393 191.477C71.7954 191.356 71.1414 191.294 70.4859 191.292C67.9101 191.29 65.4238 192.216 63.5021 193.894C61.5804 195.571 60.3579 197.882 60.0681 200.385C58.6168 200.534 57.2744 201.207 56.3035 202.272C55.3327 203.338 54.8032 204.719 54.8187 206.147C54.8342 207.574 55.3935 208.944 56.3872 209.988C57.3809 211.034 58.7377 211.679 60.1918 211.798H109.253C110.451 211.785 111.618 211.413 112.593 210.732C113.569 210.052 114.308 209.094 114.711 207.99C115.113 206.886 115.16 205.688 114.843 204.556C114.528 203.425 113.866 202.416 112.945 201.665H112.925Z" stroke="#263238" stroke-width="0.972763" stroke-linecap="round" stroke-linejoin="round"/>
<path d="M85.9727 209.307V196.099" stroke="#263238" stroke-width="0.972763" stroke-linecap="round" stroke-linejoin="round"/>
<path d="M85.9727 217.235V211.95" stroke="#263238" stroke-width="0.972763" stroke-linecap="round" stroke-linejoin="round"/>
<path d="M85.9727 222.177V219.35" stroke="#263238" stroke-width="0.972763" stroke-linecap="round" stroke-linejoin="round"/>
<path d="M88.5226 197.641L85.9703 194.552L83.418 197.641" stroke="#263238" stroke-width="0.972763" stroke-linecap="round" stroke-linejoin="round"/>
<path d="M9.29783 34.0234H173.02C173.753 34.0234 174.455 34.3079 174.972 34.8143C175.49 35.3206 175.781 36.0074 175.781 36.7235V44.2762H6.53711V36.7235C6.53711 36.0074 6.82797 35.3206 7.34571 34.8143C7.86344 34.3079 8.56564 34.0234 9.29783 34.0234Z" fill="#DA251C" stroke="#263238" stroke-width="0.972763" stroke-linecap="round" stroke-linejoin="round"/>
<path d="M184.997 46.1675H13.9434V163.896H184.997V46.1675Z" fill="white" stroke="#263238" stroke-width="0.972763" stroke-linecap="round" stroke-linejoin="round"/>
<path d="M187.617 39.1435C187.617 39.6473 187.464 40.1397 187.178 40.5586C186.892 40.9775 186.486 41.304 186.009 41.4968C185.533 41.6896 185.01 41.7401 184.504 41.6417C183.999 41.5435 183.535 41.3009 183.172 40.9446C182.807 40.5884 182.559 40.1345 182.458 39.6404C182.357 39.1463 182.41 38.6341 182.606 38.1687C182.804 37.7032 183.137 37.3053 183.566 37.0255C183.994 36.7455 184.497 36.5962 185.013 36.5962C185.704 36.5962 186.366 36.8646 186.854 37.3422C187.343 37.8199 187.617 38.4679 187.617 39.1435Z" fill="white" stroke="#263238" stroke-width="0.972763" stroke-linecap="round" stroke-linejoin="round"/>
<path d="M178.399 39.1435C178.399 39.6473 178.246 40.1397 177.959 40.5586C177.673 40.9775 177.267 41.304 176.791 41.4968C176.315 41.6896 175.791 41.7401 175.286 41.6417C174.781 41.5435 174.316 41.3009 173.952 40.9446C173.588 40.5884 173.34 40.1345 173.239 39.6404C173.139 39.1463 173.191 38.6341 173.388 38.1687C173.585 37.7032 173.918 37.3053 174.347 37.0255C174.775 36.7455 175.279 36.5962 175.794 36.5962C176.484 36.5962 177.147 36.8646 177.635 37.3422C178.124 37.8199 178.399 38.4679 178.399 39.1435Z" fill="white" stroke="#263238" stroke-width="0.972763" stroke-linecap="round" stroke-linejoin="round"/>
<path d="M169.159 39.1435C169.159 39.6473 169.005 40.1397 168.719 40.5586C168.433 40.9775 168.026 41.304 167.551 41.4968C167.075 41.6896 166.551 41.7401 166.046 41.6417C165.54 41.5435 165.076 41.3009 164.712 40.9446C164.348 40.5884 164.1 40.1345 163.999 39.6404C163.899 39.1463 163.95 38.6341 164.148 38.1687C164.344 37.7032 164.678 37.3053 165.107 37.0255C165.535 36.7455 166.039 36.5962 166.554 36.5962C167.244 36.5962 167.907 36.8646 168.395 37.3422C168.883 37.8199 169.159 38.4679 169.159 39.1435Z" fill="white" stroke="#263238" stroke-width="0.972763" stroke-linecap="round" stroke-linejoin="round"/>
<path d="M179.819 51.2175H173.047" stroke="#263238" stroke-width="1.94553" stroke-linecap="round" stroke-linejoin="round"/>
<path d="M179.819 53.905H173.047" stroke="#263238" stroke-width="1.94553" stroke-linecap="round" stroke-linejoin="round"/>
<path d="M179.819 56.5925H173.047" stroke="#263238" stroke-width="1.94553" stroke-linecap="round" stroke-linejoin="round"/>
<path d="M25.791 120.682H77.0532" stroke="#263238" stroke-width="1.94553" stroke-linecap="round" stroke-linejoin="round"/>
<path d="M25.791 124.636H77.0532" stroke="#263238" stroke-width="1.94553" stroke-linecap="round" stroke-linejoin="round"/>
<path d="M25.791 128.66H66.2121" stroke="#263238" stroke-width="1.94553" stroke-linecap="round" stroke-linejoin="round"/>
<path d="M134.492 47.4922V47.8106" stroke="#263238" stroke-width="0.972763" stroke-linecap="round" stroke-linejoin="round"/>
<path d="M134.492 49.7212V160.673" stroke="#263238" stroke-width="0.972763" stroke-linecap="round" stroke-linejoin="round" stroke-dasharray="0.97 2.92"/>
<path d="M134.492 161.628V161.947" stroke="#263238" stroke-width="0.972763" stroke-linecap="round" stroke-linejoin="round"/>
<path d="M16.0039 137.493H16.3295" stroke="#263238" stroke-width="0.972763" stroke-linecap="round" stroke-linejoin="round"/>
<path d="M18.2734 137.493H181.078" stroke="#263238" stroke-width="0.972763" stroke-linecap="round" stroke-linejoin="round" stroke-dasharray="0.97 2.91"/>
<path d="M182.059 137.493H182.384" stroke="#263238" stroke-width="0.972763" stroke-linecap="round" stroke-linejoin="round"/>
<path d="M135.621 136.392H133.375V138.589H135.621V136.392Z" fill="white" stroke="#263238" stroke-width="0.972763" stroke-linecap="round" stroke-linejoin="round"/>
<path d="M125.528 116.389H95.5371" stroke="#263238" stroke-width="0.972763" stroke-linecap="round" stroke-linejoin="round"/>
<path d="M126.105 129.953C126.105 129.953 126.105 116.319 110.53 116.319C94.9558 116.319 94.9297 129.953 94.9297 129.953" stroke="#263238" stroke-width="0.972763" stroke-linecap="round" stroke-linejoin="round"/>
<path d="M126.106 131.24C126.833 131.24 127.421 130.664 127.421 129.953C127.421 129.243 126.833 128.667 126.106 128.667C125.38 128.667 124.791 129.243 124.791 129.953C124.791 130.664 125.38 131.24 126.106 131.24Z" fill="#DA251C" stroke="#263238" stroke-width="0.972763" stroke-linecap="round" stroke-linejoin="round"/>
<path d="M93.627 129.953C93.627 129.701 93.7033 129.455 93.8464 129.246C93.9895 129.037 94.1928 128.874 94.4308 128.777C94.6688 128.681 94.9305 128.656 95.1832 128.704C95.4358 128.754 95.6678 128.875 95.85 129.053C96.0321 129.232 96.1561 129.458 96.2063 129.705C96.2566 129.952 96.2308 130.208 96.1322 130.441C96.0337 130.674 95.8667 130.873 95.6526 131.013C95.4384 131.153 95.1867 131.228 94.9292 131.228C94.5838 131.228 94.2525 131.093 94.0084 130.854C93.7641 130.616 93.627 130.292 93.627 129.953Z" fill="#DA251C" stroke="#263238" stroke-width="0.972763" stroke-linecap="round" stroke-linejoin="round"/>
<path d="M124.955 117.447H127.26V115.193H124.955V117.447Z" fill="#DA251C" stroke="#263238" stroke-width="0.972763" stroke-linecap="round" stroke-linejoin="round"/>
<path d="M109.379 117.447H111.683V115.193H109.379V117.447Z" fill="#DA251C" stroke="#263238" stroke-width="0.972763" stroke-linecap="round" stroke-linejoin="round"/>
<path d="M93.8066 117.447H96.1116V115.193H93.8066V117.447Z" fill="#DA251C" stroke="#263238" stroke-width="0.972763" stroke-linecap="round" stroke-linejoin="round"/>
<path d="M44.422 75.3974V70.8888L40.9777 70.6022C40.7732 69.8976 40.487 69.2181 40.1246 68.5771L42.3515 65.9917L39.0959 62.8075L36.4458 64.9855C35.7927 64.6265 35.0975 64.3464 34.3753 64.1512L34.0758 60.7761H29.479L29.1795 64.1512C28.4591 64.3456 27.7659 64.6257 27.1154 64.9855L24.4654 62.8075L21.2099 65.9917L23.4367 68.5771C23.0716 69.2169 22.7853 69.8966 22.5837 70.6022L19.1328 70.8888V75.3974L22.5837 75.684C22.7865 76.3892 23.0727 77.0688 23.4367 77.7091L21.2099 80.2945L24.4654 83.4787L27.1154 81.3007C27.7618 81.6595 28.4506 81.9396 29.1665 82.135L29.466 85.5101H34.0693L34.3688 82.135C35.0887 81.9394 35.7818 81.6592 36.4329 81.3007L39.0829 83.4787L42.3385 80.2945L40.1117 77.7091C40.4729 77.0676 40.759 76.3882 40.9646 75.684L44.422 75.3974ZM31.7709 78.3778C30.7124 78.3778 29.6776 78.0707 28.7974 77.4956C27.9172 76.9204 27.2313 76.1028 26.8262 75.1464C26.421 74.1898 26.3151 73.1373 26.5216 72.1218C26.7281 71.1065 27.2379 70.1737 27.9864 69.4417C28.7349 68.7096 29.6886 68.211 30.7268 68.009C31.765 67.8071 32.8411 67.9107 33.8191 68.307C34.797 68.7032 35.6329 69.3741 36.221 70.2349C36.8092 71.0958 37.1231 72.1078 37.1231 73.1431C37.1231 74.5314 36.5592 75.8629 35.5555 76.8445C34.5517 77.8262 33.1904 78.3778 31.7709 78.3778Z" fill="#DA251C" stroke="#263238" stroke-width="0.972763" stroke-linecap="round" stroke-linejoin="round"/>
<path d="M60.0767 85.4975V82.4154L57.7132 82.2116C57.5772 81.73 57.3826 81.266 57.1337 80.8297L58.6573 79.0594L56.424 76.8814L54.6139 78.3715C54.1667 78.1286 53.6927 77.9364 53.2009 77.7985L52.9991 75.4805H49.8477L49.6394 77.792C49.1477 77.93 48.6737 78.1223 48.2265 78.3652L46.4164 76.875L44.183 79.0529L45.7132 80.8233C45.4594 81.2581 45.2625 81.7224 45.1272 82.2052L42.7637 82.409V85.4912L45.1272 85.6885C45.2613 86.1718 45.4582 86.6362 45.7132 87.0704L44.183 88.8535L46.4164 91.0314L48.2265 89.5414C48.6737 89.7843 49.1477 89.9766 49.6394 90.1144L49.8477 92.4198H52.9991L53.2009 90.1144C53.6927 89.9766 54.1667 89.7843 54.6139 89.5414L56.424 91.0314L58.6573 88.8535L57.1662 87.0769C57.4164 86.6411 57.6109 86.177 57.7458 85.695L60.0767 85.4975ZM51.4234 87.5353C50.6978 87.5366 49.9882 87.3273 49.3844 86.9338C48.7806 86.5403 48.3097 85.9805 48.0315 85.325C47.7532 84.6697 47.68 83.9483 47.8213 83.2522C47.9625 82.5561 48.3118 81.9167 48.8249 81.4149C49.3379 80.9131 49.9917 80.5715 50.7034 80.4334C51.415 80.2953 52.1527 80.3667 52.8227 80.6389C53.4929 80.9111 54.0653 81.3716 54.4676 81.9622C54.8699 82.5527 55.084 83.2468 55.0827 83.9564C55.081 84.9051 54.6949 85.8144 54.009 86.4852C53.3231 87.156 52.3934 87.5337 51.4234 87.5353Z" fill="#DA251C" stroke="#263238" stroke-width="0.972763" stroke-linecap="round" stroke-linejoin="round"/>
<path d="M140.926 144.982H166.144" stroke="#263238" stroke-width="1.94553" stroke-linecap="round" stroke-linejoin="round"/>
<path d="M140.926 148.937H166.144" stroke="#263238" stroke-width="1.94553" stroke-linecap="round" stroke-linejoin="round"/>
<path d="M140.926 152.962H155.302" stroke="#263238" stroke-width="1.94553" stroke-linecap="round" stroke-linejoin="round"/>
<path d="M107.698 154.605H94.4216C93.5581 154.605 92.73 154.269 92.1195 153.672C91.509 153.075 91.166 152.266 91.166 151.42C91.166 150.576 91.509 149.766 92.1195 149.169C92.73 148.572 93.5581 148.236 94.4216 148.236H107.698C108.561 148.236 109.389 148.572 110 149.169C110.61 149.766 110.953 150.576 110.953 151.42C110.953 152.266 110.61 153.075 110 153.672C109.389 154.269 108.561 154.605 107.698 154.605Z" fill="#DA251C" stroke="#263238" stroke-width="0.972763" stroke-linecap="round" stroke-linejoin="round"/>
<path d="M132.444 154.605H119.168C118.304 154.605 117.476 154.269 116.865 153.672C116.255 153.075 115.912 152.266 115.912 151.42C115.912 150.576 116.255 149.766 116.865 149.169C117.476 148.572 118.304 148.236 119.168 148.236H132.444C133.307 148.236 134.135 148.572 134.746 149.169C135.357 149.766 135.699 150.576 135.699 151.42C135.699 152.266 135.357 153.075 134.746 153.672C134.135 154.269 133.307 154.605 132.444 154.605Z" fill="#DA251C" stroke="#263238" stroke-width="0.972763" stroke-linecap="round" stroke-linejoin="round"/>
<path d="M170.924 86.2871H142.77V113.823H170.924V86.2871Z" fill="white" stroke="#263238" stroke-width="0.972763" stroke-linecap="round" stroke-linejoin="round"/>
<path d="M142.77 86.2871L170.924 113.823" stroke="#263238" stroke-width="0.972763" stroke-linecap="round" stroke-linejoin="round"/>
<path d="M170.924 86.2871L142.77 113.823" stroke="#263238" stroke-width="0.972763" stroke-linecap="round" stroke-linejoin="round"/>
<path d="M153.812 55.0256V61.4511L150.914 64.2849H144.344V55.0256H153.812Z" fill="white" stroke="#263238" stroke-width="0.972763" stroke-linecap="round" stroke-linejoin="round"/>
<path d="M153.814 61.4512L150.916 64.285V61.4512H153.814Z" fill="white" stroke="#263238" stroke-width="0.972763" stroke-linecap="round" stroke-linejoin="round"/>
<path d="M53.1274 104.717V111.142L50.2299 113.983H43.6602V104.717H53.1274Z" fill="white" stroke="#263238" stroke-width="0.972763" stroke-linecap="round" stroke-linejoin="round"/>
<path d="M53.1299 111.142L50.2324 113.983V111.142H53.1299Z" fill="white" stroke="#263238" stroke-width="0.972763" stroke-linecap="round" stroke-linejoin="round"/>
<path d="M17.3565 144.307V150.732L14.459 153.567H7.88281V144.307H17.3565Z" fill="white" stroke="#263238" stroke-width="0.972763" stroke-linecap="round" stroke-linejoin="round"/>
<path d="M17.3583 150.732L14.4609 153.567V150.732H17.3583Z" fill="white" stroke="#263238" stroke-width="0.972763" stroke-linecap="round" stroke-linejoin="round"/>
<path d="M201.495 69.9272H166.557V91.3434H201.495V69.9272Z" fill="#323232" stroke="#263238" stroke-width="0.972763" stroke-linecap="round" stroke-linejoin="round"/>
<path d="M201.495 69.9272H166.557V73.1813H201.495V69.9272Z" fill="#DA251C" stroke="#263238" stroke-width="0.972763" stroke-linecap="round" stroke-linejoin="round"/>
<path d="M170.117 75.926H179.05" stroke="white" stroke-width="0.972763" stroke-linecap="round" stroke-linejoin="round"/>
<path d="M174.582 78.365H190.04" stroke="white" stroke-width="0.972763" stroke-linecap="round" stroke-linejoin="round"/>
<path d="M172.611 80.6384H177.163" stroke="white" stroke-width="0.972763" stroke-linecap="round" stroke-linejoin="round"/>
<path d="M174.582 83.3196H184.994" stroke="white" stroke-width="0.972763" stroke-linecap="round" stroke-linejoin="round"/>
<path d="M170.117 85.7522H179.05" stroke="white" stroke-width="0.972763" stroke-linecap="round" stroke-linejoin="round"/>
<path d="M70.0911 156.094H35.1523V177.511H70.0911V156.094Z" fill="#323232" stroke="#263238" stroke-width="0.972763" stroke-linecap="round" stroke-linejoin="round"/>
<path d="M70.0911 156.094H35.1523V159.349H70.0911V156.094Z" fill="#DA251C" stroke="#263238" stroke-width="0.972763" stroke-linecap="round" stroke-linejoin="round"/>
<path d="M38.7207 162.1H47.6475" stroke="white" stroke-width="0.972763" stroke-linecap="round" stroke-linejoin="round"/>
<path d="M43.1816 164.533H58.6391" stroke="white" stroke-width="0.972763" stroke-linecap="round" stroke-linejoin="round"/>
<path d="M41.2109 166.806H45.7622" stroke="white" stroke-width="0.972763" stroke-linecap="round" stroke-linejoin="round"/>
<path d="M43.1816 169.487H53.593" stroke="white" stroke-width="0.972763" stroke-linecap="round" stroke-linejoin="round"/>
<path d="M38.7207 171.926H47.6475" stroke="white" stroke-width="0.972763" stroke-linecap="round" stroke-linejoin="round"/>
<path d="M83.2107 0.972656H51.1108C50.7349 0.974329 50.3748 1.12113 50.109 1.38112C49.8432 1.64111 49.6931 1.99324 49.6914 2.36091V17.0077C49.6931 17.3748 49.8434 17.7263 50.1094 17.9852C50.3754 18.2442 50.7355 18.3896 51.1108 18.3896H65.5004L67.1412 24.1209L68.7885 18.3896H83.2107C83.586 18.3896 83.9461 18.2442 84.212 17.9852C84.4781 17.7263 84.6284 17.3748 84.63 17.0077V2.36091C84.6284 1.99324 84.4783 1.64111 84.2124 1.38112C83.9467 1.12113 83.5865 0.974329 83.2107 0.972656Z" fill="#DA251C" stroke="#263238" stroke-width="0.972763" stroke-linecap="round" stroke-linejoin="round"/>
<path d="M55.0176 5.16309H79.2715" stroke="#263238" stroke-width="1.94553" stroke-linecap="round" stroke-linejoin="round"/>
<path d="M55.0176 8.1687H79.2715" stroke="#263238" stroke-width="1.94553" stroke-linecap="round" stroke-linejoin="round"/>
<path d="M55.0176 11.1746H79.2715" stroke="#263238" stroke-width="1.94553" stroke-linecap="round" stroke-linejoin="round"/>
<path d="M55.0176 14.1804H73.2943" stroke="#263238" stroke-width="1.94553" stroke-linecap="round" stroke-linejoin="round"/>
<path d="M135.865 105.143C132.421 105.43 128.052 101.405 128.052 101.405C127.969 101.489 127.865 101.554 127.752 101.593C127.639 101.632 127.517 101.645 127.398 101.629C127.278 101.615 127.164 101.573 127.064 101.508C126.964 101.442 126.881 101.355 126.822 101.252C126.261 100.463 123.832 98.6352 123.696 97.0556C123.559 95.4762 126.424 92.9163 126.424 92.9163C124.217 93.5021 123.982 92.2349 123.982 92.2349C123.982 92.2349 127.7 89.2355 129.003 89.1527C129.51 89.1209 131.724 90.369 133.866 92.0502C136.107 93.8142 140.313 100.023 140.313 100.023C140.313 100.023 154.54 110.129 158.134 112.715C162.88 116.128 168.506 122.185 168.506 122.185C168.506 122.185 187.388 130.514 192.597 135.092L185.552 151.408C185.552 151.408 168.382 140.156 166.67 137.302C164.957 134.449 163.238 136.162 161.519 134.297C159.8 132.431 158.153 130.298 158.153 130.298C155.096 128.854 152.322 126.897 149.956 124.516C145.944 120.484 142.409 114.326 140.188 110.62C139.04 108.59 137.581 106.744 135.865 105.143Z" fill="white" stroke="#263238" stroke-width="0.972763" stroke-linecap="round" stroke-linejoin="round"/>
<path d="M136.912 102.762C136.912 102.762 131.789 101.545 131.345 98.2402C131.15 97.4017 130.775 96.6142 130.245 95.9283C130.245 95.9283 125.466 95.699 125.765 93.795L132.147 93.241C134.469 94.1137 136.425 95.7238 137.7 97.8131" fill="white"/>
<path d="M136.912 102.762C136.912 102.762 131.789 101.545 131.345 98.2402C131.15 97.4017 130.775 96.6142 130.245 95.9283C130.245 95.9283 125.466 95.699 125.765 93.795L132.147 93.241C134.469 94.1137 136.425 95.7238 137.7 97.8131" stroke="#263238" stroke-width="0.972763" stroke-linecap="round" stroke-linejoin="round"/>
<path d="M128.043 101.405C128.27 100.992 128.345 100.516 128.258 100.056C128.258 100.056 129.664 99.8006 129.508 98.5837C129.508 98.5837 131.592 98.3357 130.243 95.9285" stroke="#263238" stroke-width="0.972763" stroke-linecap="round" stroke-linejoin="round"/>
<path d="M129.508 98.5837C129.508 98.5837 126.702 96.5526 126.389 95.6228" stroke="#263238" stroke-width="0.972763" stroke-linecap="round" stroke-linejoin="round"/>
<path d="M128.256 100.055C128.256 100.055 125.267 98.2712 125.215 97.2336" stroke="#263238" stroke-width="0.972763" stroke-linecap="round" stroke-linejoin="round"/>
<path d="M128.94 90.8975C128.94 90.8975 127.99 92.5659 126.414 92.9162" stroke="#263238" stroke-width="0.972763" stroke-linecap="round" stroke-linejoin="round"/>
<path d="M128.469 91.5471C128.969 91.8024 129.44 92.1075 129.875 92.4577" stroke="#263238" stroke-width="0.972763" stroke-linecap="round" stroke-linejoin="round"/>
<path d="M237.599 147.95C230.232 144.901 222.631 142.417 214.869 140.524C203.435 137.908 184.917 135.57 184.917 135.57C184.917 135.57 190.009 186.388 188.667 189.445C187.327 192.502 179.279 202.768 179.279 202.768C179.279 202.768 222.832 219.376 230.424 220.789C238.016 222.202 234.057 196.431 234.057 196.431C234.057 196.431 242.079 163.673 237.599 147.95Z" fill="#323232"/>
<path d="M221.964 142.492C221.964 142.492 222.999 144.403 220.277 145.403C213.226 147.95 205.712 145.702 206.514 143.002C206.819 141.97 208.564 143.002 208.467 139.181C208.418 138.592 208.257 138.017 207.991 137.487C207.494 136.453 206.894 135.471 206.201 134.551C205.449 133.528 204.642 132.544 203.785 131.603C203.785 131.603 214.978 124.598 223.279 131.603C223.267 131.571 220.18 133.099 221.964 142.492Z" fill="white" stroke="#263238" stroke-width="0.972763" stroke-linecap="round" stroke-linejoin="round"/>
<path d="M235.835 233.003C231.428 240.008 209.062 243.326 196.854 243.014C184.645 242.701 149.517 226.456 147.135 222.992C144.927 219.808 139.504 209.256 147.864 202.881C148.573 202.346 149.327 201.869 150.116 201.455C155.84 198.424 193.904 207.982 193.904 207.982C193.904 207.982 196.261 206.524 197.127 206.632C199.784 206.964 201.685 209.065 207.05 210.561C210.807 211.613 221.062 207.575 227.612 211.046C228.339 211.426 229.009 211.902 229.605 212.459C235.725 218.178 240.237 225.979 235.835 233.003Z" fill="#DA251C"/>
<mask id="mask0_7652_12556" style="mask-type:luminance" maskUnits="userSpaceOnUse" x="143" y="200" width="95" height="44">
<path d="M235.841 233.003C231.434 240.008 209.068 243.326 196.86 243.014C184.651 242.701 149.523 226.456 147.14 222.992C144.933 219.808 139.51 209.256 147.87 202.881C148.579 202.346 149.333 201.869 150.122 201.455C155.846 198.424 193.909 207.982 193.909 207.982C193.909 207.982 196.266 206.524 197.133 206.632C199.79 206.964 201.691 209.065 207.055 210.561C210.813 211.613 221.068 207.575 227.618 211.046C228.345 211.426 229.015 211.902 229.611 212.459C235.73 218.178 240.243 225.979 235.841 233.003Z" fill="white"/>
</mask>
<g mask="url(#mask0_7652_12556)">
<path opacity="0.3" d="M227.609 211.046C220.896 210.606 214.913 211.982 210.733 214.395C205.778 217.261 182.377 228.284 182.377 228.284C182.428 227.1 183.731 224.712 183.731 224.712C181.53 222.802 175.774 221.305 175.774 221.305C171.314 217.58 153.637 206.467 147.861 202.882C148.57 202.346 149.323 201.869 150.114 201.455C155.837 198.424 193.901 207.983 193.901 207.983C193.901 207.983 196.258 206.525 197.124 206.632C199.781 206.964 201.682 209.065 207.047 210.561C210.823 211.613 221.059 207.575 227.609 211.046Z" fill="black" fill-opacity="0.7"/>
</g>
<path d="M235.835 233.003C231.428 240.008 209.062 243.326 196.854 243.014C184.645 242.701 149.517 226.456 147.135 222.992C144.927 219.808 139.504 209.256 147.864 202.881C148.573 202.346 149.327 201.869 150.116 201.455C155.84 198.424 193.904 207.982 193.904 207.982C193.904 207.982 196.261 206.524 197.127 206.632C199.784 206.964 201.685 209.065 207.05 210.561C210.807 211.613 221.062 207.575 227.612 211.046C228.339 211.426 229.009 211.902 229.605 212.459C235.725 218.178 240.237 225.979 235.835 233.003Z" stroke="#263238" stroke-width="0.972763" stroke-linecap="round" stroke-linejoin="round"/>
<path d="M228.975 239.346L229.535 241.747C229.535 241.747 228.037 245.899 221.455 246.58C214.872 247.262 210.971 248.682 207.782 248.867C206.113 248.995 204.437 248.97 202.774 248.79L202.123 247.847L228.975 239.346Z" fill="white" stroke="#263238" stroke-width="0.972763" stroke-linecap="round" stroke-linejoin="round"/>
<path d="M190.744 239.091L202.152 247.847C207.65 247.388 213.113 246.588 218.508 245.453C223.911 244.231 228.632 242.479 228.886 240.072C229.283 236.416 225.285 235.416 220.539 235.556C219.654 235.556 218.741 235.646 217.824 235.735C210.225 236.531 200.562 232.43 200.562 232.43L190.744 239.091Z" fill="#263238"/>
<mask id="mask1_7652_12556" style="mask-type:luminance" maskUnits="userSpaceOnUse" x="190" y="232" width="39" height="16">
<path d="M190.746 239.091L202.154 247.847C207.652 247.388 213.115 246.588 218.509 245.453C223.913 244.231 228.634 242.479 228.888 240.072C229.285 236.416 225.287 235.416 220.541 235.556C219.656 235.556 218.743 235.646 217.826 235.735C210.227 236.531 200.564 232.43 200.564 232.43L190.746 239.091Z" fill="white"/>
</mask>
<g mask="url(#mask1_7652_12556)">
<path opacity="0.3" d="M228.895 239.982C226.68 240.788 224.555 241.812 222.553 243.039C222.553 243.039 211.959 248.37 195.675 242.88L190.746 239.091L200.564 232.424C200.564 232.424 210.221 236.531 217.826 235.729C218.743 235.633 219.656 235.569 220.541 235.551C225.255 235.41 229.22 236.391 228.895 239.982Z" fill="black" fill-opacity="0.7"/>
</g>
<path d="M190.744 239.091L202.152 247.847C207.65 247.388 213.113 246.588 218.508 245.453C223.911 244.231 228.632 242.479 228.886 240.072C229.283 236.416 225.285 235.416 220.539 235.556C219.654 235.556 218.741 235.646 217.824 235.735C210.225 236.531 200.562 232.43 200.562 232.43L190.744 239.091Z" stroke="#263238" stroke-width="0.972763" stroke-linecap="round" stroke-linejoin="round"/>
<path d="M201.377 242.543C199.32 242.868 201.579 247 204.366 245.727C207.153 244.453 203.435 242.211 201.377 242.543Z" fill="white"/>
<mask id="mask2_7652_12556" style="mask-type:luminance" maskUnits="userSpaceOnUse" x="200" y="242" width="6" height="4">
<path d="M201.375 242.543C199.318 242.868 201.577 247 204.364 245.727C207.151 244.453 203.433 242.211 201.375 242.543Z" fill="white"/>
</mask>
<g mask="url(#mask2_7652_12556)">
<path opacity="0.2" d="M205.237 245.071C203.746 244.893 202.266 244.64 200.803 244.313C200.412 243.504 200.503 242.676 201.376 242.543C203.102 242.263 206.005 243.823 205.237 245.071Z" fill="black" fill-opacity="0.7"/>
</g>
<path d="M201.377 242.543C199.32 242.868 201.579 247 204.366 245.727C207.153 244.453 203.435 242.211 201.377 242.543Z" stroke="#263238" stroke-width="0.972763" stroke-linecap="round" stroke-linejoin="round"/>
<path d="M218.511 245.447C223.916 244.224 228.636 242.473 228.89 240.065C229.287 236.411 225.289 235.411 220.543 235.551C220.335 235.748 215.731 240.097 218.511 245.447Z" fill="white"/>
<mask id="mask3_7652_12556" style="mask-type:luminance" maskUnits="userSpaceOnUse" x="217" y="235" width="12" height="11">
<path d="M218.509 245.446C223.914 244.224 228.634 242.473 228.888 240.065C229.285 236.41 225.287 235.41 220.541 235.55C220.333 235.748 215.729 240.097 218.509 245.446Z" fill="white"/>
</mask>
<g mask="url(#mask3_7652_12556)">
<path opacity="0.3" d="M228.893 239.982C226.679 240.788 224.553 241.812 222.551 243.039C221.124 243.685 219.628 244.173 218.091 244.497C216.268 239.594 220.344 235.735 220.54 235.55C225.254 235.41 229.219 236.391 228.893 239.982Z" fill="black" fill-opacity="0.7"/>
</g>
<path d="M218.511 245.447C223.916 244.224 228.636 242.473 228.89 240.065C229.287 236.411 225.289 235.411 220.543 235.551C220.335 235.748 215.731 240.097 218.511 245.447Z" stroke="#263238" stroke-width="0.972763" stroke-linecap="round" stroke-linejoin="round"/>
<path d="M214.654 240.906H214.687C214.761 240.91 214.835 240.899 214.905 240.874C214.974 240.849 215.038 240.811 215.092 240.762C215.147 240.712 215.191 240.653 215.222 240.588C215.253 240.521 215.27 240.45 215.272 240.377C215.457 238.813 216.14 237.344 217.226 236.181C217.278 236.13 217.32 236.069 217.348 236.003C217.376 235.936 217.391 235.865 217.391 235.793C217.391 235.72 217.376 235.649 217.348 235.582C217.32 235.516 217.278 235.455 217.226 235.404C217.12 235.303 216.978 235.245 216.829 235.245C216.68 235.245 216.538 235.303 216.432 235.404C215.155 236.758 214.362 238.481 214.172 240.314C214.159 240.454 214.202 240.594 214.292 240.704C214.381 240.815 214.512 240.887 214.654 240.906Z" fill="white" stroke="#263238" stroke-width="0.972763" stroke-linecap="round" stroke-linejoin="round"/>
<path d="M212.393 241.052H212.439C212.513 241.054 212.586 241.042 212.655 241.016C212.724 240.988 212.787 240.949 212.84 240.899C212.894 240.848 212.936 240.788 212.966 240.722C212.995 240.656 213.011 240.584 213.012 240.512C213.14 238.921 213.742 237.403 214.743 236.143C214.798 236.087 214.84 236.022 214.868 235.95C214.896 235.878 214.908 235.801 214.903 235.726C214.899 235.649 214.878 235.574 214.842 235.505C214.807 235.437 214.758 235.376 214.697 235.328C214.636 235.279 214.566 235.243 214.49 235.223C214.415 235.201 214.336 235.196 214.258 235.207C214.18 235.218 214.106 235.244 214.039 235.285C213.973 235.325 213.915 235.379 213.871 235.443C212.708 236.892 212.017 238.648 211.885 240.485C211.879 240.625 211.929 240.763 212.023 240.868C212.118 240.974 212.25 241.04 212.393 241.052Z" fill="white" stroke="#263238" stroke-width="0.972763" stroke-linecap="round" stroke-linejoin="round"/>
<path d="M209.691 240.76C209.764 240.766 209.839 240.76 209.909 240.738C209.98 240.717 210.046 240.682 210.103 240.636C210.16 240.589 210.207 240.533 210.241 240.469C210.276 240.405 210.296 240.335 210.303 240.263C210.479 238.352 212.159 235.85 212.179 235.805C212.26 235.682 212.29 235.533 212.261 235.389C212.232 235.244 212.147 235.118 212.022 235.035C211.897 234.954 211.746 234.925 211.599 234.954C211.453 234.982 211.325 235.066 211.241 235.188C211.163 235.296 209.378 237.919 209.177 240.135C209.167 240.21 209.172 240.285 209.193 240.357C209.214 240.43 209.25 240.497 209.297 240.555C209.345 240.614 209.405 240.661 209.472 240.696C209.54 240.731 209.614 240.753 209.691 240.76Z" fill="white" stroke="#263238" stroke-width="0.972763" stroke-linecap="round" stroke-linejoin="round"/>
<path d="M207.141 240.498C207.191 240.505 207.241 240.505 207.291 240.498C207.364 240.487 207.435 240.461 207.498 240.423C207.561 240.384 207.616 240.334 207.659 240.275C207.702 240.216 207.733 240.149 207.748 240.078C207.765 240.007 207.767 239.933 207.753 239.862C207.356 237.518 209.583 235.513 209.602 235.493C209.676 235.391 209.712 235.268 209.706 235.143C209.699 235.018 209.649 234.9 209.565 234.806C209.481 234.713 209.366 234.65 209.241 234.627C209.115 234.606 208.986 234.625 208.874 234.685C208.763 234.78 206.165 237.111 206.666 240.059C206.69 240.171 206.748 240.273 206.833 240.351C206.919 240.43 207.026 240.481 207.141 240.498Z" fill="white" stroke="#263238" stroke-width="0.972763" stroke-linecap="round" stroke-linejoin="round"/>
<path d="M204.367 239.842C204.427 239.852 204.49 239.852 204.55 239.842C204.69 239.809 204.812 239.725 204.89 239.606C204.969 239.488 204.998 239.344 204.973 239.205C204.485 237.117 206.588 234.748 206.613 234.748C206.711 234.638 206.76 234.494 206.75 234.349C206.741 234.203 206.673 234.068 206.562 233.971C206.506 233.923 206.442 233.885 206.373 233.862C206.303 233.838 206.229 233.827 206.155 233.832C206.081 233.836 206.009 233.854 205.942 233.885C205.876 233.917 205.817 233.961 205.767 234.016C205.663 234.13 203.254 236.824 203.873 239.473C203.908 239.576 203.974 239.665 204.063 239.732C204.151 239.797 204.257 239.836 204.367 239.842Z" fill="white" stroke="#263238" stroke-width="0.972763" stroke-linecap="round" stroke-linejoin="round"/>
<path d="M145.712 235.754L144.898 238.085C144.898 238.085 145.94 242.371 152.412 243.721C158.884 245.071 162.609 246.905 165.734 247.402C167.379 247.697 169.048 247.842 170.721 247.835L171.47 246.962L145.712 235.754Z" fill="white" stroke="#263238" stroke-width="0.972763" stroke-linecap="round" stroke-linejoin="round"/>
<path d="M183.733 239.429L171.453 246.962C166.034 245.942 160.686 244.586 155.442 242.906C150.201 241.135 145.676 238.907 145.676 236.486C145.676 232.805 149.757 232.227 154.466 232.85C155.344 232.965 156.243 233.124 157.148 233.308C164.616 234.881 174.663 231.793 174.663 231.793L183.733 239.429Z" fill="#263238"/>
<mask id="mask4_7652_12556" style="mask-type:luminance" maskUnits="userSpaceOnUse" x="145" y="231" width="39" height="16">
<path d="M183.737 239.429L171.457 246.962C166.038 245.942 160.69 244.586 155.446 242.906C150.204 241.135 145.68 238.907 145.68 236.486C145.68 232.805 149.761 232.227 154.47 232.85C155.348 232.965 156.247 233.124 157.151 233.308C164.62 234.881 174.667 231.793 174.667 231.793L183.737 239.429Z" fill="white"/>
</mask>
<g mask="url(#mask4_7652_12556)">
<path opacity="0.3" d="M183.737 239.429L176.516 243.886C170.661 242.108 165.526 238.572 161.84 233.78C166.192 233.687 170.513 233.024 174.686 231.812L183.737 239.429Z" fill="black" fill-opacity="0.7"/>
</g>
<path d="M183.733 239.429L171.453 246.962C166.034 245.942 160.686 244.586 155.442 242.906C150.201 241.135 145.676 238.907 145.676 236.486C145.676 232.805 149.757 232.227 154.466 232.85C155.344 232.965 156.243 233.124 157.148 233.308C164.616 234.881 174.663 231.793 174.663 231.793L183.733 239.429Z" stroke="#263238" stroke-width="0.972763" stroke-linecap="round" stroke-linejoin="round"/>
<path d="M155.442 242.899C150.201 241.129 145.676 238.9 145.676 236.481C145.676 232.8 149.757 232.22 154.466 232.844C154.674 233.06 158.783 237.869 155.442 242.899Z" fill="white" stroke="#263238" stroke-width="0.972763" stroke-linecap="round" stroke-linejoin="round"/>
<path d="M159.765 238.779H159.733C159.583 238.769 159.443 238.702 159.343 238.592C159.244 238.483 159.191 238.339 159.199 238.194C159.188 236.622 158.671 235.092 157.721 233.825C157.665 233.769 157.622 233.702 157.595 233.629C157.568 233.556 157.556 233.48 157.562 233.402C157.567 233.324 157.589 233.249 157.626 233.18C157.663 233.111 157.715 233.051 157.777 233.003C157.839 232.955 157.911 232.92 157.988 232.902C158.065 232.882 158.146 232.879 158.224 232.893C158.301 232.906 158.376 232.935 158.442 232.979C158.509 233.021 158.564 233.078 158.607 233.143C159.73 234.614 160.333 236.402 160.326 238.237C160.324 238.382 160.263 238.519 160.159 238.621C160.054 238.723 159.912 238.779 159.765 238.779Z" fill="white" stroke="#263238" stroke-width="0.972763" stroke-linecap="round" stroke-linejoin="round"/>
<path d="M161.992 239.142H161.94C161.791 239.129 161.653 239.058 161.556 238.947C161.46 238.835 161.412 238.69 161.425 238.544C161.472 236.951 161.04 235.382 160.182 234.028C160.139 233.968 160.109 233.901 160.093 233.829C160.077 233.757 160.076 233.683 160.09 233.611C160.102 233.539 160.13 233.47 160.17 233.409C160.211 233.346 160.264 233.294 160.325 233.252C160.387 233.21 160.456 233.18 160.529 233.164C160.602 233.149 160.678 233.148 160.752 233.161C160.826 233.174 160.896 233.2 160.959 233.24C161.022 233.28 161.077 233.332 161.12 233.392C162.126 234.95 162.625 236.771 162.552 238.614C162.546 238.755 162.483 238.888 162.379 238.986C162.275 239.085 162.137 239.141 161.992 239.142Z" fill="white" stroke="#263238" stroke-width="0.972763" stroke-linecap="round" stroke-linejoin="round"/>
<path d="M164.713 239.142C164.563 239.139 164.421 239.078 164.316 238.974C164.212 238.869 164.153 238.729 164.154 238.582C164.193 236.639 162.786 234.01 162.767 233.983C162.698 233.853 162.684 233.7 162.73 233.559C162.775 233.419 162.875 233.302 163.007 233.232C163.14 233.165 163.295 233.153 163.438 233.196C163.581 233.24 163.7 233.339 163.77 233.468C163.835 233.583 165.325 236.372 165.286 238.601C165.283 238.747 165.221 238.885 165.114 238.986C165.006 239.088 164.862 239.144 164.713 239.142Z" fill="white" stroke="#263238" stroke-width="0.972763" stroke-linecap="round" stroke-linejoin="round"/>
<path d="M167.279 239.142H167.129C166.985 239.102 166.864 239.008 166.79 238.88C166.717 238.753 166.698 238.602 166.738 238.461C167.39 236.174 165.391 233.945 165.371 233.926C165.314 233.873 165.269 233.81 165.239 233.74C165.209 233.669 165.194 233.593 165.195 233.517C165.196 233.441 165.214 233.366 165.246 233.297C165.278 233.227 165.325 233.164 165.383 233.114C165.441 233.062 165.51 233.023 165.583 233C165.657 232.976 165.736 232.967 165.814 232.974C165.891 232.98 165.967 233.003 166.035 233.04C166.104 233.077 166.163 233.127 166.211 233.188C166.308 233.296 168.646 235.881 167.826 238.76C167.788 238.872 167.714 238.969 167.616 239.038C167.517 239.106 167.4 239.143 167.279 239.142Z" fill="white" stroke="#263238" stroke-width="0.972763" stroke-linecap="round" stroke-linejoin="round"/>
<path d="M170.115 238.779C170.051 238.781 169.989 238.77 169.932 238.747C169.861 238.725 169.795 238.689 169.739 238.641C169.683 238.593 169.636 238.536 169.604 238.47C169.571 238.404 169.551 238.333 169.547 238.261C169.544 238.188 169.555 238.115 169.58 238.047C170.29 236.021 168.447 233.455 168.435 233.43C168.381 233.371 168.341 233.303 168.316 233.228C168.292 233.154 168.284 233.076 168.293 232.998C168.301 232.92 168.328 232.845 168.367 232.778C168.408 232.711 168.463 232.653 168.528 232.608C168.593 232.562 168.667 232.531 168.746 232.516C168.824 232.501 168.904 232.502 168.982 232.519C169.06 232.537 169.134 232.571 169.197 232.618C169.261 232.664 169.314 232.725 169.352 232.793C169.443 232.914 171.546 235.843 170.654 238.416C170.614 238.523 170.54 238.616 170.442 238.681C170.346 238.745 170.231 238.78 170.115 238.779Z" fill="white" stroke="#263238" stroke-width="0.972763" stroke-linecap="round" stroke-linejoin="round"/>
<path d="M172.788 241.765C174.8 242.307 172.137 246.159 169.474 244.631C166.811 243.103 170.783 241.23 172.788 241.765Z" fill="white" stroke="#263238" stroke-width="0.972763" stroke-linecap="round" stroke-linejoin="round"/>
<path d="M149.57 221.311C152.585 225.445 161.525 230.01 170.406 233.773C171.993 236.347 173.867 238.741 175.992 240.912C181.474 246.427 183.707 243.339 183.707 243.339C183.707 243.339 187.171 242.956 192.282 242.275C192.495 242.76 192.866 243.162 193.338 243.419C193.809 243.676 194.353 243.773 194.887 243.696C195.538 243.593 196.841 242.663 198.279 241.435C211.191 239.524 228.712 236.34 233.44 232.634" fill="#DA251C"/>
<path d="M149.57 221.311C152.585 225.445 161.525 230.01 170.406 233.773C171.993 236.347 173.867 238.741 175.992 240.912C181.474 246.427 183.707 243.339 183.707 243.339C183.707 243.339 187.171 242.956 192.282 242.275C192.495 242.76 192.866 243.162 193.338 243.419C193.809 243.676 194.353 243.773 194.887 243.696C195.538 243.593 196.841 242.663 198.279 241.435C211.191 239.524 228.712 236.34 233.44 232.634" stroke="#263238" stroke-width="0.972763" stroke-linecap="round" stroke-linejoin="round"/>
<path d="M228.407 213.441C226.173 211.039 223.94 210.931 219.252 211.256C219.252 211.256 207.017 215.077 198.481 220.101C189.945 225.125 177.496 230.456 177.496 230.456C177.496 230.456 173.7 229.379 171.056 230.456C171.056 230.456 169.201 230.596 170.444 233.767" stroke="#263238" stroke-width="0.972763" stroke-linecap="round" stroke-linejoin="round"/>
<path d="M234.084 227.788C234.084 227.788 234.149 231.487 228.783 234.048" stroke="#263238" stroke-width="0.972763" stroke-linecap="round" stroke-linejoin="round"/>
<path d="M174.908 212.351C174.908 212.351 183.373 218.337 185.073 222.286C186.736 222.972 188.343 223.782 189.878 224.712" stroke="#263238" stroke-width="0.972763" stroke-linecap="round" stroke-linejoin="round"/>
<path d="M185.688 217.325C186.309 219.046 186.412 220.903 185.987 222.68" stroke="#263238" stroke-width="0.972763" stroke-linecap="round" stroke-linejoin="round"/>
<path d="M183.734 213.441C184.195 214.096 184.6 214.789 184.945 215.51" stroke="#263238" stroke-width="0.972763" stroke-linecap="round" stroke-linejoin="round"/>
<path d="M195.789 212.893C195.789 212.893 198.622 216.599 199.325 219.605" stroke="#263238" stroke-width="0.972763" stroke-linecap="round" stroke-linejoin="round"/>
<path d="M211.57 235.283C212.624 235.223 213.672 235.094 214.708 234.901" stroke="#263238" stroke-width="0.972763" stroke-linecap="round" stroke-linejoin="round"/>
<path d="M184.994 232.627C193.019 234.182 201.161 235.096 209.338 235.359" stroke="#263238" stroke-width="0.972763" stroke-linecap="round" stroke-linejoin="round"/>
<path d="M242.288 176.473C242.288 176.473 240.757 202.583 238.953 204.079C237.149 205.576 234.304 206.04 228.92 206.479C223.535 206.919 199.718 208.345 199.718 208.345L197.152 200.863C197.152 200.863 209.816 199.589 215.435 197.584C219.672 196.167 224.006 195.048 228.405 194.233C228.405 194.233 227.337 187.668 227.337 184.84V171.544" fill="white"/>
<path d="M242.288 176.473C242.288 176.473 240.757 202.583 238.953 204.079C237.149 205.576 234.304 206.04 228.92 206.479C223.535 206.919 199.718 208.345 199.718 208.345L197.152 200.863C197.152 200.863 209.816 199.589 215.435 197.584C219.672 196.167 224.006 195.048 228.405 194.233C228.405 194.233 227.337 187.668 227.337 184.84V171.544" stroke="#263238" stroke-width="0.972763" stroke-linecap="round" stroke-linejoin="round"/>
<path d="M237.601 147.95C243.403 151.447 245.115 159.527 243.109 176.778C243.109 176.778 244.822 178.816 242.289 179.836C242.289 179.836 232.802 176.365 228.394 178.759C223.986 181.154 225.138 175.454 225.138 175.454C225.138 175.454 223.322 159.585 227.339 156.713" fill="#323232"/>
<path d="M226.802 154.286C226.802 154.286 221.222 159.96 226.151 174.301C225.84 175.472 225.622 176.664 225.5 177.868C225.5 178.829 226.847 179.326 226.847 179.326" stroke="white" stroke-width="0.972763" stroke-linecap="round" stroke-linejoin="round"/>
<path d="M220.281 163.896C220.281 163.896 220.685 170.901 225.126 173.939" stroke="white" stroke-width="0.972763" stroke-linecap="round" stroke-linejoin="round"/>
<path d="M221.712 147.632C221.712 147.632 213.058 150.873 206.176 147.281C202.094 145.155 203.774 141.735 203.774 141.735" stroke="white" stroke-width="0.972763" stroke-linecap="round" stroke-linejoin="round"/>
<path d="M159.483 213.453H206.584C207.649 213.453 208.708 213.318 209.736 213.052L219.027 210.67C219.156 210.637 219.27 210.564 219.351 210.462C219.433 210.359 219.476 210.233 219.476 210.103C219.476 209.947 219.413 209.796 219.299 209.685C219.186 209.573 219.032 209.511 218.871 209.511H157.537C157.377 209.513 157.224 209.576 157.113 209.687C157 209.798 156.938 209.948 156.938 210.103V210.963C156.938 211.624 157.205 212.257 157.683 212.724C158.16 213.191 158.808 213.453 159.483 213.453Z" fill="#757575" stroke="#263238" stroke-width="0.972763" stroke-linecap="round" stroke-linejoin="round"/>
<path d="M154.831 211.161H202.062C202.247 211.168 202.432 211.132 202.598 211.054C202.766 210.975 202.91 210.857 203.019 210.711C203.128 210.565 203.199 210.394 203.223 210.215C203.248 210.035 203.228 209.852 203.163 209.683L194.406 176.358C194.288 175.949 194.043 175.587 193.704 175.32C193.366 175.055 192.951 174.899 192.517 174.875H145.273C145.087 174.868 144.903 174.905 144.737 174.985C144.569 175.063 144.425 175.182 144.316 175.329C144.207 175.476 144.137 175.646 144.112 175.826C144.087 176.006 144.107 176.189 144.172 176.358L152.936 209.683C153.053 210.092 153.299 210.456 153.639 210.721C153.98 210.986 154.396 211.14 154.831 211.161Z" fill="#999999" stroke="#263238" stroke-width="0.972763" stroke-linecap="round" stroke-linejoin="round"/>
<path d="M146.941 176.059H146.049" stroke="#263238" stroke-width="0.972763" stroke-linecap="round" stroke-linejoin="round"/>
<path d="M153.862 176.059H149.252" stroke="#263238" stroke-width="0.972763" stroke-linecap="round" stroke-linejoin="round"/>
<path d="M200.915 206.951L193.18 177.543C193.063 177.134 192.82 176.771 192.482 176.506C192.145 176.239 191.73 176.084 191.297 176.059H154.9" stroke="#263238" stroke-width="0.972763" stroke-linecap="round" stroke-linejoin="round"/>
<path d="M201.586 209.511L201.391 208.779" stroke="#263238" stroke-width="0.972763" stroke-linecap="round" stroke-linejoin="round"/>
<path d="M169.031 193.858C169.063 194.128 169.121 194.394 169.201 194.654C169.8 196.661 171.721 197.882 173.486 197.374C175.25 196.864 176.194 194.826 175.594 192.82C174.996 190.814 173.062 189.592 171.298 190.101C171.092 190.163 170.893 190.246 170.705 190.349C170.802 191.029 170.696 191.723 170.399 192.345C170.102 192.968 169.627 193.493 169.031 193.858Z" fill="white" stroke="#263238" stroke-width="0.972763" stroke-linecap="round" stroke-linejoin="round"/>
<path d="M189.88 131.406C185.79 130.973 183.564 127.17 181.102 126.579C179.729 126.257 178.384 125.831 177.079 125.304C177.079 125.304 176.232 122.413 174.962 123.394C173.693 124.375 172.026 146.001 173.66 145.32C175.295 144.638 175.301 147.193 175.301 147.193L190.479 160.272L203.202 138.238C203.202 138.238 193.968 131.845 189.88 131.406Z" fill="#323232"/>
<path d="M66.2012 54.3953V54.0769H66.5268" stroke="#263238" stroke-width="0.972763" stroke-linecap="round" stroke-linejoin="round"/>
<path d="M68.4395 54.0769H123.524" stroke="#263238" stroke-width="0.972763" stroke-linecap="round" stroke-linejoin="round" stroke-dasharray="0.95 2.85"/>
<path d="M124.477 54.0769H124.801V54.3953" stroke="#263238" stroke-width="0.972763" stroke-linecap="round" stroke-linejoin="round"/>
<path d="M124.809 56.3057V91.0122" stroke="#263238" stroke-width="0.972763" stroke-linecap="round" stroke-linejoin="round" stroke-dasharray="0.97 2.92"/>
<path d="M124.801 91.9673V92.2858H124.477" stroke="#263238" stroke-width="0.972763" stroke-linecap="round" stroke-linejoin="round"/>
<path d="M122.566 92.2859H67.4824" stroke="#263238" stroke-width="0.972763" stroke-linecap="round" stroke-linejoin="round" stroke-dasharray="0.95 2.85"/>
<path d="M66.5268 92.286H66.2012V91.9675" stroke="#263238" stroke-width="0.972763" stroke-linecap="round" stroke-linejoin="round"/>
<path d="M66.207 90.057V55.3506" stroke="#263238" stroke-width="0.972763" stroke-linecap="round" stroke-linejoin="round" stroke-dasharray="0.97 2.92"/>
<path d="M95.5105 55.0193C96.0427 55.0193 96.4741 54.5973 96.4741 54.0768C96.4741 53.5563 96.0427 53.1343 95.5105 53.1343C94.9783 53.1343 94.5469 53.5563 94.5469 54.0768C94.5469 54.5973 94.9783 55.0193 95.5105 55.0193Z" fill="#DA251C" stroke="#263238" stroke-width="0.972763" stroke-linecap="round" stroke-linejoin="round"/>
<path d="M66.2058 74.1238C66.738 74.1238 67.1694 73.7018 67.1694 73.1813C67.1694 72.6608 66.738 72.2388 66.2058 72.2388C65.6736 72.2388 65.2422 72.6608 65.2422 73.1813C65.2422 73.7018 65.6736 74.1238 66.2058 74.1238Z" fill="#DA251C" stroke="#263238" stroke-width="0.972763" stroke-linecap="round" stroke-linejoin="round"/>
<path d="M95.5105 93.2283C96.0427 93.2283 96.4741 92.8063 96.4741 92.2858C96.4741 91.7652 96.0427 91.3433 95.5105 91.3433C94.9783 91.3433 94.5469 91.7652 94.5469 92.2858C94.5469 92.8063 94.9783 93.2283 95.5105 93.2283Z" fill="#DA251C" stroke="#263238" stroke-width="0.972763" stroke-linecap="round" stroke-linejoin="round"/>
<path d="M124.808 74.1238C125.34 74.1238 125.772 73.7018 125.772 73.1813C125.772 72.6608 125.34 72.2388 124.808 72.2388C124.276 72.2388 123.844 72.6608 123.844 73.1813C123.844 73.7018 124.276 74.1238 124.808 74.1238Z" fill="#DA251C" stroke="#263238" stroke-width="0.972763" stroke-linecap="round" stroke-linejoin="round"/>
<path d="M125.927 91.1907H123.68V93.3877H125.927V91.1907Z" fill="#DA251C" stroke="#263238" stroke-width="0.972763" stroke-linecap="round" stroke-linejoin="round"/>
<path d="M125.927 52.9817H123.68V55.1788H125.927V52.9817Z" fill="#DA251C" stroke="#263238" stroke-width="0.972763" stroke-linecap="round" stroke-linejoin="round"/>
<path d="M67.3264 91.1907H65.0801V93.3877H67.3264V91.1907Z" fill="#DA251C" stroke="#263238" stroke-width="0.972763" stroke-linecap="round" stroke-linejoin="round"/>
<path d="M67.3264 52.9814H65.0801V55.1785H67.3264V52.9814Z" fill="#DA251C" stroke="#263238" stroke-width="0.972763" stroke-linecap="round" stroke-linejoin="round"/>
<path d="M121.097 57.4583H70.0957V89.1526H121.097V57.4583Z" fill="white" stroke="#263238" stroke-width="0.972763" stroke-linecap="round" stroke-linejoin="round"/>
<path d="M121.097 79.7913L115.426 85.338L100.086 70.3346L93.6334 76.6455L83.3459 66.5837L70.0957 79.5367V89.1525H121.097V79.7913Z" fill="#DA251C" stroke="#263238" stroke-width="0.972763" stroke-linecap="round" stroke-linejoin="round"/>
<path d="M110.526 69.978C112.514 69.978 114.127 68.4014 114.127 66.4564C114.127 64.5116 112.514 62.9348 110.526 62.9348C108.538 62.9348 106.926 64.5116 106.926 66.4564C106.926 68.4014 108.538 69.978 110.526 69.978Z" fill="#DA251C" stroke="#263238" stroke-width="0.972763" stroke-linecap="round" stroke-linejoin="round"/>
<path d="M192.595 137.251C192.595 137.251 188.689 144.365 188.227 155.248" stroke="white" stroke-width="0.972763" stroke-linecap="round" stroke-linejoin="round"/>
<path d="M181.109 142.174C181.109 142.174 182.276 148.224 185.668 152.605" stroke="white" stroke-width="0.972763" stroke-linecap="round" stroke-linejoin="round"/>
<path d="M197.152 167.137C197.152 167.137 203.012 185.961 215.741 191.502" stroke="white" stroke-width="0.972763" stroke-linecap="round" stroke-linejoin="round"/>
<path d="M212.57 133.061C212.57 133.061 212.016 137.168 207.979 137.455C207.482 136.422 206.882 135.439 206.189 134.519C208.286 133.912 210.416 133.426 212.57 133.061Z" fill="#263238"/>
<path d="M221.172 133.347C221.172 133.347 227.924 134.157 230.75 125.292C233.576 116.428 231.356 109.747 220.183 106.531C213.984 104.748 207.811 106.181 205.552 110.772C203.638 114.701 204.543 117.969 204.106 119.287C203.612 120.764 199.041 122.018 199.041 123.031C199.041 123.866 201.574 125.292 201.574 125.292L200.832 127.495L201.528 127.858C201.528 127.858 200.226 132.819 200.832 134.57C201.261 135.844 212.702 136.379 213.594 133.207" fill="white"/>
<path d="M221.172 133.347C221.172 133.347 227.924 134.157 230.75 125.292C233.576 116.428 231.356 109.747 220.183 106.531C213.984 104.748 207.811 106.181 205.552 110.772C203.638 114.701 204.543 117.969 204.106 119.287C203.612 120.764 199.041 122.018 199.041 123.031C199.041 123.866 201.574 125.292 201.574 125.292L200.832 127.495L201.528 127.858C201.528 127.858 200.226 132.819 200.832 134.57C201.261 135.844 212.702 136.379 213.594 133.207" stroke="#263238" stroke-width="0.972763" stroke-linecap="round" stroke-linejoin="round"/>
<path d="M205.615 113.988C205.615 113.988 207.849 114.536 208.461 115.683" stroke="#263238" stroke-width="0.972763" stroke-linecap="round" stroke-linejoin="round"/>
<path d="M206.009 119.026C205.91 119.662 206.06 120.217 206.347 120.255C206.633 120.293 206.933 119.809 207.03 119.166C207.128 118.522 206.972 117.975 206.692 117.937C206.412 117.899 206.106 118.382 206.009 119.026Z" fill="#263238"/>
<path d="M201.529 127.858C201.529 127.858 205.163 129.221 206.517 128.4" stroke="#263238" stroke-width="0.972763" stroke-linecap="round" stroke-linejoin="round"/>
<path d="M202.802 118.516C202.535 119.942 202.861 121.191 203.532 121.312C204.202 121.433 204.97 120.382 205.238 118.962C205.504 117.542 205.185 116.281 204.508 116.16C203.831 116.039 203.075 117.096 202.802 118.516Z" stroke="#263238" stroke-width="0.972763" stroke-linecap="round" stroke-linejoin="round"/>
<path d="M231.05 111.263C230.506 108.683 228.99 106.396 226.805 104.857C224.368 103.183 221.577 102.066 218.639 101.59C218.639 101.59 220.795 102.513 221.615 103.73C221.615 103.73 216.035 99.6285 209.407 102.322C202.778 105.016 203.605 112.015 203.605 112.015L204.569 110.18C204.569 110.18 204.458 112.365 205.631 113.167C205.982 112.097 206.46 111.071 207.057 110.11C207.057 110.11 208.814 115.275 213.652 117.026C213.323 116.212 213.296 115.311 213.574 114.479C213.574 114.479 216.256 120.153 215.475 122.923L216.328 124.376C216.328 124.376 219.408 121.325 221.915 123.866C223.353 125.33 219.161 130.871 218.561 130.871L221.095 134.507C221.095 134.507 227.423 135.392 231.069 128.686C234.715 121.981 233.823 119.134 233.823 119.134C233.823 119.134 235.015 120.765 235.126 121.681C235.138 121.668 236.22 114.466 231.05 111.263Z" fill="#263238"/>
<path d="M216.16 125.018C216.16 125.018 218.113 118.599 222.267 120.86C226.422 123.121 223.459 126.547 221.968 127.865C220.476 129.183 219.363 131.578 218.394 131.578C217.423 131.578 217.208 130.412 217.208 130.412" fill="white"/>
<path d="M216.16 125.018C216.16 125.018 218.113 118.599 222.267 120.86C226.422 123.121 223.459 126.547 221.968 127.865C220.476 129.183 219.363 131.578 218.394 131.578C217.423 131.578 217.208 130.412 217.208 130.412" stroke="#263238" stroke-width="0.972763" stroke-linecap="round" stroke-linejoin="round"/>
<path d="M205.238 118.962L216.828 121.312" stroke="#263238" stroke-width="0.972763" stroke-linecap="round" stroke-linejoin="round"/>
</svg>
