<svg width="278" height="251" viewBox="0 0 278 251" fill="none" xmlns="http://www.w3.org/2000/svg">
<g clip-path="url(#clip0_7652_12250)">
<path d="M266.982 75.2198C263.256 63.7079 258.266 53.2011 251.768 44.433C229.415 14.2843 191.49 9.34419 159.967 21.9908C150.654 25.7285 141.538 31.3065 133.379 39.3405C127.449 45.1782 122.14 52.2299 116.225 58.0903C110.003 64.2499 103.201 63.9676 96.3684 62.9909C86.5346 61.5832 76.7658 59.769 67.0617 57.5483C58.6111 55.6118 50.7594 52.8115 41.8617 55.6456C26.8311 60.4503 13.4572 77.512 6.80721 97.1651C-1.52667 121.843 -0.818902 149.649 4.12388 174.022C5.83888 182.491 8.1061 190.74 8.48721 199.727C8.8761 209.071 10.7078 218.708 14.8105 225.89C19.5861 234.241 28.13 237.594 35.55 240.141C49.9389 245.085 65.4594 243.827 80.595 239.717C94.8517 235.844 109.792 228.527 124.267 229.3C140.507 230.17 154.888 240.547 170.358 245.803C184.203 250.506 198.988 251.234 213.673 248.519C226.996 246.051 241.715 241.744 252.76 228.617C281.927 193.89 280.255 132.406 270.991 90.3619C269.881 85.1945 268.541 80.1366 266.982 75.2198Z" fill="#4B77A5"/>
<path d="M75.6547 15.436C77.9454 15.436 80.1424 16.7572 81.7622 19.1087C83.382 21.4603 84.292 24.6498 84.292 27.9754V36.2635H67.0137V27.9754C67.0137 24.6498 67.9237 21.4603 69.5435 19.1087C71.1633 16.7572 73.3601 15.436 75.6509 15.436H75.6547Z" fill="white" stroke="#263238" stroke-width="1.04167" stroke-linecap="round" stroke-linejoin="round"/>
<path d="M75.6543 15.4361V1.54175" stroke="#263238" stroke-width="1.04167" stroke-linecap="round" stroke-linejoin="round"/>
<path d="M200.847 15.436C203.137 15.436 205.334 16.7572 206.954 19.1087C208.574 21.4603 209.483 24.6498 209.483 27.9754V36.2635H192.205V27.9754C192.205 26.3283 192.429 24.6973 192.863 23.1755C193.298 21.6538 193.934 20.2712 194.736 19.1068C195.538 17.9423 196.492 17.0187 197.539 16.389C198.588 15.7592 199.711 15.4353 200.847 15.436Z" fill="white" stroke="#263238" stroke-width="1.04167" stroke-linecap="round" stroke-linejoin="round"/>
<path d="M200.846 15.4361V1.54175" stroke="#263238" stroke-width="1.04167" stroke-linecap="round" stroke-linejoin="round"/>
<path d="M264.496 33.7849H216.344V119.229H264.496V33.7849Z" fill="white" stroke="#263238" stroke-width="1.04167" stroke-linecap="round" stroke-linejoin="round"/>
<path d="M264.496 33.7849H216.344V119.229H264.496V33.7849Z" fill="white" stroke="#263238" stroke-width="1.04167" stroke-linecap="round" stroke-linejoin="round"/>
<path d="M264.497 33.7849V66.8356C261.619 71.0879 258.189 74.4709 254.405 76.7893C241.914 84.1289 225.698 76.0157 235 50.1635C236.945 44.8397 238.701 39.3749 240.261 33.7905L264.497 33.7849Z" fill="white" stroke="#263238" stroke-width="1.04167" stroke-linecap="round" stroke-linejoin="round"/>
<path d="M264.497 87.8157V119.257H260.452C254.665 116.344 248.346 111.845 247.494 105.707C246.343 97.3628 257.966 90.808 264.497 87.8157Z" fill="white" stroke="#263238" stroke-width="1.04167" stroke-linecap="round" stroke-linejoin="round"/>
<path d="M236.258 119.257H216.344V106.006C224.724 94.2011 237.414 78.5622 239.518 88.7529C241.929 100.412 236.908 112.284 236.258 119.257Z" fill="white" stroke="#263238" stroke-width="1.04167" stroke-linecap="round" stroke-linejoin="round"/>
<path d="M229.418 64.8257C229.418 69.9973 222.29 73.3283 216.344 75.2141V44.7322C221.275 49.6328 229.418 58.6379 229.418 64.8257Z" fill="white" stroke="#263238" stroke-width="1.04167" stroke-linecap="round" stroke-linejoin="round"/>
<path d="M246.563 69.0714C250.307 69.0714 253.341 65.0119 253.341 60.0042C253.341 54.9965 250.307 50.937 246.563 50.937C242.82 50.937 239.785 54.9965 239.785 60.0042C239.785 65.0119 242.82 69.0714 246.563 69.0714Z" fill="white" stroke="#263238" stroke-width="1.04167" stroke-linecap="round" stroke-linejoin="round"/>
<path d="M228.901 82.5594C228.901 84.2532 227.827 85.642 226.505 85.642C225.183 85.642 224.113 84.2644 224.113 82.5594C224.113 80.8544 225.186 79.4712 226.505 79.4712C227.824 79.4712 228.901 80.8657 228.901 82.5594Z" fill="white" stroke="#263238" stroke-width="1.04167" stroke-linecap="round" stroke-linejoin="round"/>
<path d="M249.9 91.8412C249.9 92.6809 249.728 93.5017 249.406 94.1999C249.085 94.8982 248.628 95.4423 248.094 95.7637C247.559 96.0849 246.972 96.1691 246.404 96.0052C245.838 95.8414 245.317 95.437 244.907 94.8433C244.498 94.2495 244.22 93.4931 244.107 92.6694C243.994 91.8459 244.052 90.9922 244.273 90.2164C244.495 89.4407 244.87 88.7775 245.35 88.311C245.831 87.8445 246.397 87.5955 246.975 87.5955C247.751 87.5955 248.495 88.0428 249.043 88.839C249.592 89.6352 249.9 90.7151 249.9 91.8412Z" fill="white" stroke="#263238" stroke-width="1.04167" stroke-linecap="round" stroke-linejoin="round"/>
<path d="M256 103.805C256 104.111 255.937 104.41 255.821 104.665C255.703 104.919 255.536 105.118 255.341 105.234C255.147 105.351 254.932 105.381 254.725 105.322C254.518 105.262 254.329 105.114 254.18 104.897C254.031 104.679 253.93 104.404 253.889 104.103C253.849 103.803 253.87 103.491 253.951 103.209C254.032 102.926 254.17 102.685 254.346 102.516C254.521 102.346 254.728 102.257 254.938 102.258C255.078 102.258 255.216 102.298 255.346 102.376C255.475 102.453 255.591 102.568 255.69 102.711C255.789 102.855 255.867 103.026 255.921 103.213C255.974 103.401 256.001 103.602 256 103.805Z" fill="white" stroke="#263238" stroke-width="1.04167" stroke-linecap="round" stroke-linejoin="round"/>
<path d="M237.245 50.7193C239.217 47.8552 239.217 43.2116 237.245 40.3475C235.272 37.4834 232.073 37.4834 230.101 40.3475C228.128 43.2116 228.128 47.8552 230.101 50.7193C232.073 53.5833 235.272 53.5833 237.245 50.7193Z" fill="white" stroke="#263238" stroke-width="1.04167" stroke-linecap="round" stroke-linejoin="round"/>
<path d="M248.79 165.938C250.97 165.938 252.737 159.21 252.737 150.914C252.737 142.617 250.97 135.89 248.79 135.89C246.61 135.89 244.842 142.617 244.842 150.914C244.842 159.21 246.61 165.938 248.79 165.938Z" fill="#75AA6C" stroke="#263238" stroke-width="1.04167" stroke-miterlimit="10"/>
<path d="M236.53 141.649C237.763 147.295 240.131 151.219 241.823 150.44C243.514 149.66 243.88 144.46 242.648 138.826C241.414 133.192 239.047 129.228 237.355 130.029C235.663 130.831 235.298 136.008 236.53 141.649Z" fill="#75AA6C" stroke="#263238" stroke-width="1.04167" stroke-miterlimit="10"/>
<path d="M265.479 175.631C269.497 174.643 272.515 171.786 272.219 169.251C271.923 166.717 268.423 165.457 264.411 166.428C260.397 167.399 257.379 170.273 257.674 172.808C257.97 175.343 261.466 176.619 265.479 175.631Z" fill="#75AA6C" stroke="#263238" stroke-width="1.04167" stroke-miterlimit="10"/>
<path d="M232.815 161.743C236.168 166.57 240.13 168.664 241.667 166.417C243.202 164.17 241.725 158.44 238.372 153.606C235.02 148.774 231.053 146.684 229.518 148.932C227.981 151.179 229.459 156.909 232.815 161.743Z" fill="#75AA6C" stroke="#263238" stroke-width="1.04167" stroke-miterlimit="10"/>
<path d="M255.93 148.492C252.686 155.328 251.722 162.527 253.772 164.582C255.821 166.637 260.118 162.758 263.361 155.927C266.605 149.096 267.569 141.892 265.52 139.842C263.47 137.793 259.173 141.66 255.93 148.492Z" fill="#75AA6C" stroke="#263238" stroke-width="1.04167" stroke-miterlimit="10"/>
<path d="M248.512 165.187L248.209 210.895" stroke="#263238" stroke-width="1.04167" stroke-miterlimit="10" stroke-linecap="round"/>
<path d="M248.882 145.324L248.512 165.186" stroke="#263238" stroke-width="1.04167" stroke-miterlimit="10" stroke-linecap="round"/>
<path d="M248.855 142.083L248.883 143.607" stroke="#263238" stroke-width="1.04167" stroke-miterlimit="10" stroke-linecap="round"/>
<path d="M253.789 163.605C251.529 170.403 250.207 177.778 249.9 185.314V213.543" stroke="#263238" stroke-width="1.04167" stroke-miterlimit="10" stroke-linecap="round"/>
<path d="M260.564 148.553C257.856 153.113 255.578 158.174 253.789 163.605" stroke="#263238" stroke-width="1.04167" stroke-miterlimit="10" stroke-linecap="round"/>
<path d="M262.695 145.279C262.695 145.279 262.306 145.844 261.613 146.86" stroke="#263238" stroke-width="1.04167" stroke-miterlimit="10" stroke-linecap="round"/>
<path d="M241.424 165.728C244.193 171.371 246.35 177.595 247.822 184.184" stroke="#263238" stroke-width="1.04167" stroke-miterlimit="10" stroke-linecap="round"/>
<path d="M236.885 158.151C238.555 160.469 240.074 163.005 241.423 165.728" stroke="#263238" stroke-width="1.04167" stroke-miterlimit="10" stroke-linecap="round"/>
<path d="M232.035 152.794C233.268 153.802 234.428 154.992 235.492 156.345" stroke="#263238" stroke-width="1.04167" stroke-miterlimit="10" stroke-linecap="round"/>
<path d="M241.59 149.045C243.775 159.032 246.708 173.791 248.077 186.595" stroke="#263238" stroke-width="1.04167" stroke-miterlimit="10" stroke-linecap="round"/>
<path d="M240.256 143.122C240.644 144.816 241.1 146.803 241.59 149.045" stroke="#263238" stroke-width="1.04167" stroke-miterlimit="10" stroke-linecap="round"/>
<path d="M238.891 137.392C238.891 137.392 239.279 138.922 239.89 141.542" stroke="#263238" stroke-width="1.04167" stroke-miterlimit="10" stroke-linecap="round"/>
<path d="M257.876 171.442C255.154 172.944 251.408 177.139 250.098 182.632" stroke="#263238" stroke-width="1.04167" stroke-miterlimit="10" stroke-linecap="round"/>
<path d="M262.92 169.951C261.192 170.076 259.487 170.578 257.863 171.442" stroke="#263238" stroke-width="1.04167" stroke-miterlimit="10" stroke-linecap="round"/>
<path d="M266.186 170.07C266.186 170.07 265.699 169.968 264.898 169.923" stroke="#263238" stroke-width="1.04167" stroke-miterlimit="10" stroke-linecap="round"/>
<path d="M257.604 197.604C261.294 200.105 264.896 200.241 265.642 197.909C266.389 195.578 264.009 191.659 260.318 189.158C256.628 186.657 253.027 186.516 252.277 188.848C251.526 191.179 253.913 195.098 257.604 197.604Z" fill="#75AA6C" stroke="#263238" stroke-width="1.04167" stroke-miterlimit="10"/>
<path d="M257.722 190.819C256.254 189.499 254.659 188.507 252.988 187.877C252.605 187.536 252.162 187.361 251.712 187.374C251.262 187.385 250.824 187.583 250.449 187.945C249.948 188.43 250.114 192.055 250.114 192.055V210.895" stroke="#263238" stroke-width="1.04167" stroke-miterlimit="10" stroke-linecap="round"/>
<path d="M260.36 193.607C260.36 193.607 260.003 193.127 259.361 192.427" stroke="#263238" stroke-width="1.04167" stroke-miterlimit="10" stroke-linecap="round"/>
<path d="M231.113 175.631C227.095 174.643 224.082 171.786 224.377 169.251C224.672 166.717 228.169 165.457 232.182 166.428C236.195 167.399 239.217 170.273 238.918 172.808C238.618 175.343 235.122 176.619 231.113 175.631Z" fill="#75AA6C" stroke="#263238" stroke-width="1.04167" stroke-miterlimit="10"/>
<path d="M238.623 171.397C239.116 171.663 239.596 171.974 240.062 172.328C241.686 173.567 243.045 175.43 243.989 177.715C244.932 179.999 245.425 182.616 245.413 185.28V210.155" stroke="#263238" stroke-width="1.04167" stroke-miterlimit="10" stroke-linecap="round"/>
<path d="M233.252 169.923C235.084 170.003 236.897 170.5 238.623 171.397" stroke="#263238" stroke-width="1.04167" stroke-miterlimit="10" stroke-linecap="round"/>
<path d="M230.406 170.07C230.406 170.07 230.725 170.002 231.274 169.957" stroke="#263238" stroke-width="1.04167" stroke-miterlimit="10" stroke-linecap="round"/>
<path d="M235.141 192.693C231.613 195.646 228.036 196.232 227.149 194.002C226.262 191.772 228.409 187.572 231.936 184.619C235.463 181.667 239.045 181.079 239.928 183.309C240.811 185.54 238.671 189.74 235.141 192.693Z" fill="#75AA6C" stroke="#263238" stroke-width="1.04167" stroke-miterlimit="10"/>
<path d="M234.285 186.313C235.734 184.676 237.353 183.38 239.08 182.474C239.08 182.474 243.455 181.424 244.454 185.528" stroke="#263238" stroke-width="1.04167" stroke-miterlimit="10" stroke-linecap="round"/>
<path d="M232.16 189.062C232.16 189.062 232.378 188.712 232.778 188.165" stroke="#263238" stroke-width="1.04167" stroke-miterlimit="10" stroke-linecap="round"/>
<path d="M243.792 185.771C243.792 185.771 248.948 184.326 248.948 189.396C248.948 194.466 245.288 198.576 243.792 204.374C242.294 210.172 239.467 210.414 237.958 204.617C236.449 198.819 238.623 188.187 243.792 185.771Z" fill="#75AA6C" stroke="#263238" stroke-width="1.04167" stroke-miterlimit="10"/>
<path d="M247.286 186.014C247.286 186.014 242.792 188.673 241.453 197.125L247.286 186.014Z" fill="#75AA6C"/>
<path d="M247.286 186.014C247.286 186.014 242.792 188.673 241.453 197.125" stroke="#263238" stroke-width="1.04167" stroke-miterlimit="10"/>
<path d="M246.953 197.125V210.895" stroke="#263238" stroke-width="1.04167" stroke-miterlimit="10" stroke-linecap="round"/>
<path d="M238.689 237.707C237.454 232.005 236.823 226.064 236.822 220.086C236.818 216.466 237.068 212.855 237.569 209.308H258.569C259.071 212.854 259.322 216.466 259.316 220.086C259.316 226.064 258.688 232.005 257.454 237.707H238.689Z" fill="#263238"/>
<path d="M259.125 214.345C259.188 215.174 259.23 216.038 259.265 216.862H236.889C236.923 216.016 236.97 215.169 237.032 214.345H259.125Z" fill="#7A7A7A"/>
<path d="M237.13 227.223C237.061 226.387 236.998 225.529 236.951 224.704H259.207C259.161 225.546 259.099 226.398 259.028 227.223H237.13Z" fill="#7A7A7A"/>
<path d="M256.618 220.222C256.611 220.484 256.658 220.743 256.753 220.966C256.848 221.189 256.988 221.366 257.152 221.473C257.317 221.58 257.5 221.614 257.678 221.569C257.856 221.524 258.021 221.403 258.151 221.221C258.281 221.04 258.371 220.805 258.409 220.549C258.447 220.292 258.431 220.025 258.364 219.781C258.296 219.539 258.18 219.33 258.03 219.183C257.881 219.036 257.704 218.957 257.524 218.957C257.408 218.953 257.291 218.983 257.183 219.045C257.073 219.106 256.974 219.199 256.89 219.316C256.805 219.433 256.738 219.574 256.692 219.729C256.645 219.886 256.62 220.052 256.618 220.222Z" fill="#8C8C8C"/>
<path d="M252.091 220.222C252.083 220.484 252.131 220.744 252.226 220.967C252.322 221.19 252.46 221.366 252.626 221.473C252.791 221.58 252.974 221.614 253.152 221.569C253.33 221.523 253.496 221.401 253.625 221.219C253.755 221.036 253.845 220.802 253.882 220.545C253.92 220.289 253.904 220.021 253.835 219.778C253.768 219.534 253.651 219.326 253.501 219.18C253.351 219.033 253.174 218.956 252.993 218.957C252.876 218.954 252.76 218.984 252.652 219.047C252.544 219.108 252.445 219.201 252.361 219.318C252.277 219.435 252.21 219.576 252.165 219.731C252.118 219.885 252.093 220.053 252.091 220.222Z" fill="#8C8C8C"/>
<path d="M247.567 220.222C247.561 220.484 247.608 220.743 247.702 220.966C247.798 221.189 247.937 221.366 248.101 221.473C248.267 221.58 248.449 221.614 248.627 221.569C248.805 221.524 248.97 221.403 249.1 221.221C249.231 221.04 249.321 220.805 249.359 220.549C249.396 220.292 249.38 220.025 249.313 219.781C249.246 219.539 249.129 219.33 248.98 219.183C248.83 219.036 248.654 218.957 248.473 218.957C248.357 218.953 248.241 218.983 248.132 219.045C248.023 219.106 247.923 219.199 247.839 219.316C247.755 219.433 247.688 219.574 247.641 219.729C247.594 219.886 247.569 220.052 247.567 220.222Z" fill="#8C8C8C"/>
<path d="M243.034 220.222C243.027 220.484 243.074 220.743 243.169 220.966C243.264 221.189 243.404 221.366 243.568 221.473C243.733 221.58 243.916 221.614 244.094 221.569C244.272 221.524 244.437 221.403 244.567 221.221C244.697 221.04 244.787 220.805 244.825 220.549C244.863 220.292 244.847 220.025 244.78 219.781C244.712 219.539 244.596 219.33 244.446 219.183C244.296 219.036 244.12 218.957 243.94 218.957C243.822 218.953 243.707 218.983 243.599 219.045C243.489 219.106 243.39 219.199 243.306 219.316C243.221 219.433 243.154 219.574 243.108 219.729C243.061 219.886 243.036 220.052 243.034 220.222Z" fill="#8C8C8C"/>
<path d="M238.507 220.222C238.499 220.484 238.547 220.744 238.642 220.967C238.738 221.19 238.876 221.366 239.042 221.473C239.207 221.58 239.39 221.614 239.568 221.569C239.746 221.523 239.912 221.401 240.041 221.219C240.171 221.036 240.261 220.802 240.298 220.545C240.336 220.289 240.32 220.021 240.251 219.778C240.184 219.534 240.067 219.326 239.917 219.18C239.767 219.033 239.59 218.956 239.409 218.957C239.292 218.954 239.176 218.984 239.068 219.047C238.96 219.108 238.861 219.201 238.777 219.318C238.693 219.435 238.626 219.576 238.581 219.731C238.534 219.885 238.509 220.053 238.507 220.222Z" fill="#8C8C8C"/>
<path d="M202.208 111.873L201.515 108.395C201.515 108.395 201.282 105.476 200.897 104.804C200.512 104.132 199.038 103.009 198.497 102.224C197.957 101.439 197.494 101.433 197.416 102.111C197.339 102.788 197.494 103.805 197.723 104.019C197.954 104.234 198.731 105.25 198.731 105.25C198.731 105.25 197.008 103.686 196.541 103.122C196.075 102.557 194.403 101.321 194.169 101.772C193.936 102.224 194.247 103.229 194.247 103.229C194.247 103.229 193.244 102.913 193.244 103.923C193.23 104.188 193.265 104.453 193.346 104.691C193.428 104.929 193.553 105.13 193.707 105.273C193.707 105.273 193.045 105.595 193.202 106.402C193.357 107.209 194.259 107.814 194.259 107.814C194.259 107.814 193.372 108.022 193.835 108.943C194.297 109.863 196.258 111.692 197.261 112.37C197.993 112.839 198.742 113.25 199.505 113.6L201.979 116.186L202.208 111.873Z" fill="white" stroke="#263238" stroke-width="1.04167" stroke-linecap="round" stroke-linejoin="round"/>
<path d="M194.246 103.229C194.246 103.229 195.716 104.804 196.023 105.25C196.387 105.68 196.777 106.058 197.19 106.379" stroke="#263238" stroke-width="1.04167" stroke-linecap="round" stroke-linejoin="round"/>
<path d="M193.752 105.374L196.23 107.503L196.583 107.853" stroke="#263238" stroke-width="1.04167" stroke-linecap="round" stroke-linejoin="round"/>
<path d="M198.73 105.25L199.038 107.158" stroke="#263238" stroke-width="1.04167" stroke-linecap="round" stroke-linejoin="round"/>
<path d="M208.858 117.151L202.212 111.873L201.049 116.474L207.932 125.57L208.858 117.151Z" fill="#DA251C" stroke="#263238" stroke-width="1.04167" stroke-linecap="round" stroke-linejoin="round"/>
<path d="M213.909 94.0883C213.909 94.0883 208.045 102.834 207.512 107.768C206.979 112.702 206.66 138.03 206.66 138.03C206.66 138.03 210.743 139.018 211.132 139.018H213.602C213.602 139.018 212.599 116.486 213.295 108.75C213.99 101.016 216.534 94.0714 216.534 94.0714C215.681 93.6616 214.759 93.6675 213.909 94.0883Z" fill="#DA251C" stroke="#263238" stroke-width="1.04167" stroke-linecap="round" stroke-linejoin="round"/>
<path d="M209.627 136.489L210.015 151.574C210.015 151.574 207.682 162.301 209.366 174.017C210.382 181.034 210.989 188.164 211.182 195.329C211.182 195.329 211.96 203.623 211.96 207.587C211.96 211.55 211.049 227.387 211.049 227.387C211.049 227.387 210.14 229.272 209.106 231.157C208.071 233.044 205.469 234.178 205.077 235.674C204.684 237.171 206.632 236.618 208.188 236.618C209.917 236.502 211.622 235.993 213.243 235.109C214.021 234.545 215.709 234.918 216.102 234.545C216.494 234.173 217.008 231.908 216.88 230.209C216.751 228.509 217.917 213.616 218.699 207.767C219.481 201.918 218.31 190.609 218.31 190.609C218.31 190.609 220.643 160.059 220.776 158.169C220.908 156.277 222.332 147.611 222.074 144.404C221.818 141.197 221.558 136.104 221.558 135.371C221.558 134.637 209.627 136.489 209.627 136.489Z" fill="#263238" stroke="#263238" stroke-width="1.04167" stroke-linecap="round" stroke-linejoin="round"/>
<path d="M215.473 153.839C215.473 153.839 214.174 173.266 214.695 182.316C215.217 191.366 216.126 201.551 216.776 204.001C217.425 206.451 218.203 219.279 218.203 222.864C218.203 226.449 218.335 232.462 218.335 232.462C218.335 232.462 216.002 235.849 214.306 236.978C212.61 238.107 211.973 239.051 212.879 239.616C213.785 240.18 215.477 240.745 218.324 240.18C221.17 239.616 223.648 239.616 224.036 238.102C224.425 236.589 224.297 232.631 224.297 232.631C224.297 232.631 224.946 214.531 224.946 205.853C224.946 197.175 223.126 187.182 223.126 187.182L224.682 170.968C224.682 170.968 227.793 162.29 227.929 154.182C228.065 146.075 224.943 136.647 224.682 136.076C224.421 135.506 213.512 137.205 213.512 137.205" fill="#263238"/>
<path d="M215.473 153.838C215.473 153.838 214.174 173.266 214.695 182.316C215.217 191.366 216.126 201.551 216.776 204.001C217.425 206.451 218.203 219.279 218.203 222.864C218.203 226.449 218.335 232.462 218.335 232.462C218.335 232.462 216.002 235.849 214.306 236.978C212.61 238.107 211.973 239.051 212.879 239.616C213.785 240.18 215.477 240.745 218.324 240.18C221.17 239.616 223.648 239.616 224.036 238.102C224.425 236.589 224.297 232.631 224.297 232.631C224.297 232.631 224.946 214.531 224.946 205.853C224.946 197.175 223.126 187.182 223.126 187.182L224.682 170.968C224.682 170.968 227.793 162.29 227.929 154.182C228.065 146.075 224.943 136.647 224.682 136.076C224.421 135.506 213.512 137.205 213.512 137.205" stroke="#263238" stroke-width="1.04167" stroke-linecap="round" stroke-linejoin="round"/>
<path d="M211.834 153.274C212.015 154.057 212.305 154.779 212.685 155.395C213.064 156.011 213.527 156.509 214.042 156.858" stroke="white" stroke-width="1.04167" stroke-linecap="round" stroke-linejoin="round"/>
<path d="M216.901 230.215C216.899 230.168 216.899 230.121 216.901 230.074C215.189 231.202 213.254 231.386 211.456 230.593V229.836C211.386 229.002 211.256 228.181 211.067 227.386C211.067 227.386 210.157 229.272 209.122 231.157C208.088 233.044 205.487 234.178 205.094 235.674C204.701 237.171 206.65 236.618 208.205 236.618C209.934 236.502 211.64 235.993 213.261 235.109C214.038 234.545 215.726 234.918 216.119 234.545C216.512 234.173 217.029 231.915 216.901 230.215Z" fill="white" stroke="#263238" stroke-width="1.04167" stroke-linecap="round" stroke-linejoin="round"/>
<path d="M224.042 238.136C224.342 236.973 224.334 234.365 224.315 233.224C222.903 233.753 221.467 234.13 220.017 234.353L219.628 233.032C219.239 231.711 218.329 232.468 218.329 232.468C218.329 232.468 215.996 235.855 214.3 236.984C212.604 238.114 211.967 239.056 212.873 239.621C213.779 240.185 215.471 240.75 218.318 240.185C221.164 239.621 223.653 239.644 224.042 238.136Z" fill="white" stroke="#263238" stroke-width="1.04167" stroke-linecap="round" stroke-linejoin="round"/>
<path d="M213.757 96.5554C213.757 96.5554 208.119 106.531 207.967 108.885C207.816 111.241 209.2 137.583 209.433 137.804C210.785 138.442 212.184 138.849 213.602 139.018C214.683 139.018 215.994 138.792 215.994 138.792C215.994 138.792 215.379 112.787 215.842 107.294C216.305 101.8 219.393 96.8715 220.011 94.5173C220.629 92.1629 218.156 92.05 217.463 92.3887C216.772 92.7275 213.757 96.5554 213.757 96.5554Z" fill="white" stroke="#263238" stroke-width="1.04167" stroke-linecap="round" stroke-linejoin="round"/>
<path d="M210.823 67.1856C210.823 67.1856 208.276 72.3459 208.431 73.8025C208.587 75.2591 208.738 76.377 208.431 77.1618C208.124 77.9466 206.425 78.7313 206.576 79.9847C206.728 81.2381 208.132 82.2431 208.132 82.2431C208.132 82.2431 208.909 88.5212 209.754 89.1931C210.598 89.8649 212.842 88.9672 212.842 88.9672L213.382 94.7994C213.382 94.7994 211.224 99.6152 212.689 99.7282C214.156 99.8411 220.643 92.2192 220.643 92.2192L220.024 88.8317C220.024 88.8317 221.412 84.3489 221.49 79.8662C221.568 75.3834 218.636 67.9817 216.318 66.4121C214 64.8425 212.215 65.729 210.823 67.1856Z" fill="white" stroke="#263238" stroke-width="1.04167" stroke-linecap="round" stroke-linejoin="round"/>
<path d="M212.828 88.9336L214.913 88.2617L213.217 92.1856L212.828 88.9336Z" fill="#263238" stroke="#263238" stroke-width="1.04167" stroke-linecap="round" stroke-linejoin="round"/>
<path d="M209.432 82.3224C209.432 82.3224 210.742 82.9942 211.823 80.8657" stroke="#263238" stroke-width="1.04167" stroke-linecap="round" stroke-linejoin="round"/>
<path d="M211.132 76.3772C211.132 76.9983 210.942 77.5064 210.708 77.5064C210.475 77.5064 210.281 77.0039 210.281 76.3772C210.281 75.7505 210.472 75.248 210.708 75.248C210.946 75.248 211.132 75.7844 211.132 76.3772Z" fill="#263238"/>
<path d="M209.74 73.6899C209.74 73.6899 211.055 72.1203 211.751 74.0286" stroke="#263238" stroke-width="1.04167" stroke-linecap="round" stroke-linejoin="round"/>
<path d="M211.441 67.3155C211.441 67.3155 213.447 71.7983 214.917 74.6043C216.387 77.4103 217.927 81.2156 217.465 83.2368C217.001 85.258 215.38 84.4676 215.843 85.8112C216.305 87.155 219.009 89.1987 220.707 88.9504C222.407 88.702 224.102 85.8112 225.417 83.0109C226.731 80.2106 228.661 75.0503 226.343 68.7722C224.025 62.4939 220.707 59.5807 217.398 59.3605C214.089 59.1404 208.52 60.8172 207.979 64.1764C207.439 67.5357 209.601 70.0086 209.601 70.0086L211.441 67.3155Z" fill="#263238" stroke="#263238" stroke-width="1.04167" stroke-linecap="round" stroke-linejoin="round"/>
<path d="M216.923 95.5447C216.923 95.5447 210.743 108.439 210.436 111.918C210.129 115.396 211.903 139.718 211.903 139.718C214.518 140.171 217.162 140.171 219.778 139.718C222.424 139.072 224.997 137.902 227.423 136.239C227.423 136.239 225.261 123.13 225.261 121.109C225.261 119.087 225.802 105.301 224.413 100.931C223.359 97.8393 222.09 94.9111 220.629 92.1911C220.399 92.1336 220.166 92.0958 219.933 92.0781C219.7 92.0725 218.234 93.5292 216.923 95.5447Z" fill="#DA251C" stroke="#263238" stroke-width="1.04167" stroke-linecap="round" stroke-linejoin="round"/>
<path d="M202.791 115.165L200.784 113.612C200.488 112.269 200.126 110.957 199.703 109.688C199.315 108.79 198.237 109.016 197.758 109.123C197.28 109.23 195.903 108.672 195.037 108.113C194.169 107.553 193.8 108.225 194.111 108.897C194.401 109.443 194.739 109.932 195.115 110.354C195.115 110.354 191.564 110.579 191.33 110.579C191.097 110.579 189.708 110.015 190.02 111.477C190.331 112.94 192.952 115.508 194.267 115.847C195.581 116.187 198.976 115.96 198.976 115.96L200.982 118.219L202.791 115.165Z" fill="white" stroke="#263238" stroke-width="1.04167" stroke-linecap="round" stroke-linejoin="round"/>
<path d="M195.148 110.343L197.078 111.241L198.081 111.687" stroke="#263238" stroke-width="1.04167" stroke-linecap="round" stroke-linejoin="round"/>
<path d="M190.186 110.789C190.186 110.789 191.83 112.324 192.184 112.578C192.538 112.832 195.178 113.092 195.178 113.092" stroke="#263238" stroke-width="1.04167" stroke-linecap="round" stroke-linejoin="round"/>
<path d="M190.791 112.889C190.791 112.889 193.513 114.424 193.785 114.424C194.058 114.424 195.372 114.34 195.372 114.34" stroke="#263238" stroke-width="1.04167" stroke-linecap="round" stroke-linejoin="round"/>
<path d="M217.464 102.833L212.214 122.029L202.791 115.193L200.092 120.121C200.092 120.121 211.211 132.542 212.058 133.106C212.906 133.671 214.45 133.892 214.762 133.552C215.072 133.214 223.562 112.59 223.562 112.59" fill="#DA251C"/>
<path d="M217.464 102.833L212.214 122.029L202.791 115.193L200.092 120.121C200.092 120.121 211.211 132.542 212.058 133.106C212.906 133.671 214.45 133.892 214.762 133.552C215.072 133.214 223.562 112.59 223.562 112.59" stroke="#263238" stroke-width="1.04167" stroke-linecap="round" stroke-linejoin="round"/>
<path d="M215.256 157.616C215.256 157.616 214.478 179.126 215.256 187.397C216.034 195.668 217.422 208.083 217.422 208.083" stroke="white" stroke-width="1.04167" stroke-linecap="round" stroke-linejoin="round"/>
<path d="M162.465 138.792C162.465 138.792 161.528 162.9 161.353 167.41C161.178 171.922 161.532 195.115 162.59 197.452C163.648 199.79 164.924 222.655 164.924 222.655C164.924 222.655 163.982 223.152 163.951 223.987C163.92 224.823 163.951 227.16 163.951 227.16C163.951 227.16 160.821 230.83 159.055 231.835C157.289 232.841 157.363 234.003 158.382 234.336C159.401 234.67 162.248 235.505 164.34 234.839C166.432 234.173 168.567 232.665 169.497 232.332C170.426 231.999 171.682 232.332 172.297 231.332C172.911 230.333 172.577 227.16 172.577 227.16C172.577 227.16 172.965 226.325 172.611 223.321C172.258 220.318 171.868 218.804 171.9 217.98C171.931 217.156 171.834 190.276 171.834 190.276L171.868 160.066C171.868 160.066 173.584 189.604 173.988 191.118C174.392 192.63 177.383 215.987 177.566 217.156C177.749 218.325 177.791 223.164 177.791 223.164C177.791 223.164 176.913 224.998 176.893 225.5C176.874 226.003 177.306 229.673 177.306 229.673C177.306 229.673 174.478 234.348 172.938 235.517C171.399 236.685 173.172 238.34 174.661 238.52C176.151 238.7 177.865 238.853 179.981 237.684C182.097 236.516 184.905 232.344 185.518 231.344C186.133 230.345 185.729 228.837 185.518 228.007C185.309 227.177 185.002 226.505 185.13 225.833C185.595 223.201 185.93 220.524 186.133 217.822C186.227 215.484 186.312 213.305 186.312 213.305C186.312 213.305 186.495 199.79 185.924 194.109C185.352 188.43 184.022 178.086 184.022 178.086C184.022 178.086 182.949 152.715 183.108 151.551C183.267 150.389 183.913 146.402 183.68 142.874C183.572 141.019 183.375 139.178 183.088 137.364L162.465 138.792Z" fill="#263238" stroke="#263238" stroke-width="1.04167" stroke-linecap="round" stroke-linejoin="round"/>
<path d="M171.386 92.1572C171.386 92.1572 162.258 96.465 162.243 97.4643C162.227 98.4637 159.995 119.68 159.995 119.68L148.842 130.747C148.842 130.747 150.417 132.294 150.701 133.733L150.981 135.167L162.648 129.742C162.648 129.742 162.061 138.143 162.356 138.803C162.651 139.464 164.39 140.13 164.39 140.13C164.39 140.13 174.808 141.017 178.238 140.796C181.668 140.576 183.119 140.231 183.359 139.356C183.601 138.481 183.749 138.792 183.772 137.476C183.795 136.16 190.045 96.1375 190.052 95.4714C190.047 95.0398 189.963 94.6181 189.808 94.2493C189.653 93.8803 189.434 93.5774 189.174 93.3711C188.571 92.9307 180.474 89.5037 180.474 89.5037L171.386 92.1572Z" fill="white" stroke="#263238" stroke-width="1.04167" stroke-linecap="round" stroke-linejoin="round"/>
<path d="M169.945 96.8997L170.765 102.811L166.83 131.328L168.206 139.305L172.336 130.605L172.267 102.568L175.533 96.0416L174.09 92.2759L169.945 96.8997Z" fill="#DA251C" stroke="#263238" stroke-width="1.04167" stroke-linecap="round" stroke-linejoin="round"/>
<path d="M167.141 129.07L171.216 132.959L172.335 130.605L172.332 129.29L167.72 124.892L167.141 129.07Z" fill="#263238"/>
<path d="M169.471 112.2L168.848 116.705L172.313 121.233L172.301 115.898L169.471 112.2Z" fill="#263238"/>
<path d="M170.248 99.0791L170.766 102.811L170.501 104.719L172.278 107.028L172.27 102.568L172.531 102.049L170.248 99.0791Z" fill="#263238"/>
<path d="M164.229 107.22L164.419 104.634" stroke="#263238" stroke-width="1.04167" stroke-linecap="round" stroke-linejoin="round"/>
<path d="M162.684 128.071L164.014 110.094" stroke="#263238" stroke-width="1.04167" stroke-linecap="round" stroke-linejoin="round"/>
<path d="M171.041 100.022L168.572 92.033L171.815 89.052L171.041 100.022Z" fill="white" stroke="#263238" stroke-width="1.04167" stroke-linecap="round" stroke-linejoin="round"/>
<path d="M168.57 92.033L167.633 98.5539L169.943 96.8996L168.57 92.033Z" fill="white" stroke="#263238" stroke-width="1.04167" stroke-linecap="round" stroke-linejoin="round"/>
<path d="M171.313 62.0536C171.313 62.0536 168.711 74.8131 168.525 80.1202C168.338 85.4273 169.454 87.7139 170.387 88.1712L171.216 88.6228L171.041 100.016L173.848 94.2461L174.089 92.27L179.534 84.524L180.763 79.5162C180.763 79.5162 182.847 80.1202 183.516 77.3876C184.185 74.655 183.372 73.1364 183.372 73.1364C183.372 73.1364 186.157 68.885 185.192 63.7191C184.228 58.5531 181.692 53.3928 176.878 53.3928C172.063 53.3928 168.766 57.6498 171.313 62.0536Z" fill="white" stroke="#263238" stroke-width="1.04167" stroke-linecap="round" stroke-linejoin="round"/>
<path d="M185.199 63.7248C184.232 58.5646 181.699 53.3987 176.886 53.3987C172.071 53.3987 168.765 57.6499 171.313 62.0537C171.313 62.0537 172.958 64.0297 174.113 63.7474C175.268 63.4651 176.018 62.2287 177.982 63.7474C179.946 65.2662 180.137 66.48 179.479 68.4561C178.822 70.4321 178.912 71.3411 179.211 72.1033C179.25 72.1961 179.285 72.2922 179.316 72.3912L177.429 79.2396C177.429 79.2396 176.83 77.416 174.342 75.8973C171.853 74.3786 168.897 76.6595 168.897 76.6595C166.953 88.9335 171.23 88.6512 171.23 88.6512C171.23 88.6512 176.287 87.2849 177.768 85.3145C179.249 83.3441 179.495 81.9722 179.63 79.8437C179.713 78.5847 179.709 75.7674 179.689 73.6897C179.825 74.2543 179.919 74.6835 179.919 74.6835C180.233 73.8146 180.769 73.1596 181.412 72.8598C182.076 72.6014 182.783 72.71 183.395 73.1647C183.395 73.1647 186.164 68.8908 185.199 63.7248Z" fill="#263238" stroke="#263238" stroke-width="1.04167" stroke-linecap="round" stroke-linejoin="round"/>
<path d="M173.288 68.5857L172.394 72.3798C172.394 72.3798 169.422 74.9655 170.061 75.2648C170.698 75.5639 172.782 74.6606 172.782 74.6606" stroke="#263238" stroke-width="1.04167" stroke-linecap="round" stroke-linejoin="round"/>
<path d="M170.006 78.9121C170.006 78.9121 171.234 80.7358 173.567 78.4548" stroke="white" stroke-width="1.04167" stroke-linecap="round" stroke-linejoin="round"/>
<path d="M175.315 71.9508C175.246 72.4758 174.997 72.8598 174.763 72.7977C174.53 72.7356 174.374 72.267 174.459 71.7363C174.546 71.2055 174.779 70.8273 175.015 70.8838C175.253 70.9402 175.385 71.4201 175.315 71.9508Z" fill="#263238"/>
<path d="M171.624 71.2C171.554 71.7308 171.305 72.1146 171.067 72.0525C170.83 71.9904 170.679 71.5162 170.768 70.9912C170.857 70.4661 171.083 70.0821 171.32 70.1386C171.557 70.195 171.693 70.7032 171.624 71.2Z" fill="#263238"/>
<path d="M170.781 68.0382C171.078 67.8341 171.403 67.7283 171.732 67.7283C172.06 67.7283 172.385 67.8341 172.682 68.0382" stroke="#263238" stroke-width="1.04167" stroke-linecap="round" stroke-linejoin="round"/>
<path d="M174.736 68.4109C175.14 68.3721 175.546 68.4738 175.918 68.7074C176.289 68.9411 176.618 69.3001 176.875 69.7546" stroke="#263238" stroke-width="1.04167" stroke-linecap="round" stroke-linejoin="round"/>
<path d="M173.85 94.252L174.787 98.7743L181.569 88.7191L179.543 84.5298L174.091 92.2759L173.85 94.252Z" fill="white" stroke="#263238" stroke-width="1.04167" stroke-linecap="round" stroke-linejoin="round"/>
<path d="M154.596 139.018C154.596 139.018 153.138 137.889 153.795 137.747C154.453 137.606 155.596 138.227 155.596 138.227C155.596 138.227 154.196 136.715 154.908 136.793C155.619 136.872 156.747 138.148 156.747 138.148C156.747 138.148 156.386 136.793 157.09 137.194C157.498 137.415 157.867 137.769 158.167 138.227C158.167 138.227 157.389 139.577 156.72 139.734C156.051 139.893 156.222 140.051 155.791 139.814C155.359 139.577 154.596 139.018 154.596 139.018Z" fill="white" stroke="#263238" stroke-width="1.04167" stroke-linecap="round" stroke-linejoin="round"/>
<path d="M164.604 131.938C164.604 131.938 160.863 131.937 160.327 132.593C159.791 133.248 159.035 134.935 158.771 135.196C158.507 135.455 155.535 135.591 155.613 136.5C155.692 137.408 157.48 137.539 157.48 137.539L156.177 139.492C156.177 139.492 153.42 138.064 153.229 138.843C153.038 139.622 156.15 141.316 156.866 141.316C157.581 141.316 159.032 140.667 159.304 140.277C159.576 139.888 162.532 135.992 162.532 135.992C162.66 136.421 164.807 135.698 164.896 135.241C164.985 134.783 164.604 131.938 164.604 131.938Z" fill="white" stroke="#263238" stroke-width="1.04167" stroke-linecap="round" stroke-linejoin="round"/>
<path d="M157.461 137.539C158.226 137.654 158.995 137.677 159.763 137.606C160.42 137.448 161.21 136.099 161.21 136.099" stroke="#263238" stroke-width="1.04167" stroke-linecap="round" stroke-linejoin="round"/>
<path d="M182.815 101.541L179.214 122.763L164.604 131.937L164.992 136.584C164.992 136.584 177.546 134.506 180.607 133.4C183.667 132.294 187.45 129.2 187.945 126.767C188.439 124.333 190.939 98.3337 190.892 96.3464C190.846 94.3591 190.698 94.1333 190.115 93.5799C189.532 93.0266 185.04 91.8127 185.04 91.8127" fill="white"/>
<path d="M182.815 101.541L179.214 122.763L164.604 131.937L164.992 136.584C164.992 136.584 177.546 134.506 180.607 133.4C183.667 132.294 187.45 129.2 187.945 126.767C188.439 124.333 190.939 98.3337 190.892 96.3464C190.846 94.3591 190.698 94.1333 190.115 93.5799C189.532 93.0266 185.04 91.8127 185.04 91.8127" stroke="#263238" stroke-width="1.04167" stroke-linecap="round" stroke-linejoin="round"/>
<path d="M166.834 130.724L167.366 135.478" stroke="#263238" stroke-width="1.04167" stroke-linecap="round" stroke-linejoin="round"/>
<path d="M150.311 129.42C150.647 129.499 150.969 129.673 151.258 129.932C151.547 130.192 151.799 130.531 151.998 130.932C152.197 131.332 152.34 131.786 152.418 132.267C152.496 132.747 152.508 133.246 152.453 133.733" stroke="#263238" stroke-width="1.04167" stroke-linecap="round" stroke-linejoin="round"/>
<path d="M148.842 130.736L146.784 132.175C146.228 131.948 145.661 131.775 145.09 131.655C144.731 131.655 144.273 132.305 143.207 131.655C142.142 131.006 141.263 130.092 141.24 131.266C141.225 131.765 141.318 132.256 141.503 132.676C141.689 133.095 141.959 133.421 142.278 133.61C142.815 133.869 143.445 134.258 143.445 134.258L140.049 139.21C140.049 139.21 138.307 141.682 138.747 142.072C139.186 142.462 143.156 141.164 143.802 140.898C144.448 140.632 148.053 138.554 148.608 137.511C149.165 136.466 149.441 135.817 149.441 135.817L150.997 135.15C150.997 135.15 150.589 131.898 148.842 130.736Z" stroke="#263238" stroke-width="1.04167" stroke-linecap="round" stroke-linejoin="round"/>
<path d="M147.354 136.082C147.354 136.082 145.568 135.693 144.841 136.211C144.114 136.731 143.091 139.08 143.091 139.08C143.091 139.08 140.758 140.119 140.193 140.898" stroke="#263238" stroke-width="1.04167" stroke-linecap="round" stroke-linejoin="round"/>
<path d="M104.42 145.888H94.2891V151.404H104.42V145.888Z" fill="white" stroke="#263238" stroke-width="1.04167" stroke-linecap="round" stroke-linejoin="round"/>
<path d="M118.962 103.957H79.7507C78.8636 103.957 78.1445 105.001 78.1445 106.288V146.126C78.1445 147.413 78.8636 148.457 79.7507 148.457H118.962C119.85 148.457 120.568 147.413 120.568 146.126V106.288C120.568 105.001 119.85 103.957 118.962 103.957Z" fill="#263238" stroke="#263238" stroke-width="1.04167" stroke-linecap="round" stroke-linejoin="round"/>
<path d="M78.1445 141.276V146.108C78.1445 146.727 78.3138 147.321 78.6149 147.757C78.9162 148.195 79.3247 148.441 79.7507 148.441H118.962C119.388 148.441 119.797 148.195 120.098 147.757C120.4 147.321 120.568 146.727 120.568 146.108V141.276H78.1445Z" fill="white" stroke="#263238" stroke-width="1.04167" stroke-linecap="round" stroke-linejoin="round"/>
<path d="M147.845 104.177L134.825 104.33C134.825 104.33 133.966 104.177 133.751 105.115C133.751 105.115 131.492 113.392 131.384 116.355C131.274 119.32 131.815 118.856 130.955 122.757C130.096 126.659 127.619 135.878 126.219 143.376C124.341 153.449 123.85 164.147 123.734 174.542C123.715 176.236 123.026 190.57 124.815 190.57C126.3 190.57 139.982 193.206 140.161 189.373C140.818 174.095 138.916 159.168 142.572 144.314C143.991 138.544 145.621 132.457 146.822 126.411C148.024 120.364 148.238 114.103 149.027 107.921C149.568 103.709 147.845 104.177 147.845 104.177Z" fill="#263238" stroke="#263238" stroke-width="1.04167" stroke-miterlimit="10"/>
<path d="M149.117 106.046C148.989 103.867 147.845 104.177 147.845 104.177L134.826 104.33C134.826 104.33 133.966 104.177 133.752 105.114C133.752 105.114 131.492 113.392 131.384 116.355C131.357 117.141 131.373 117.928 131.431 118.709L131.707 119.325C131.707 119.325 132.138 124.791 137.303 125.101C142.467 125.411 145.368 121.979 146.457 118.693C147.546 115.407 147.962 110.105 148.826 106.978C148.912 106.66 149.009 106.349 149.117 106.046Z" fill="#BABABA" stroke="#263238" stroke-width="1.04167" stroke-linecap="round" stroke-linejoin="round"/>
<path d="M146.099 112.144C145.227 116.711 145.752 117.976 144.877 125.834C144.002 133.694 140.864 142.564 139.639 150.676C138.414 158.79 138.943 187.431 139.118 188.701C139.185 189.374 139.21 190.054 139.192 190.733C139.779 190.418 140.133 189.977 140.16 189.378C140.818 174.101 138.915 159.173 142.571 144.319C143.99 138.549 145.62 132.462 146.822 126.417C148.024 120.37 148.237 114.108 149.027 107.926C149.357 105.341 148.836 104.539 148.381 104.268V104.296C147.396 106.761 146.629 109.399 146.099 112.144Z" fill="#BABABA" stroke="#263238" stroke-width="1.04167" stroke-linecap="round" stroke-linejoin="round"/>
<path d="M120.962 227.477L120.873 227.375V209.732H122.619V198.581H116.159V209.732H117.906V227.657L102.455 234.805V236.583C102.455 237.121 102.602 237.637 102.864 238.017C103.126 238.397 103.481 238.61 103.851 238.61C104.221 238.61 104.577 238.397 104.838 238.017C105.1 237.637 105.248 237.121 105.248 236.583V236.329L118.167 234.15V236.838C118.184 237.291 118.321 237.718 118.548 238.03C118.775 238.342 119.076 238.516 119.389 238.516C119.702 238.516 120.003 238.342 120.231 238.03C120.458 237.718 120.595 237.291 120.612 236.838V234.059L134.056 236.318V236.572C134.056 237.109 134.203 237.625 134.465 238.005C134.727 238.385 135.082 238.599 135.452 238.599C135.823 238.599 136.178 238.385 136.439 238.005C136.701 237.625 136.849 237.109 136.849 236.572V234.794L120.962 227.477Z" fill="#263238" stroke="#263238" stroke-width="1.04167" stroke-miterlimit="10"/>
<path d="M139.597 187.696H100.798C99.9386 187.696 99.2422 188.707 99.2422 189.954V198.372C99.2422 199.62 99.9386 200.63 100.798 200.63H139.597C140.457 200.63 141.153 199.62 141.153 198.372V189.954C141.153 188.707 140.457 187.696 139.597 187.696Z" fill="#263238" stroke="#263238" stroke-width="1.04167" stroke-miterlimit="10"/>
<path d="M82.2196 237.712H80.4813L79.3496 164.04H83.7441L82.2196 237.712Z" fill="#263238" stroke="#263238" stroke-width="1.04167" stroke-miterlimit="10"/>
<path d="M168.278 237.712H166.536L165.404 164.04H169.798L168.278 237.712Z" fill="#263238" stroke="#263238" stroke-width="1.04167" stroke-miterlimit="10"/>
<path d="M70.3945 152.647L71.8917 240.321H73.6922L75.1895 167.625H176.833L178.137 240.321H180.863L181.449 152.647H70.3945Z" fill="white" stroke="#263238" stroke-width="1.04167" stroke-linecap="round" stroke-linejoin="round"/>
<path d="M181.368 154.753H70.4453V157.18H181.368V154.753Z" fill="#757575" stroke="#263238" stroke-width="1.04167" stroke-miterlimit="10"/>
<path d="M182.227 151.207H68.0527V155.041H182.227V151.207Z" fill="white" stroke="#263238" stroke-width="1.04167" stroke-linecap="round" stroke-linejoin="round"/>
<path d="M275.551 233.783H2.61719" stroke="#263238" stroke-width="1.04167" stroke-linecap="round" stroke-linejoin="round"/>
<path d="M60.901 153.477C60.901 153.477 61.2393 156.865 61.5465 157.908C61.8538 158.953 62.161 160.427 61.7527 161.466C61.3443 162.504 58.0621 164.627 58.0621 164.627L57.9727 151.387L60.7415 150.75L60.901 153.477Z" fill="white" stroke="#263238" stroke-width="1.04167" stroke-linecap="round" stroke-linejoin="round"/>
<path d="M60.0839 156.616C60.0839 156.616 59.9946 158.055 59.7923 159.688C59.5901 161.319 59.5473 163.204 58.3223 163.075" fill="white"/>
<path d="M60.0839 156.616C60.0839 156.616 59.9946 158.055 59.7923 159.688C59.5901 161.319 59.5473 163.204 58.3223 163.075" stroke="#263238" stroke-width="1.04167" stroke-linecap="round" stroke-linejoin="round"/>
<path d="M57.4419 94.9126L59.4836 127.376L60.9147 151.98L57.5469 152.127L55.8086 130.188L57.4419 94.9126Z" fill="white" stroke="#263238" stroke-width="1.04167" stroke-linecap="round" stroke-linejoin="round"/>
<path d="M35.6409 133.118C35.6409 133.118 34.6531 145.776 34.8631 147.402C35.0731 149.028 35.7498 185.545 35.7498 185.545C35.7498 185.545 34.2564 198.378 34.3109 200.727C34.3653 203.075 34.8436 228.928 34.8436 228.928C34.8436 228.928 33.8326 233.805 33.6769 234.89C33.5214 235.974 33.7198 237.605 34.2098 237.967C34.6998 238.328 37.9198 238.87 39.2964 238.531C40.6731 238.193 42.3064 237.808 42.6292 235.274C42.9519 232.738 41.9369 229.131 42.0926 228.047C42.2891 226.614 42.419 225.163 42.4814 223.705L42.5514 221.356C42.5514 221.356 45.1103 197.497 45.1336 196.775C45.1569 196.052 46.6892 173.452 46.6892 173.452C46.6892 173.452 46.5103 205.272 46.3664 210.33C46.2226 215.388 45.6819 220.995 45.6626 221.718C45.6431 222.441 45.1336 231.316 45.2386 232.022C45.3436 232.727 46.1992 233.286 46.9381 233.467C47.6769 233.648 49.6798 233.467 50.0492 233.467C50.4186 233.467 53.1331 234.37 54.8792 234.37C56.6253 234.37 58.6242 234.009 58.2976 232.383C57.9709 230.757 55.1553 229.131 54.3036 228.431C53.4519 227.73 52.3319 223.35 52.3319 223.35C52.3319 223.35 53.1798 219.917 53.2342 218.11C53.2886 216.303 57.0453 189.728 57.6326 182.316C58.2198 174.903 57.7064 141.101 57.7064 141.101L58.1769 133.304C58.1769 133.304 43.4926 137.279 35.6409 133.118Z" fill="#263238" stroke="#263238" stroke-width="1.04167" stroke-linecap="round" stroke-linejoin="round"/>
<path d="M39.4708 85.2751C39.4708 85.2751 34.5708 91.0564 32.323 92.8349C30.0753 94.6133 27.528 96.9846 27.528 96.9846C27.528 96.9846 24.5647 133.304 24.872 134.637C25.1791 135.969 26.4041 155.092 26.4041 155.092L30.8958 154.826L32.0197 131.554L34.353 120.263L34.6563 133.603C34.6563 133.603 34.4541 135.534 35.578 136.274C36.702 137.014 46.5097 138.341 51.4175 137.889C56.3253 137.437 57.8497 134.772 58.0558 133.293C58.262 131.814 58.5653 105.78 58.6663 102.964C58.7675 100.146 57.7603 92.801 55.3375 88.6852C54.6725 87.556 47.233 85.563 47.233 85.563C47.233 85.563 42.127 83.2031 39.4708 85.2751Z" fill="white" stroke="#263238" stroke-width="1.04167" stroke-linecap="round" stroke-linejoin="round"/>
<path d="M45.8633 92.2082L48.6321 97.6452L47.6561 130.747C47.6561 130.747 49.7716 134.767 50.0983 135.478C50.4249 136.19 53.0305 129.804 53.0305 129.804L49.9194 98.1194L51.2221 92.4454L50.4833 89.1256L46.8238 87.4771L45.8633 92.2082Z" fill="#DA251C" stroke="#263238" stroke-width="1.04167" stroke-linecap="round" stroke-linejoin="round"/>
<path d="M48.2305 111.223L50.9644 108.666L50.4938 103.85L48.3899 105.815L48.2305 111.223Z" fill="#263238"/>
<path d="M48.6316 97.645L48.5732 99.6267L49.9499 98.2829L49.9344 98.1193L51.2372 92.4452L51.1049 91.8467L47.4766 95.3753L48.6316 97.645Z" fill="#263238"/>
<path d="M53.0286 129.804L52.6398 125.981L47.6776 129.487L47.6426 130.747C47.6426 130.747 48.3776 132.141 49.0464 133.434L52.5192 130.983C52.8264 130.29 53.0286 129.804 53.0286 129.804Z" fill="#263238"/>
<path d="M48.0286 118.089L47.8652 123.554L52.0263 119.528L51.5519 114.678L48.0286 118.089Z" fill="#263238"/>
<path d="M34.3691 120.256L38.1453 108.101" stroke="#263238" stroke-width="1.04167" stroke-linecap="round" stroke-linejoin="round"/>
<path d="M49.2919 94.201L51.3413 85.2693L48.6113 83.2876L49.2919 94.201Z" fill="white" stroke="#263238" stroke-width="1.04167" stroke-linecap="round" stroke-linejoin="round"/>
<path d="M51.3399 85.2693L54.0739 90.1077L50.4961 89.1254L51.3399 85.2693Z" fill="white" stroke="#263238" stroke-width="1.04167" stroke-linecap="round" stroke-linejoin="round"/>
<path d="M48.1839 57.2491C48.1839 57.2491 49.1212 62.9514 50.1283 66.2825C51.1355 69.6135 51.4078 71.7364 51.0695 75.0843C50.7312 78.4324 50.7272 79.9229 50.2139 80.2955C49.6046 80.6258 48.976 80.8753 48.3355 81.0407L49.2728 94.1842L47.1378 89.8426L40.2389 80.3011L36.4822 65.7913C36.4822 65.7913 34.5378 62.3191 37.0812 57.9831C39.6245 53.6471 46.4767 54.1496 48.1839 57.2491Z" fill="white" stroke="#263238" stroke-width="1.04167" stroke-linecap="round" stroke-linejoin="round"/>
<path d="M37.4222 70.1386L38.616 69.3934C38.3202 69.0142 38.1003 68.5261 37.9799 67.9804C37.8594 67.4348 37.8427 66.852 37.9317 66.2938C38.2739 64.4363 41.7777 63.3185 41.35 61.8279C40.9222 60.3374 36.9088 60.0946 39.5572 58.3558C42.2055 56.6168 46.8994 58.9768 48.4394 59.2252C49.9794 59.4736 48.525 54.6408 48.525 54.6408C48.525 54.6408 51.2472 53.8955 49.12 51.0444C46.9927 48.1933 38.1883 49.9152 35.711 53.7713C33.2338 57.6274 33.7667 60.7157 34.5172 62.8046C35.2677 64.8936 36.6522 69.8733 36.6522 69.8733L37.4222 70.1386Z" fill="#263238" stroke="#263238" stroke-width="1.04167" stroke-linecap="round" stroke-linejoin="round"/>
<path d="M38.6145 70.8894C38.6145 70.8894 36.9073 68.281 35.9662 69.5231C35.0252 70.7651 36.394 73.8647 37.5218 74.9769C38.6495 76.0892 39.6568 74.7286 39.6568 74.7286" fill="white"/>
<path d="M38.6145 70.8894C38.6145 70.8894 36.9073 68.281 35.9662 69.5231C35.0252 70.7651 36.394 73.8647 37.5218 74.9769C38.6495 76.0892 39.6568 74.7286 39.6568 74.7286" stroke="#263238" stroke-width="1.04167" stroke-linecap="round" stroke-linejoin="round"/>
<path d="M48.183 61.9579C48.183 61.9579 47.3275 60.9698 46.8996 62.3305C46.6478 63.2347 46.5882 64.2277 46.7285 65.1816L49.4508 71.138L46.8025 72.0018" stroke="#263238" stroke-width="1.04167" stroke-linecap="round" stroke-linejoin="round"/>
<path d="M47.7554 74.3617C47.1503 74.6673 46.5004 74.7364 45.8711 74.5619C45.2417 74.3875 44.655 73.9757 44.1699 73.3679" stroke="#263238" stroke-width="1.04167" stroke-linecap="round" stroke-linejoin="round"/>
<path d="M44.5926 63.0755C44.5926 63.0755 42.372 61.8334 41.2637 64.8088" stroke="#263238" stroke-width="1.04167" stroke-linecap="round" stroke-linejoin="round"/>
<path d="M44.3803 68.2867C44.6874 68.2867 44.9364 67.7305 44.9364 67.0446C44.9364 66.3585 44.6874 65.8025 44.3803 65.8025C44.0732 65.8025 43.8242 66.3585 43.8242 67.0446C43.8242 67.7305 44.0732 68.2867 44.3803 68.2867Z" fill="#263238"/>
<path d="M49.206 65.43C49.206 66.1188 48.957 66.672 48.6537 66.672C48.3504 66.672 48.0977 66.1075 48.0977 65.43C48.0977 64.7525 48.3465 64.1936 48.6537 64.1936C48.961 64.1936 49.206 64.7468 49.206 65.43Z" fill="#263238"/>
<path d="M48.3536 81.0577L44.4258 80.5608L48.7813 88.7416L48.3536 81.0577Z" fill="#263238" stroke="#263238" stroke-width="1.04167" stroke-miterlimit="10"/>
<path d="M40.2381 80.3125L38.4453 84.8969L44.0842 96.6797L47.1565 89.8596L40.2381 80.3125Z" fill="white" stroke="#263238" stroke-width="1.04167" stroke-linecap="round" stroke-linejoin="round"/>
<path d="M26.5922 161.426H32.3944C32.6143 161.426 32.8321 161.489 33.0352 161.611C33.2384 161.733 33.4228 161.914 33.5783 162.14C33.7336 162.366 33.8566 162.633 33.9404 162.928C34.0243 163.224 34.0671 163.541 34.0666 163.859V169.505H24.9199V163.859C24.9194 163.541 24.9623 163.224 25.0462 162.928C25.1299 162.633 25.2531 162.366 25.4084 162.14C25.5637 161.914 25.7482 161.733 25.9514 161.611C26.1545 161.489 26.3722 161.426 26.5922 161.426Z" stroke="#263238" stroke-width="4.16667" stroke-linecap="round" stroke-linejoin="round"/>
<path d="M40.8775 167.874H17.863C16.6345 167.874 15.6387 169.32 15.6387 171.103V191.276C15.6387 193.059 16.6345 194.505 17.863 194.505H40.8775C42.1061 194.505 43.102 193.059 43.102 191.276V171.103C43.102 169.32 42.1061 167.874 40.8775 167.874Z" fill="#636363" stroke="#263238" stroke-width="1.04167" stroke-linecap="round" stroke-linejoin="round"/>
<path d="M30.897 154.826C30.897 154.826 31.6126 156.452 32.3243 157.936C33.036 159.422 34.3698 160.161 34.2687 160.901C34.203 161.245 34.0517 161.542 33.8441 161.733C33.6366 161.925 33.3874 161.999 33.1448 161.939C32.7365 161.793 31.1032 159.862 31.1032 159.862L31.4104 163.719C31.4104 163.719 31.7993 165.051 31.1032 165.497C30.407 165.943 29.3687 165.943 29.1587 165.497C29.0065 165.118 28.8764 164.722 28.7698 164.311C28.7698 164.311 27.0315 164.311 26.522 163.864C26.0126 163.419 25.3982 162.679 25.4993 160.754C25.6004 158.829 26.421 155.108 26.421 155.108L30.897 154.826Z" fill="white" stroke="#263238" stroke-width="1.04167" stroke-linecap="round" stroke-linejoin="round"/>
</g>
<defs>
<clipPath id="clip0_7652_12250">
<rect width="277.083" height="250" fill="white" transform="translate(0.458984 0.5)"/>
</clipPath>
</defs>
</svg>
