<svg width="50" height="50" viewBox="0 0 50 50" fill="none" xmlns="http://www.w3.org/2000/svg">
<g clip-path="url(#clip0_8090_15012)">
<path d="M47.907 37.4883H41.6513V31.2326C41.6513 30.6796 41.4316 30.1492 41.0405 29.7581C40.6495 29.367 40.1191 29.1474 39.5661 29.1474C39.013 29.1474 38.4826 29.367 38.0916 29.7581C37.7005 30.1492 37.4808 30.6796 37.4808 31.2326V37.4883H31.2251C30.672 37.4883 30.1417 37.708 29.7506 38.0991C29.3595 38.4901 29.1398 39.0205 29.1398 39.5736C29.1398 40.1266 29.3595 40.657 29.7506 41.0481C30.1417 41.4391 30.672 41.6588 31.2251 41.6588H37.4808V47.9145C37.4808 48.4676 37.7005 48.998 38.0916 49.389C38.4826 49.7801 39.013 49.9998 39.5661 49.9998C40.1191 49.9998 40.6495 49.7801 41.0405 49.389C41.4316 48.998 41.6513 48.4676 41.6513 47.9145V41.6588H47.907C48.4601 41.6588 48.9905 41.4391 49.3815 41.0481C49.7726 40.657 49.9923 40.1266 49.9923 39.5736C49.9923 39.0205 49.7726 38.4901 49.3815 38.0991C48.9905 37.708 48.4601 37.4883 47.907 37.4883ZM22.8841 14.5507V24.1136L17.2394 29.7583C17.0402 29.9507 16.8813 30.1808 16.772 30.4352C16.6628 30.6896 16.6052 30.9632 16.6028 31.2401C16.6004 31.517 16.6532 31.7916 16.758 32.0478C16.8629 32.3041 17.0177 32.5369 17.2135 32.7327C17.4093 32.9285 17.6421 33.0833 17.8984 33.1882C18.1547 33.293 18.4292 33.3458 18.7061 33.3434C18.983 33.341 19.2566 33.2835 19.511 33.1742C19.7654 33.0649 19.9955 32.906 20.1879 32.7069L26.4436 26.4511C26.8347 26.0602 27.0545 25.5299 27.0546 24.9769V14.5507C27.0546 13.9976 26.8349 13.4672 26.4438 13.0762C26.0528 12.6851 25.5224 12.4654 24.9694 12.4654C24.4163 12.4654 23.8859 12.6851 23.4949 13.0762C23.1038 13.4672 22.8841 13.9976 22.8841 14.5507ZM30.6579 45.0452C26.2235 46.295 21.4999 46.0388 17.2267 44.3166C12.9536 42.5945 9.37233 39.5037 7.04378 35.5283C4.71523 31.553 3.77093 26.9176 4.35877 22.3482C4.94662 17.7787 7.0334 13.5332 10.2923 10.2767C13.5512 7.02017 17.7982 4.93646 22.368 4.35193C26.9379 3.7674 31.5726 4.71506 35.5463 7.04649C39.5199 9.37792 42.6081 12.9614 44.3272 17.2358C46.0462 21.5102 46.2991 26.234 45.0461 30.6675C44.9613 30.934 44.931 31.2149 44.957 31.4934C44.983 31.7719 45.0647 32.0423 45.1974 32.2885C45.33 32.5348 45.5108 32.7518 45.7291 32.9268C45.9473 33.1017 46.1986 33.2309 46.4678 33.3067C46.737 33.3826 47.0187 33.4035 47.2962 33.3682C47.5737 33.3329 47.8412 33.2422 48.0829 33.1014C48.3245 32.9606 48.5354 32.7726 48.703 32.5487C48.8705 32.3247 48.9913 32.0693 49.0581 31.7977C50.5624 26.4736 50.2582 20.8009 48.1931 15.6682C46.1279 10.5356 42.4185 6.23294 37.646 3.43436C32.8735 0.635778 27.3075 -0.500643 21.8199 0.203127C16.3323 0.906896 11.2332 3.4111 7.32129 7.32343C3.40943 11.2358 0.905849 16.3352 0.202743 21.8229C-0.500364 27.3106 0.636729 32.8765 3.43589 37.6486C6.23505 42.4208 10.5381 46.1297 15.671 48.1942C20.804 50.2587 26.4767 50.5622 31.8006 49.0573C32.0699 48.988 32.3226 48.8656 32.5439 48.6973C32.7652 48.529 32.9506 48.3181 33.0891 48.0771C33.2277 47.836 33.3167 47.5697 33.3509 47.2938C33.385 47.0179 33.3636 46.7379 33.288 46.4703C33.2123 46.2028 33.084 45.9531 32.9104 45.7359C32.7368 45.5187 32.5215 45.3384 32.2773 45.2056C32.033 45.0728 31.7646 44.9902 31.4879 44.9627C31.2113 44.9352 30.9319 44.9632 30.6662 45.0452H30.6579Z" fill="#F2B542"/>
</g>
<defs>
<clipPath id="clip0_8090_15012">
<rect width="50" height="50" fill="white"/>
</clipPath>
</defs>
</svg>
