<svg width="101" height="100" viewBox="0 0 101 100" fill="none" xmlns="http://www.w3.org/2000/svg">
<path d="M25.0811 69.6896L7.40354 63.398C6.62591 63.1183 5.76211 63.2011 5.04825 63.6139C4.33327 64.0291 3.8376 64.7396 3.69326 65.5519L0.388013 84.1067C0.115 85.6362 1.1332 87.0964 2.66275 87.3672C2.82834 87.3974 2.99506 87.4108 3.15842 87.4108C4.49327 87.4108 5.68043 86.4541 5.92323 85.0924L7.78957 74.6094C16.5998 90.1398 33.3476 99.7344 51.014 99.7344C54.176 99.7344 57.3716 99.4267 60.5504 98.7901C83.0918 94.2887 99.8195 74.3442 100.326 51.3653C100.361 49.8134 99.1313 48.5266 97.5794 48.4942C97.557 48.4919 97.5358 48.4919 97.5156 48.4919C95.9906 48.4919 94.7408 49.7115 94.705 51.2411C94.2574 71.6085 79.4297 89.2861 59.4483 93.2761C40.5947 97.0435 21.3071 87.7991 12.2663 71.0972L23.1935 74.9876C24.6626 75.5079 26.2638 74.7426 26.7841 73.2813C27.3044 71.82 26.5424 70.2099 25.0811 69.6896Z" fill="#194369"/>
<path d="M98.0056 11.5614C96.4716 11.2995 95.0226 12.3289 94.7608 13.8585L92.9795 24.2934C82.2805 6.98728 61.4823 -2.37236 41.1496 1.68815C18.6082 6.19286 1.8783 26.1385 1.37367 49.114C1.34123 50.666 2.5709 51.9527 4.12282 51.9851C4.1452 51.9874 4.16422 51.9874 4.1866 51.9874C5.70943 51.9874 6.96148 50.7678 6.99505 49.236C7.44261 28.8731 22.2703 11.1932 42.2517 7.20099C60.5514 3.54105 79.2718 12.1577 88.6203 27.9533L77.5666 24.1088C76.0964 23.5997 74.4963 24.3751 73.9872 25.8397C73.4781 27.3066 74.2535 28.9077 75.7204 29.4191L93.4371 35.5798C93.737 35.6849 94.0492 35.7353 94.3591 35.7353C94.857 35.7353 95.3516 35.6044 95.7902 35.3437C96.5007 34.9241 96.9919 34.2113 97.1295 33.3968L100.303 14.8039C100.566 13.2755 99.5363 11.8221 98.0056 11.5614Z" fill="#194369"/>
<path d="M61.61 46.3191C61.61 39.9928 56.4608 34.8447 50.1323 34.8447C43.8038 34.8447 38.6523 39.9939 38.6523 46.3191C38.6523 52.6499 43.8038 57.8013 50.1323 57.8013C56.4608 57.8013 61.61 52.651 61.61 46.3191ZM50.1323 52.1788C46.902 52.1788 44.276 49.5516 44.276 46.3202C44.276 43.0944 46.9031 40.4683 50.1323 40.4683C53.3603 40.4683 55.9864 43.0944 55.9864 46.3202C55.9875 49.5516 53.3603 52.1788 50.1323 52.1788Z" fill="#194369"/>
<path d="M50.137 82.5088C50.9024 82.5088 51.6319 82.1989 52.1634 81.6472C54.3598 79.368 73.6195 59.0152 73.6195 46.8169C73.6195 33.8667 63.0861 23.3311 50.1382 23.3311C37.1879 23.3311 26.6523 33.8667 26.6523 46.8169C26.6523 59.0152 45.9188 79.368 48.1152 81.6472C48.6422 82.1989 49.3751 82.5088 50.137 82.5088ZM50.137 28.9547C59.9845 28.9547 67.9959 36.9683 67.9959 46.8169C67.9959 54.3516 56.5204 68.5482 50.137 75.5761C43.7537 68.5482 32.2737 54.3516 32.2737 46.8169C32.2737 36.9683 40.2873 28.9547 50.137 28.9547Z" fill="#194369"/>
</svg>
