<svg width="50" height="55" viewBox="0 0 50 55" fill="none" xmlns="http://www.w3.org/2000/svg">
<g clip-path="url(#clip0_8090_15014)">
<path d="M8.49891 29.9179V11.0545C8.49891 7.94307 8.49891 6.38621 9.10443 5.19781C9.63706 4.15246 10.4863 3.30319 11.5317 2.77056C12.7201 2.16504 14.2769 2.16504 17.3883 2.16504H29.8176C30.158 2.16504 30.4559 2.16504 30.7211 2.16745M30.7211 2.16745C31.5146 2.17468 32.0165 2.2035 32.4957 2.31854C33.0626 2.45463 33.6041 2.67966 34.1011 2.98427C34.6616 3.32772 35.1428 3.80897 36.1031 4.76921L44.785 13.4511C45.7458 14.4119 46.2236 14.891 46.5671 15.4517C46.8717 15.9488 47.0971 16.4907 47.2332 17.0576C47.3482 17.5366 47.3776 18.0387 47.3852 18.8317M30.7211 2.16745V9.94281C30.7211 13.0542 30.7211 14.6088 31.3267 15.7972C31.8593 16.8426 32.7086 17.6941 33.7539 18.2268C34.9411 18.8317 36.4961 18.8317 39.6015 18.8317H47.3852M47.3852 18.8317C47.3877 19.0973 47.3878 19.3955 47.3878 19.7364V43.286C47.3878 46.3914 47.3878 47.9441 46.7829 49.1314C46.2502 50.1767 45.3987 51.0275 44.3533 51.5601C43.1661 52.165 41.6128 52.165 38.5074 52.165H20.7005M47.3852 18.8317H47.3883M16.8322 32.7206L22.3878 38.2761M2.94336 52.165V45.2206L23.7767 24.3873L30.7211 31.3317L9.8878 52.165H2.94336Z" stroke="#2391FF" stroke-width="4.12414" stroke-linecap="round" stroke-linejoin="round"/>
</g>
<defs>
<clipPath id="clip0_8090_15014">
<rect width="50" height="55" fill="white"/>
</clipPath>
</defs>
</svg>
