<svg width="51" height="56" viewBox="0 0 51 56" fill="none" xmlns="http://www.w3.org/2000/svg">
<g clip-path="url(#clip0_8090_15016)">
<path d="M14.3346 8.93682H12.1565C9.10614 8.93682 7.57981 8.93682 6.41471 9.53046C5.38986 10.0526 4.55724 10.8853 4.03505 11.9101C3.44141 13.0752 3.44141 14.6016 3.44141 17.652V19.8301M14.3346 8.93682H36.1211M14.3346 8.93682V3.4902M3.44141 19.8301V43.7958C3.44141 46.8462 3.44141 48.3705 4.03505 49.5356C4.55724 50.5605 5.38986 51.3945 6.41471 51.9168C7.57867 52.5098 9.10315 52.5098 12.1476 52.5098H38.3082C41.3527 52.5098 42.8749 52.5098 44.0389 51.9168C45.0638 51.3945 45.8992 50.5605 46.4213 49.5356C47.0143 48.3717 47.0143 46.8494 47.0143 43.8049V19.8301M3.44141 19.8301H47.0143M36.1211 8.93682H38.3003C41.3507 8.93682 42.8738 8.93682 44.0389 9.53046C45.0638 10.0526 45.8992 10.8853 46.4213 11.9101C47.0143 13.0741 47.0143 14.5985 47.0143 17.643V19.8301M36.1211 8.93682V3.4902M36.1211 41.6166H36.1266L36.1265 41.622L36.1211 41.6219V41.6166ZM25.2279 41.6166H25.2334L25.2332 41.622L25.2279 41.6219V41.6166ZM14.3346 41.6166H14.3401L14.3399 41.622L14.3346 41.6219V41.6166ZM36.1265 30.7233V30.7287L36.1211 30.7286V30.7233H36.1265ZM25.2279 30.7233H25.2334L25.2332 30.7287L25.2279 30.7286V30.7233ZM14.3346 30.7233H14.3401L14.3399 30.7287L14.3346 30.7286V30.7233Z" stroke="#917FFB" stroke-width="5.44663" stroke-linecap="round" stroke-linejoin="round"/>
</g>
<defs>
<clipPath id="clip0_8090_15016">
<rect width="50" height="54.902" fill="white" transform="translate(0.5 0.549019)"/>
</clipPath>
</defs>
</svg>
