<svg width="50" height="51" viewBox="0 0 50 51" fill="none" xmlns="http://www.w3.org/2000/svg">
<path fill-rule="evenodd" clip-rule="evenodd" d="M33.3324 8.56281C33.3329 10.2866 32.799 11.9681 31.8041 13.3757C30.8093 14.7834 29.4025 15.8481 27.7775 16.423V22.4501H36.1099C38.3198 22.4501 40.4391 23.328 42.0018 24.8906C43.5644 26.4533 44.4423 28.5727 44.4423 30.7825V34.0322C46.2962 34.6874 47.8588 35.977 48.8539 37.6729C49.849 39.3688 50.2124 41.362 49.88 43.3C49.5476 45.238 48.5408 46.9961 47.0375 48.2636C45.5341 49.531 43.6311 50.2262 41.6648 50.2262C39.6985 50.2262 37.7955 49.531 36.2921 48.2636C34.7888 46.9961 33.782 45.238 33.4496 43.3C33.1172 41.362 33.4806 39.3688 34.4757 37.6729C35.4708 35.977 37.0334 34.6874 38.8873 34.0322V30.7825C38.8873 30.0459 38.5947 29.3395 38.0738 28.8186C37.553 28.2977 36.8465 28.0051 36.1099 28.0051H13.8901C13.1535 28.0051 12.447 28.2977 11.9262 28.8186C11.4053 29.3395 11.1127 30.0459 11.1127 30.7825V34.0322C12.9666 34.6874 14.5292 35.977 15.5243 37.6729C16.5194 39.3688 16.8828 41.362 16.5504 43.3C16.218 45.238 15.2112 46.9961 13.7079 48.2636C12.2045 49.531 10.3015 50.2262 8.3352 50.2262C6.36888 50.2262 4.46587 49.531 2.96254 48.2636C1.45921 46.9961 0.452367 45.238 0.119973 43.3C-0.212421 41.362 0.15104 39.3688 1.14611 37.6729C2.14118 35.977 3.70379 34.6874 5.55773 34.0322V30.7825C5.55773 28.5727 6.4356 26.4533 7.99823 24.8906C9.56086 23.328 11.6802 22.4501 13.8901 22.4501H22.2225V16.423C20.7814 15.9143 19.508 15.0192 18.5413 13.8355C17.5746 12.6518 16.952 11.2251 16.7415 9.71141C16.531 8.19772 16.7407 6.65529 17.3477 5.25275C17.9546 3.8502 18.9355 2.64153 20.1831 1.75886C21.4307 0.876199 22.8969 0.353521 24.4215 0.247972C25.9462 0.142422 27.4704 0.458064 28.8277 1.16039C30.1851 1.86272 31.3232 2.92469 32.1176 4.23021C32.9121 5.53574 33.3323 7.03455 33.3324 8.56281ZM25 5.78534C24.2634 5.78534 23.5569 6.07796 23.036 6.59884C22.5152 7.11972 22.2225 7.82618 22.2225 8.56281C22.2225 9.29944 22.5152 10.0059 23.036 10.5268C23.5569 11.0476 24.2634 11.3403 25 11.3403C25.7366 11.3403 26.4431 11.0476 26.964 10.5268C27.4848 10.0059 27.7775 9.29944 27.7775 8.56281C27.7775 7.82618 27.4848 7.11972 26.964 6.59884C26.4431 6.07796 25.7366 5.78534 25 5.78534ZM8.3352 39.1149C7.59857 39.1149 6.89211 39.4076 6.37123 39.9284C5.85035 40.4493 5.55773 41.1558 5.55773 41.8924C5.55773 42.629 5.85035 43.3355 6.37123 43.8564C6.89211 44.3773 7.59857 44.6699 8.3352 44.6699C9.07183 44.6699 9.77829 44.3773 10.2992 43.8564C10.82 43.3355 11.1127 42.629 11.1127 41.8924C11.1127 41.1558 10.82 40.4493 10.2992 39.9284C9.77829 39.4076 9.07183 39.1149 8.3352 39.1149ZM41.6648 39.1149C40.9282 39.1149 40.2217 39.4076 39.7008 39.9284C39.18 40.4493 38.8873 41.1558 38.8873 41.8924C38.8873 42.629 39.18 43.3355 39.7008 43.8564C40.2217 44.3773 40.9282 44.6699 41.6648 44.6699C42.4014 44.6699 43.1079 44.3773 43.6288 43.8564C44.1496 43.3355 44.4423 42.629 44.4423 41.8924C44.4423 41.1558 44.1496 40.4493 43.6288 39.9284C43.1079 39.4076 42.4014 39.1149 41.6648 39.1149Z" fill="#38597C"/>
</svg>
